<svg xmlns="http://www.w3.org/2000/svg" xmlns:xlink="http://www.w3.org/1999/xlink" version="1.1" data-diagram-type="SEQUENCE" style="width:2572px;height:1194px;background:#FAFAF7;" width="2572px" height="1194px" viewBox="0 0 2572 1194" zoomAndPan="magnify" preserveAspectRatio="none" contentStyleType="text/css"><?plantuml 1.2026.7beta8?><defs/><g font-family="sans-serif" lengthAdjust="spacing"><rect x="0" y="0" width="2572" height="1194" fill="#FAFAF7" style="stroke:none;"/><g class="title" data-source-line="1"><text x="1105.568" y="27.995" fill="#000" font-size="14" textLength="359.543" font-weight="700">Account Invitation - Secure Provisioning Flow</text></g><g><title>Director general</title><rect x="66.604" y="123.594" width="8" height="983.922" fill="#000" fill-opacity="0"/><line x1="70.104" y1="123.594" x2="70.104" y2="1107.516" style="stroke:#181818;stroke-width:0.5;stroke-dasharray:5,5;"/></g><g><title>React accounts panel</title><rect x="417.77" y="123.594" width="8" height="983.922" fill="#000" fill-opacity="0"/><line x1="421.27" y1="123.594" x2="421.27" y2="1107.516" style="stroke:#181818;stroke-width:0.5;stroke-dasharray:5,5;"/></g><g><title>Security middleware</title><rect x="726.774" y="123.594" width="8" height="983.922" fill="#000" fill-opacity="0"/><line x1="730.274" y1="123.594" x2="730.274" y2="1107.516" style="stroke:#181818;stroke-width:0.5;stroke-dasharray:5,5;"/></g><g><title>AcademicController</title><rect x="1055.828" y="123.594" width="8" height="983.922" fill="#000" fill-opacity="0"/><line x1="1059.328" y1="123.594" x2="1059.328" y2="1107.516" style="stroke:#181818;stroke-width:0.5;stroke-dasharray:5,5;"/></g><g><title>AcademicService</title><rect x="1344.539" y="123.594" width="8" height="983.922" fill="#000" fill-opacity="0"/><line x1="1348.039" y1="123.594" x2="1348.039" y2="1107.516" style="stroke:#181818;stroke-width:0.5;stroke-dasharray:5,5;"/></g><g><title>AccessPolicy</title><rect x="1740.872" y="123.594" width="8" height="983.922" fill="#000" fill-opacity="0"/><line x1="1744.372" y1="123.594" x2="1744.372" y2="1107.516" style="stroke:#181818;stroke-width:0.5;stroke-dasharray:5,5;"/></g><g><title>EmailService</title><rect x="1854.635" y="123.594" width="8" height="983.922" fill="#000" fill-opacity="0"/><line x1="1858.135" y1="123.594" x2="1858.135" y2="1107.516" style="stroke:#181818;stroke-width:0.5;stroke-dasharray:5,5;"/></g><g><title>SMTP provider</title><rect x="2105.171" y="123.594" width="8" height="983.922" fill="#000" fill-opacity="0"/><line x1="2108.671" y1="123.594" x2="2108.671" y2="1107.516" style="stroke:#181818;stroke-width:0.5;stroke-dasharray:5,5;"/></g><g><title>PostgreSQL</title><rect x="2225.68" y="123.594" width="8" height="983.922" fill="#000" fill-opacity="0"/><line x1="2229.18" y1="123.594" x2="2229.18" y2="1107.516" style="stroke:#181818;stroke-width:0.5;stroke-dasharray:5,5;"/></g><g><title>AuditService</title><rect x="2506.951" y="123.594" width="8" height="983.922" fill="#000" fill-opacity="0"/><line x1="2510.451" y1="123.594" x2="2510.451" y2="1107.516" style="stroke:#181818;stroke-width:0.5;stroke-dasharray:5,5;"/></g><text x="10" y="120.292" fill="#000" font-size="14" textLength="114.208">Director general</text><ellipse cx="70.104" cy="55.797" rx="8" ry="8" fill="#E2E2F0" style="stroke:#181818;stroke-width:0.5;"/><path d="M70.104,63.797 L70.104,90.797 M57.104,71.797 L83.104,71.797 M70.104,90.797 L57.104,105.797 M70.104,90.797 L83.104,105.797" style="stroke:#181818;stroke-width:0.5;" fill="none"/><rect x="338.811" y="92.297" width="164.917" height="30.297" fill="#E2E2F0" style="stroke:#181818;stroke-width:0.5;" rx="2.5" ry="2.5"/><text x="345.811" y="112.292" fill="#000" font-size="14" textLength="150.917">React accounts panel</text><rect x="615.331" y="76" width="229.886" height="46.594" fill="#E2E2F0" style="stroke:#181818;stroke-width:0.5;" rx="2.5" ry="2.5"/><text x="658.203" y="95.995" fill="#000" font-size="14" textLength="144.143">Security middleware</text><text x="622.331" y="112.292" fill="#000" font-size="14" textLength="215.886">CSRF + session + RBAC + Zod</text><rect x="983.453" y="92.297" width="151.751" height="30.297" fill="#E2E2F0" style="stroke:#181818;stroke-width:0.5;" rx="2.5" ry="2.5"/><text x="990.453" y="112.292" fill="#000" font-size="14" textLength="137.751">AcademicController</text><rect x="1280.879" y="92.297" width="134.319" height="30.297" fill="#E2E2F0" style="stroke:#181818;stroke-width:0.5;" rx="2.5" ry="2.5"/><text x="1287.879" y="112.292" fill="#000" font-size="14" textLength="120.319">AcademicService</text><rect x="1692.901" y="92.297" width="102.942" height="30.297" fill="#E2E2F0" style="stroke:#181818;stroke-width:0.5;" rx="2.5" ry="2.5"/><text x="1699.901" y="112.292" fill="#000" font-size="14" textLength="88.942">AccessPolicy</text><rect x="1805.843" y="92.297" width="104.583" height="30.297" fill="#E2E2F0" style="stroke:#181818;stroke-width:0.5;" rx="2.5" ry="2.5"/><text x="1812.843" y="112.292" fill="#000" font-size="14" textLength="90.583">EmailService</text><rect x="2041.539" y="76" width="134.265" height="46.594" fill="#E2E2F0" style="stroke:#181818;stroke-width:0.5;" rx="2.5" ry="2.5"/><text x="2058.146" y="95.995" fill="#000" font-size="14" textLength="101.049">SMTP provider</text><text x="2048.539" y="112.292" fill="#000" font-size="14" textLength="120.265">Mailpit in staging</text><text x="2185.803" y="120.292" fill="#000" font-size="14" textLength="80.753">PostgreSQL</text><path d="M2211.18,71.297 C2211.18,61.297 2229.18,61.297 2229.18,61.297 C2229.18,61.297 2247.18,61.297 2247.18,71.297 L2247.18,97.297 C2247.18,107.297 2229.18,107.297 2229.18,107.297 C2229.18,107.297 2211.18,107.297 2211.18,97.297 L2211.18,71.297" style="stroke:#181818;stroke-width:0.5;" fill="#E2E2F0"/><path d="M2211.18,71.297 C2211.18,81.297 2229.18,81.297 2229.18,81.297 C2229.18,81.297 2247.18,81.297 2247.18,71.297" style="stroke:#181818;stroke-width:0.5;" fill="none"/><rect x="2459.223" y="92.297" width="102.457" height="30.297" fill="#E2E2F0" style="stroke:#181818;stroke-width:0.5;" rx="2.5" ry="2.5"/><text x="2466.223" y="112.292" fill="#000" font-size="14" textLength="88.457">AuditService</text><text x="10" y="1120.511" fill="#000" font-size="14" textLength="114.208">Director general</text><ellipse cx="70.104" cy="1132.313" rx="8" ry="8" fill="#E2E2F0" style="stroke:#181818;stroke-width:0.5;"/><path d="M70.104,1140.313 L70.104,1167.313 M57.104,1148.313 L83.104,1148.313 M70.104,1167.313 L57.104,1182.313 M70.104,1167.313 L83.104,1182.313" style="stroke:#181818;stroke-width:0.5;" fill="none"/><rect x="338.811" y="1107.516" width="164.917" height="30.297" fill="#E2E2F0" style="stroke:#181818;stroke-width:0.5;" rx="2.5" ry="2.5"/><text x="345.811" y="1127.511" fill="#000" font-size="14" textLength="150.917">React accounts panel</text><rect x="615.331" y="1107.516" width="229.886" height="46.594" fill="#E2E2F0" style="stroke:#181818;stroke-width:0.5;" rx="2.5" ry="2.5"/><text x="658.203" y="1127.511" fill="#000" font-size="14" textLength="144.143">Security middleware</text><text x="622.331" y="1143.808" fill="#000" font-size="14" textLength="215.886">CSRF + session + RBAC + Zod</text><rect x="983.453" y="1107.516" width="151.751" height="30.297" fill="#E2E2F0" style="stroke:#181818;stroke-width:0.5;" rx="2.5" ry="2.5"/><text x="990.453" y="1127.511" fill="#000" font-size="14" textLength="137.751">AcademicController</text><rect x="1280.879" y="1107.516" width="134.319" height="30.297" fill="#E2E2F0" style="stroke:#181818;stroke-width:0.5;" rx="2.5" ry="2.5"/><text x="1287.879" y="1127.511" fill="#000" font-size="14" textLength="120.319">AcademicService</text><rect x="1692.901" y="1107.516" width="102.942" height="30.297" fill="#E2E2F0" style="stroke:#181818;stroke-width:0.5;" rx="2.5" ry="2.5"/><text x="1699.901" y="1127.511" fill="#000" font-size="14" textLength="88.942">AccessPolicy</text><rect x="1805.843" y="1107.516" width="104.583" height="30.297" fill="#E2E2F0" style="stroke:#181818;stroke-width:0.5;" rx="2.5" ry="2.5"/><text x="1812.843" y="1127.511" fill="#000" font-size="14" textLength="90.583">EmailService</text><rect x="2041.539" y="1107.516" width="134.265" height="46.594" fill="#E2E2F0" style="stroke:#181818;stroke-width:0.5;" rx="2.5" ry="2.5"/><text x="2058.146" y="1127.511" fill="#000" font-size="14" textLength="101.049">SMTP provider</text><text x="2048.539" y="1143.808" fill="#000" font-size="14" textLength="120.265">Mailpit in staging</text><text x="2185.803" y="1120.511" fill="#000" font-size="14" textLength="80.753">PostgreSQL</text><path d="M2211.18,1133.813 C2211.18,1123.813 2229.18,1123.813 2229.18,1123.813 C2229.18,1123.813 2247.18,1123.813 2247.18,1133.813 L2247.18,1159.813 C2247.18,1169.813 2229.18,1169.813 2229.18,1169.813 C2229.18,1169.813 2211.18,1169.813 2211.18,1159.813 L2211.18,1133.813" style="stroke:#181818;stroke-width:0.5;" fill="#E2E2F0"/><path d="M2211.18,1133.813 C2211.18,1143.813 2229.18,1143.813 2229.18,1143.813 C2229.18,1143.813 2247.18,1143.813 2247.18,1133.813" style="stroke:#181818;stroke-width:0.5;" fill="none"/><rect x="2459.223" y="1107.516" width="102.457" height="30.297" fill="#E2E2F0" style="stroke:#181818;stroke-width:0.5;" rx="2.5" ry="2.5"/><text x="2466.223" y="1127.511" fill="#000" font-size="14" textLength="88.457">AuditService</text><polygon points="409.27,148.727,419.27,152.727,409.27,156.727,413.27,152.727" fill="#9A8700" style="stroke:#9A8700;stroke-width:1;stroke-linejoin:miter;stroke-miterlimit:10;"/><line x1="70.104" y1="152.727" x2="415.27" y2="152.727" style="stroke:#9A8700;stroke-width:1;"/><text x="77.104" y="147.661" fill="#000" font-size="13" font-weight="700">1</text><text x="90.149" y="147.661" fill="#000" font-size="13" textLength="314.12">Enter name, email, role, branch and profile data</text><polygon points="718.274,177.859,728.274,181.859,718.274,185.859,722.274,181.859" fill="#9A8700" style="stroke:#9A8700;stroke-width:1;stroke-linejoin:miter;stroke-miterlimit:10;"/><line x1="421.27" y1="181.859" x2="724.274" y2="181.859" style="stroke:#9A8700;stroke-width:1;"/><text x="428.27" y="176.793" fill="#000" font-size="13" font-weight="700">2</text><text x="441.315" y="176.793" fill="#000" font-size="13" textLength="271.959">POST /api/v1/users + CSRF cookie/header</text><line x1="730.274" y1="210.992" x2="772.274" y2="210.992" style="stroke:#9A8700;stroke-width:1;"/><line x1="772.274" y1="210.992" x2="772.274" y2="223.992" style="stroke:#9A8700;stroke-width:1;"/><line x1="731.274" y1="223.992" x2="772.274" y2="223.992" style="stroke:#9A8700;stroke-width:1;"/><polygon points="741.274,219.992,731.274,223.992,741.274,227.992,737.274,223.992" fill="#9A8700" style="stroke:#9A8700;stroke-width:1;stroke-linejoin:miter;stroke-miterlimit:10;"/><text x="737.274" y="205.926" fill="#000" font-size="13" font-weight="700">3</text><text x="750.319" y="205.926" fill="#000" font-size="13" textLength="302.009">validate active GeneralDirector/Admin session</text><line x1="730.274" y1="253.125" x2="772.274" y2="253.125" style="stroke:#9A8700;stroke-width:1;"/><line x1="772.274" y1="253.125" x2="772.274" y2="266.125" style="stroke:#9A8700;stroke-width:1;"/><line x1="731.274" y1="266.125" x2="772.274" y2="266.125" style="stroke:#9A8700;stroke-width:1;"/><polygon points="741.274,262.125,731.274,266.125,741.274,270.125,737.274,266.125" fill="#9A8700" style="stroke:#9A8700;stroke-width:1;stroke-linejoin:miter;stroke-miterlimit:10;"/><text x="737.274" y="248.059" fill="#000" font-size="13" font-weight="700">4</text><text x="750.319" y="248.059" fill="#000" font-size="13" textLength="278.154">validate normalized input and allowed role</text><polygon points="1047.328,291.258,1057.328,295.258,1047.328,299.258,1051.328,295.258" fill="#9A8700" style="stroke:#9A8700;stroke-width:1;stroke-linejoin:miter;stroke-miterlimit:10;"/><line x1="730.274" y1="295.258" x2="1053.328" y2="295.258" style="stroke:#9A8700;stroke-width:1;"/><text x="737.274" y="290.192" fill="#000" font-size="13" font-weight="700">5</text><text x="750.319" y="290.192" fill="#000" font-size="13" textLength="187.986">createUser(actor, command)</text><polygon points="1336.039,320.391,1346.039,324.391,1336.039,328.391,1340.039,324.391" fill="#9A8700" style="stroke:#9A8700;stroke-width:1;stroke-linejoin:miter;stroke-miterlimit:10;"/><line x1="1059.328" y1="324.391" x2="1342.039" y2="324.391" style="stroke:#9A8700;stroke-width:1;"/><text x="1066.328" y="319.325" fill="#000" font-size="13" font-weight="700">6</text><text x="1079.374" y="319.325" fill="#000" font-size="13" textLength="251.666">createAcademicUser(actor, command)</text><polygon points="1732.372,349.523,1742.372,353.523,1732.372,357.523,1736.372,353.523" fill="#9A8700" style="stroke:#9A8700;stroke-width:1;stroke-linejoin:miter;stroke-miterlimit:10;"/><line x1="1348.039" y1="353.523" x2="1738.372" y2="353.523" style="stroke:#9A8700;stroke-width:1;"/><text x="1355.039" y="348.458" fill="#000" font-size="13" font-weight="700">7</text><text x="1368.084" y="348.458" fill="#000" font-size="13" textLength="248.574">assertActorCanCreateRole(actor, role)</text><polygon points="2217.18,378.656,2227.18,382.656,2217.18,386.656,2221.18,382.656" fill="#9A8700" style="stroke:#9A8700;stroke-width:1;stroke-linejoin:miter;stroke-miterlimit:10;"/><line x1="1744.372" y1="382.656" x2="2223.18" y2="382.656" style="stroke:#9A8700;stroke-width:1;"/><text x="1751.372" y="377.59" fill="#000" font-size="13" font-weight="700">8</text><text x="1764.417" y="377.59" fill="#000" font-size="13" textLength="248.574">validate branch and role prerequisites</text><line x1="1348.039" y1="411.789" x2="1390.039" y2="411.789" style="stroke:#9A8700;stroke-width:1;"/><line x1="1390.039" y1="411.789" x2="1390.039" y2="424.789" style="stroke:#9A8700;stroke-width:1;"/><line x1="1349.039" y1="424.789" x2="1390.039" y2="424.789" style="stroke:#9A8700;stroke-width:1;"/><polygon points="1359.039,420.789,1349.039,424.789,1359.039,428.789,1355.039,424.789" fill="#9A8700" style="stroke:#9A8700;stroke-width:1;stroke-linejoin:miter;stroke-miterlimit:10;"/><text x="1355.039" y="406.723" fill="#000" font-size="13" font-weight="700">9</text><text x="1368.084" y="406.723" fill="#000" font-size="13" textLength="369.288">generate cryptographically random temporary password</text><line x1="1348.039" y1="453.922" x2="1390.039" y2="453.922" style="stroke:#9A8700;stroke-width:1;"/><line x1="1390.039" y1="453.922" x2="1390.039" y2="466.922" style="stroke:#9A8700;stroke-width:1;"/><line x1="1349.039" y1="466.922" x2="1390.039" y2="466.922" style="stroke:#9A8700;stroke-width:1;"/><polygon points="1359.039,462.922,1349.039,466.922,1359.039,470.922,1355.039,466.922" fill="#9A8700" style="stroke:#9A8700;stroke-width:1;stroke-linejoin:miter;stroke-miterlimit:10;"/><text x="1355.039" y="448.856" fill="#000" font-size="13" textLength="18.091" font-weight="700">10</text><text x="1377.13" y="448.856" fill="#000" font-size="13" textLength="169.743">hash temporary password</text><polygon points="2217.18,507.188,2227.18,511.188,2217.18,515.188,2221.18,511.188" fill="#9A8700" style="stroke:#9A8700;stroke-width:1;stroke-linejoin:miter;stroke-miterlimit:10;"/><line x1="1348.039" y1="511.188" x2="2223.18" y2="511.188" style="stroke:#9A8700;stroke-width:1;"/><text x="1355.039" y="498.555" fill="#000" font-size="13" textLength="18.091" font-weight="700">11</text><text x="1377.13" y="490.989" fill="#000" font-size="13" textLength="211.485">transaction: create inactive user</text><text x="1377.13" y="506.122" fill="#000" font-size="13" textLength="280.979">+ Student/Teacher profile + branch access</text><polygon points="1846.135,536.32,1856.135,540.32,1846.135,544.32,1850.135,540.32" fill="#9A8700" style="stroke:#9A8700;stroke-width:1;stroke-linejoin:miter;stroke-miterlimit:10;"/><line x1="1348.039" y1="540.32" x2="1852.135" y2="540.32" style="stroke:#9A8700;stroke-width:1;"/><text x="1355.039" y="535.254" fill="#000" font-size="13" textLength="18.091" font-weight="700">12</text><text x="1377.13" y="535.254" fill="#000" font-size="13" textLength="331.849">sendAccessInvitation(name, email, password, role)</text><polygon points="2096.671,580.586,2106.671,584.586,2096.671,588.586,2100.671,584.586" fill="#9A8700" style="stroke:#9A8700;stroke-width:1;stroke-linejoin:miter;stroke-miterlimit:10;"/><line x1="1858.135" y1="584.586" x2="2102.671" y2="584.586" style="stroke:#9A8700;stroke-width:1;"/><text x="1865.135" y="571.954" fill="#000" font-size="13" textLength="18.091" font-weight="700">13</text><text x="1887.226" y="564.387" fill="#000" font-size="13" textLength="202.211">branded HTML + text message</text><text x="1887.226" y="579.52" fill="#000" font-size="13" textLength="147.323">yellow, gray and white</text><path d="M54.104,596.586 L118.547,596.586 L118.547,603.719 L108.547,613.719 L54.104,613.719 L54.104,596.586" style="stroke:#000;stroke-width:1.5;" fill="#EEE"/><rect x="54.104" y="596.586" width="2472.347" height="436.664" fill="none" style="stroke:#000;stroke-width:1.5;"/><text x="69.104" y="609.653" fill="#000" font-size="13" textLength="19.443" font-weight="700">alt</text><text x="133.547" y="608.796" fill="#000" font-size="11" textLength="187.693" font-weight="700">[SMTP accepted the message]</text><line x1="54.104" y1="867.781" x2="2526.451" y2="867.781" style="stroke:#000;stroke-width:1;stroke-dasharray:2,2;"/><text x="59.104" y="879.992" fill="#000" font-size="11" textLength="88.784" font-weight="700">[SMTP failure]</text><polygon points="1869.135,640.852,1859.135,644.852,1869.135,648.852,1865.135,644.852" fill="#9A8700" style="stroke:#9A8700;stroke-width:1;stroke-linejoin:miter;stroke-miterlimit:10;"/><line x1="1863.135" y1="644.852" x2="2107.671" y2="644.852" style="stroke:#9A8700;stroke-width:1;stroke-dasharray:2,2;"/><text x="1875.135" y="639.786" fill="#000" font-size="13" textLength="18.091" font-weight="700">14</text><text x="1897.226" y="639.786" fill="#000" font-size="13" textLength="204.445">messageId / accepted recipient</text><polygon points="1359.039,669.984,1349.039,673.984,1359.039,677.984,1355.039,673.984" fill="#9A8700" style="stroke:#9A8700;stroke-width:1;stroke-linejoin:miter;stroke-miterlimit:10;"/><line x1="1353.039" y1="673.984" x2="1857.135" y2="673.984" style="stroke:#9A8700;stroke-width:1;stroke-dasharray:2,2;"/><text x="1365.039" y="668.918" fill="#000" font-size="13" textLength="18.091" font-weight="700">15</text><text x="1387.13" y="668.918" fill="#000" font-size="13" textLength="128.521">delivery status sent</text><polygon points="2217.18,699.117,2227.18,703.117,2217.18,707.117,2221.18,703.117" fill="#9A8700" style="stroke:#9A8700;stroke-width:1;stroke-linejoin:miter;stroke-miterlimit:10;"/><line x1="1348.039" y1="703.117" x2="2223.18" y2="703.117" style="stroke:#9A8700;stroke-width:1;"/><text x="1355.039" y="698.051" fill="#000" font-size="13" textLength="18.091" font-weight="700">16</text><text x="1377.13" y="698.051" fill="#000" font-size="13" textLength="320.957">activate user/profile; mustChangePassword=true</text><polygon points="2498.451,728.25,2508.451,732.25,2498.451,736.25,2502.451,732.25" fill="#9A8700" style="stroke:#9A8700;stroke-width:1;stroke-linejoin:miter;stroke-miterlimit:10;"/><line x1="1348.039" y1="732.25" x2="2504.451" y2="732.25" style="stroke:#9A8700;stroke-width:1;"/><text x="1355.039" y="727.184" fill="#000" font-size="13" textLength="18.091" font-weight="700">17</text><text x="1377.13" y="727.184" fill="#000" font-size="13" textLength="186.443">ACCOUNT_INVITATION_SENT</text><polygon points="2240.18,757.383,2230.18,761.383,2240.18,765.383,2236.18,761.383" fill="#9A8700" style="stroke:#9A8700;stroke-width:1;stroke-linejoin:miter;stroke-miterlimit:10;"/><line x1="2234.18" y1="761.383" x2="2509.451" y2="761.383" style="stroke:#9A8700;stroke-width:1;"/><text x="2246.18" y="756.317" fill="#000" font-size="13" textLength="18.091" font-weight="700">18</text><text x="2268.271" y="756.317" fill="#000" font-size="13" textLength="235.181">append metadata without password</text><polygon points="1070.328,786.516,1060.328,790.516,1070.328,794.516,1066.328,790.516" fill="#9A8700" style="stroke:#9A8700;stroke-width:1;stroke-linejoin:miter;stroke-miterlimit:10;"/><line x1="1064.328" y1="790.516" x2="1347.039" y2="790.516" style="stroke:#9A8700;stroke-width:1;stroke-dasharray:2,2;"/><text x="1076.328" y="785.45" fill="#000" font-size="13" textLength="18.091" font-weight="700">19</text><text x="1098.419" y="785.45" fill="#000" font-size="13" textLength="239.402">public user + recipient + sent status</text><polygon points="432.27,815.648,422.27,819.648,432.27,823.648,428.27,819.648" fill="#9A8700" style="stroke:#9A8700;stroke-width:1;stroke-linejoin:miter;stroke-miterlimit:10;"/><line x1="426.27" y1="819.648" x2="1058.328" y2="819.648" style="stroke:#9A8700;stroke-width:1;stroke-dasharray:2,2;"/><text x="438.27" y="814.583" fill="#000" font-size="13" textLength="18.091" font-weight="700">20</text><text x="460.36" y="814.583" fill="#000" font-size="13" textLength="280.344">201 confirmation (no temporary password)</text><polygon points="81.104,844.781,71.104,848.781,81.104,852.781,77.104,848.781" fill="#9A8700" style="stroke:#9A8700;stroke-width:1;stroke-linejoin:miter;stroke-miterlimit:10;"/><line x1="75.104" y1="848.781" x2="420.27" y2="848.781" style="stroke:#9A8700;stroke-width:1;stroke-dasharray:2,2;"/><text x="87.104" y="843.715" fill="#000" font-size="13" textLength="18.091" font-weight="700">21</text><text x="109.195" y="843.715" fill="#000" font-size="13" textLength="162.709">"Invitation sent to email"</text><polygon points="1869.135,904.719,1859.135,908.719,1869.135,912.719,1865.135,908.719" fill="#9A8700" style="stroke:#9A8700;stroke-width:1;stroke-linejoin:miter;stroke-miterlimit:10;"/><line x1="1863.135" y1="908.719" x2="2107.671" y2="908.719" style="stroke:#9A8700;stroke-width:1;stroke-dasharray:2,2;"/><text x="1875.135" y="903.653" fill="#000" font-size="13" textLength="18.091" font-weight="700">22</text><text x="1897.226" y="903.653" fill="#000" font-size="13" textLength="88.321">delivery error</text><polygon points="1359.039,933.852,1349.039,937.852,1359.039,941.852,1355.039,937.852" fill="#9A8700" style="stroke:#9A8700;stroke-width:1;stroke-linejoin:miter;stroke-miterlimit:10;"/><line x1="1353.039" y1="937.852" x2="1857.135" y2="937.852" style="stroke:#9A8700;stroke-width:1;stroke-dasharray:2,2;"/><text x="1365.039" y="932.786" fill="#000" font-size="13" textLength="18.091" font-weight="700">23</text><text x="1387.13" y="932.786" fill="#000" font-size="13" textLength="63.991">exception</text><polygon points="2217.18,962.984,2227.18,966.984,2217.18,970.984,2221.18,966.984" fill="#9A8700" style="stroke:#9A8700;stroke-width:1;stroke-linejoin:miter;stroke-miterlimit:10;"/><line x1="1348.039" y1="966.984" x2="2223.18" y2="966.984" style="stroke:#9A8700;stroke-width:1;"/><text x="1355.039" y="961.918" fill="#000" font-size="13" textLength="18.091" font-weight="700">24</text><text x="1377.13" y="961.918" fill="#000" font-size="13" textLength="143.197">keep account inactive</text><polygon points="2498.451,992.117,2508.451,996.117,2498.451,1000.117,2502.451,996.117" fill="#9A8700" style="stroke:#9A8700;stroke-width:1;stroke-linejoin:miter;stroke-miterlimit:10;"/><line x1="1348.039" y1="996.117" x2="2504.451" y2="996.117" style="stroke:#9A8700;stroke-width:1;"/><text x="1355.039" y="991.051" fill="#000" font-size="13" textLength="18.091" font-weight="700">25</text><text x="1377.13" y="991.051" fill="#000" font-size="13" textLength="197.983">ACCOUNT_INVITATION_FAILED</text><polygon points="432.27,1021.25,422.27,1025.25,432.27,1029.25,428.27,1025.25" fill="#9A8700" style="stroke:#9A8700;stroke-width:1;stroke-linejoin:miter;stroke-miterlimit:10;"/><line x1="426.27" y1="1025.25" x2="1347.039" y2="1025.25" style="stroke:#9A8700;stroke-width:1;stroke-dasharray:2,2;"/><text x="438.27" y="1020.184" fill="#000" font-size="13" textLength="18.091" font-weight="700">26</text><text x="460.36" y="1020.184" fill="#000" font-size="13" textLength="218.645">controlled error; retry is available</text><path d="M426.27,1052.25 L426.27,1092.25 L832.27,1092.25 L832.27,1062.25 L822.27,1052.25 L426.27,1052.25" style="stroke:#181818;stroke-width:0.5;" fill="#FEFFDD"/><path d="M822.27,1052.25 L822.27,1062.25 L832.27,1062.25 L822.27,1052.25" style="stroke:#181818;stroke-width:0.5;" fill="#FEFFDD"/><text x="432.27" y="1069.317" fill="#000" font-size="13" textLength="385.563">The director never sees or copies the temporary password.</text><text x="432.27" y="1084.45" fill="#000" font-size="13" textLength="370.214">Only the recipient receives it with first-login instructions.</text><?plantuml-src ZLLDR-Cs4BthLmpSIu8awsmlk_MY1HGdQGtamusT7ee02reSMqGaKYKfUzrVtqTAicMlWIryi2ZD3D-yzuRqoXTCQPQPMdkQwBNomYkZwOfcdDMMQMhDMZcyKdf5zuNP9ABsHjVbWctYtfMkX1KbBKJslhAe8iUcC9P-ka_n-zIBSBcGPXEgB4NXkFSbjTPishHVqi-Vhg-JH6GUoy6jiXoVLgpPYc90mb7tCa6wLvcg1B0FNXWv99fM7E4bD-6layF0s9ZoMogLb0LlXEKtFPwztDC5ENQXLpoztAHZ_FrjP2pI9HsKIZCXkLJPs6XlJL6m3Q7xrSdW6TkrohWf6X-FmZ9Wc9f2PTiGqpmTXDoLGXMzCd5zrEFZV4fLa4woVTEF2AYK9wN9UR6224rJY4gay68X79Gspgyip_vyY2JV7CAgfVAzFUCwINRwNFq6daTqfpr8qABaI-80wv901HOBAtIMaz0om5egk2vidBnEGch7xeYcpxCv3KMbXkkFmzgnTH0XYfCPywvuc3DejCbEn8FijIWKoW9XvjMQwVV6DHtAOIhBG44ZyezgQ6DBFF_B4hnLjO_WHO4Hm9lGrK61lUeZoYoZm2lGdqKVNm9yMIBzFEbP9UuQ2UqoEekSpEp8HrhZYH5qGA1FG-1Ow76iyG9WNMu0UPwqNaBUxKsllPuY8GwoiEL_QiowPzVVRGUocK6aPdPRUREoeifL1aQsX5hIbEIvh8mLTelnSsvZh3nPA1Sk_q5iWEfHrGKbZUuOWXAjjC4RR_g2PhwMhFrmZl7FmMhdhejTWt6W-hNZl8nW0osRQTkVUsS7rks0TKp6nDW91cSKDv3mmX_pnmViv_cRfnBbn0e7ofQ3Kou9B6qZoPiSnE9WAtnCZxWgZtIVSvUMKFFjQe-o_JAHDDodmCwgKcWR2IseFh-I2r04PZ7ildQXqn1vH6yaCd0Qg1osl7sXidP-d0kzucdR_g_UrdoO7yT_HEbu_FpwDFywUVfhCa_da-UdhxExfpbYOy1kfwe2rsZ5Yp3qj54-DnYedV2zsaUZLDKBk3T21CMxlkDHZR-cGUJtvwezYtw-_eZfqKk5COvtsfas9rntZknm2WMixJanea7lAemRUTEOOf0mBgz6fINMk29FYBOJW76rsTCYyRSWPZY7lbFcdRdgRhATu_-l0FVfvE7kzeZIm4VMKIGRM5z0fmT6vKYi0KyiSAH1foJH1gwmQfLxCijmVyvXKTaTzPhH6bXXHrXb1eAuQEBlkVsGF6kS3k7ZNZeyCVfn18C49n0KSlwgCBYNqAs3s-BCkmy13GKm_m40?></g></svg>