<svg xmlns="http://www.w3.org/2000/svg" xmlns:xlink="http://www.w3.org/1999/xlink" version="1.1" data-diagram-type="SEQUENCE" style="width:2282px;height:1556px;background:#FAFAF7;" width="2282px" height="1556px" viewBox="0 0 2282 1556" zoomAndPan="magnify" preserveAspectRatio="none" contentStyleType="text/css"><?plantuml 1.2026.7beta8?><defs/><g font-family="sans-serif" lengthAdjust="spacing"><rect x="0" y="0" width="2282" height="1556" fill="#FAFAF7" style="stroke:none;"/><g class="title" data-source-line="1"><text x="930.878" y="27.995" fill="#000" font-size="14" textLength="419.091" font-weight="700">Attendance Finalization - Main and Alternative Flows</text></g><g><title>Profesor</title><rect x="38.46" y="123.594" width="8" height="1345.648" fill="#000" fill-opacity="0"/><line x1="41.96" y1="123.594" x2="41.96" y2="1469.242" style="stroke:#181818;stroke-width:0.5;stroke-dasharray:5,5;"/></g><g><title>React attendance panel</title><rect x="327.362" y="123.594" width="8" height="1345.648" fill="#000" fill-opacity="0"/><line x1="330.862" y1="123.594" x2="330.862" y2="1469.242" style="stroke:#181818;stroke-width:0.5;stroke-dasharray:5,5;"/></g><g><title>Express middleware</title><rect x="627.797" y="123.594" width="8" height="1345.648" fill="#000" fill-opacity="0"/><line x1="631.297" y1="123.594" x2="631.297" y2="1469.242" style="stroke:#181818;stroke-width:0.5;stroke-dasharray:5,5;"/></g><g><title>AttendanceController</title><rect x="866.384" y="123.594" width="8" height="1345.648" fill="#000" fill-opacity="0"/><line x1="869.884" y1="123.594" x2="869.884" y2="1469.242" style="stroke:#181818;stroke-width:0.5;stroke-dasharray:5,5;"/></g><g><title>AttendanceService</title><rect x="1215.976" y="123.594" width="8" height="1345.648" fill="#000" fill-opacity="0"/><line x1="1219.476" y1="123.594" x2="1219.476" y2="1469.242" style="stroke:#181818;stroke-width:0.5;stroke-dasharray:5,5;"/></g><g><title>AccessPolicy</title><rect x="1511.225" y="123.594" width="8" height="1345.648" fill="#000" fill-opacity="0"/><line x1="1514.725" y1="123.594" x2="1514.725" y2="1469.242" style="stroke:#181818;stroke-width:0.5;stroke-dasharray:5,5;"/></g><g><title>DatabaseContext</title><rect x="1640.642" y="123.594" width="8" height="1345.648" fill="#000" fill-opacity="0"/><line x1="1644.142" y1="123.594" x2="1644.142" y2="1469.242" style="stroke:#181818;stroke-width:0.5;stroke-dasharray:5,5;"/></g><g><title>PostgreSQL</title><rect x="1934.767" y="123.594" width="8" height="1345.648" fill="#000" fill-opacity="0"/><line x1="1938.267" y1="123.594" x2="1938.267" y2="1469.242" style="stroke:#181818;stroke-width:0.5;stroke-dasharray:5,5;"/></g><g><title>AuditService</title><rect x="2097.839" y="123.594" width="8" height="1345.648" fill="#000" fill-opacity="0"/><line x1="2101.339" y1="123.594" x2="2101.339" y2="1469.242" style="stroke:#181818;stroke-width:0.5;stroke-dasharray:5,5;"/></g><g><title>CacheService</title><rect x="2213.707" y="123.594" width="8" height="1345.648" fill="#000" fill-opacity="0"/><line x1="2217.207" y1="123.594" x2="2217.207" y2="1469.242" style="stroke:#181818;stroke-width:0.5;stroke-dasharray:5,5;"/></g><text x="10" y="120.292" fill="#000" font-size="14" textLength="57.921">Profesor</text><ellipse cx="41.96" cy="55.797" rx="8" ry="8" fill="#E2E2F0" style="stroke:#181818;stroke-width:0.5;"/><path d="M41.96,63.797 L41.96,90.797 M28.96,71.797 L54.96,71.797 M41.96,90.797 L28.96,105.797 M41.96,90.797 L54.96,105.797" style="stroke:#181818;stroke-width:0.5;" fill="none"/><rect x="240.091" y="92.297" width="181.542" height="30.297" fill="#E2E2F0" style="stroke:#181818;stroke-width:0.5;" rx="2.5" ry="2.5"/><text x="247.091" y="112.292" fill="#000" font-size="14" textLength="167.542">React attendance panel</text><rect x="544.891" y="76" width="172.813" height="46.594" fill="#E2E2F0" style="stroke:#181818;stroke-width:0.5;" rx="2.5" ry="2.5"/><text x="560.483" y="95.995" fill="#000" font-size="14" textLength="141.627">Express middleware</text><text x="551.891" y="112.292" fill="#000" font-size="14" textLength="158.813">session + RBAC + Zod</text><rect x="787.952" y="92.297" width="163.864" height="30.297" fill="#E2E2F0" style="stroke:#181818;stroke-width:0.5;" rx="2.5" ry="2.5"/><text x="794.952" y="112.292" fill="#000" font-size="14" textLength="149.864">AttendanceController</text><rect x="1146.259" y="92.297" width="146.433" height="30.297" fill="#E2E2F0" style="stroke:#181818;stroke-width:0.5;" rx="2.5" ry="2.5"/><text x="1153.259" y="112.292" fill="#000" font-size="14" textLength="132.433">AttendanceService</text><rect x="1463.253" y="92.297" width="102.942" height="30.297" fill="#E2E2F0" style="stroke:#181818;stroke-width:0.5;" rx="2.5" ry="2.5"/><text x="1470.253" y="112.292" fill="#000" font-size="14" textLength="88.942">AccessPolicy</text><rect x="1576.196" y="76" width="135.892" height="46.594" fill="#E2E2F0" style="stroke:#181818;stroke-width:0.5;" rx="2.5" ry="2.5"/><text x="1583.196" y="95.995" fill="#000" font-size="14" textLength="121.892">DatabaseContext</text><text x="1604.599" y="112.292" fill="#000" font-size="14" textLength="79.085">transaction</text><text x="1894.891" y="120.292" fill="#000" font-size="14" textLength="80.753">PostgreSQL</text><path d="M1920.267,71.297 C1920.267,61.297 1938.267,61.297 1938.267,61.297 C1938.267,61.297 1956.267,61.297 1956.267,71.297 L1956.267,97.297 C1956.267,107.297 1938.267,107.297 1938.267,107.297 C1938.267,107.297 1920.267,107.297 1920.267,97.297 L1920.267,71.297" style="stroke:#181818;stroke-width:0.5;" fill="#E2E2F0"/><path d="M1920.267,71.297 C1920.267,81.297 1938.267,81.297 1938.267,81.297 C1938.267,81.297 1956.267,81.297 1956.267,71.297" style="stroke:#181818;stroke-width:0.5;" fill="none"/><rect x="2050.11" y="92.297" width="102.457" height="30.297" fill="#E2E2F0" style="stroke:#181818;stroke-width:0.5;" rx="2.5" ry="2.5"/><text x="2057.11" y="112.292" fill="#000" font-size="14" textLength="88.457">AuditService</text><rect x="2162.567" y="92.297" width="109.279" height="30.297" fill="#E2E2F0" style="stroke:#181818;stroke-width:0.5;" rx="2.5" ry="2.5"/><text x="2169.567" y="112.292" fill="#000" font-size="14" textLength="95.279">CacheService</text><text x="10" y="1482.237" fill="#000" font-size="14" textLength="57.921">Profesor</text><ellipse cx="41.96" cy="1494.039" rx="8" ry="8" fill="#E2E2F0" style="stroke:#181818;stroke-width:0.5;"/><path d="M41.96,1502.039 L41.96,1529.039 M28.96,1510.039 L54.96,1510.039 M41.96,1529.039 L28.96,1544.039 M41.96,1529.039 L54.96,1544.039" style="stroke:#181818;stroke-width:0.5;" fill="none"/><rect x="240.091" y="1469.242" width="181.542" height="30.297" fill="#E2E2F0" style="stroke:#181818;stroke-width:0.5;" rx="2.5" ry="2.5"/><text x="247.091" y="1489.237" fill="#000" font-size="14" textLength="167.542">React attendance panel</text><rect x="544.891" y="1469.242" width="172.813" height="46.594" fill="#E2E2F0" style="stroke:#181818;stroke-width:0.5;" rx="2.5" ry="2.5"/><text x="560.483" y="1489.237" fill="#000" font-size="14" textLength="141.627">Express middleware</text><text x="551.891" y="1505.534" fill="#000" font-size="14" textLength="158.813">session + RBAC + Zod</text><rect x="787.952" y="1469.242" width="163.864" height="30.297" fill="#E2E2F0" style="stroke:#181818;stroke-width:0.5;" rx="2.5" ry="2.5"/><text x="794.952" y="1489.237" fill="#000" font-size="14" textLength="149.864">AttendanceController</text><rect x="1146.259" y="1469.242" width="146.433" height="30.297" fill="#E2E2F0" style="stroke:#181818;stroke-width:0.5;" rx="2.5" ry="2.5"/><text x="1153.259" y="1489.237" fill="#000" font-size="14" textLength="132.433">AttendanceService</text><rect x="1463.253" y="1469.242" width="102.942" height="30.297" fill="#E2E2F0" style="stroke:#181818;stroke-width:0.5;" rx="2.5" ry="2.5"/><text x="1470.253" y="1489.237" fill="#000" font-size="14" textLength="88.942">AccessPolicy</text><rect x="1576.196" y="1469.242" width="135.892" height="46.594" fill="#E2E2F0" style="stroke:#181818;stroke-width:0.5;" rx="2.5" ry="2.5"/><text x="1583.196" y="1489.237" fill="#000" font-size="14" textLength="121.892">DatabaseContext</text><text x="1604.599" y="1505.534" fill="#000" font-size="14" textLength="79.085">transaction</text><text x="1894.891" y="1482.237" fill="#000" font-size="14" textLength="80.753">PostgreSQL</text><path d="M1920.267,1495.539 C1920.267,1485.539 1938.267,1485.539 1938.267,1485.539 C1938.267,1485.539 1956.267,1485.539 1956.267,1495.539 L1956.267,1521.539 C1956.267,1531.539 1938.267,1531.539 1938.267,1531.539 C1938.267,1531.539 1920.267,1531.539 1920.267,1521.539 L1920.267,1495.539" style="stroke:#181818;stroke-width:0.5;" fill="#E2E2F0"/><path d="M1920.267,1495.539 C1920.267,1505.539 1938.267,1505.539 1938.267,1505.539 C1938.267,1505.539 1956.267,1505.539 1956.267,1495.539" style="stroke:#181818;stroke-width:0.5;" fill="none"/><rect x="2050.11" y="1469.242" width="102.457" height="30.297" fill="#E2E2F0" style="stroke:#181818;stroke-width:0.5;" rx="2.5" ry="2.5"/><text x="2057.11" y="1489.237" fill="#000" font-size="14" textLength="88.457">AuditService</text><rect x="2162.567" y="1469.242" width="109.279" height="30.297" fill="#E2E2F0" style="stroke:#181818;stroke-width:0.5;" rx="2.5" ry="2.5"/><text x="2169.567" y="1489.237" fill="#000" font-size="14" textLength="95.279">CacheService</text><polygon points="318.862,148.727,328.862,152.727,318.862,156.727,322.862,152.727" fill="#9A8700" style="stroke:#9A8700;stroke-width:1;stroke-linejoin:miter;stroke-miterlimit:10;"/><line x1="41.96" y1="152.727" x2="324.862" y2="152.727" style="stroke:#9A8700;stroke-width:1;"/><text x="48.96" y="147.661" fill="#000" font-size="13" font-weight="700">1</text><text x="62.006" y="147.661" fill="#000" font-size="13" textLength="149.259">Open class attendance</text><polygon points="619.297,177.859,629.297,181.859,619.297,185.859,623.297,181.859" fill="#9A8700" style="stroke:#9A8700;stroke-width:1;stroke-linejoin:miter;stroke-miterlimit:10;"/><line x1="330.862" y1="181.859" x2="625.297" y2="181.859" style="stroke:#9A8700;stroke-width:1;"/><text x="337.862" y="176.793" fill="#000" font-size="13" font-weight="700">2</text><text x="350.907" y="176.793" fill="#000" font-size="13" textLength="246.829">GET /api/v1/class-sessions/{id}/roster</text><polygon points="857.884,206.992,867.884,210.992,857.884,214.992,861.884,210.992" fill="#9A8700" style="stroke:#9A8700;stroke-width:1;stroke-linejoin:miter;stroke-miterlimit:10;"/><line x1="631.297" y1="210.992" x2="863.884" y2="210.992" style="stroke:#9A8700;stroke-width:1;"/><text x="638.297" y="205.926" fill="#000" font-size="13" font-weight="700">3</text><text x="651.342" y="205.926" fill="#000" font-size="13" textLength="195.292">authenticated scoped request</text><polygon points="1207.476,236.125,1217.476,240.125,1207.476,244.125,1211.476,240.125" fill="#9A8700" style="stroke:#9A8700;stroke-width:1;stroke-linejoin:miter;stroke-miterlimit:10;"/><line x1="869.884" y1="240.125" x2="1213.476" y2="240.125" style="stroke:#9A8700;stroke-width:1;"/><text x="876.884" y="235.059" fill="#000" font-size="13" font-weight="700">4</text><text x="889.93" y="235.059" fill="#000" font-size="13" textLength="225.272">getSessionRoster(actor, sessionId)</text><polygon points="1502.725,265.258,1512.725,269.258,1502.725,273.258,1506.725,269.258" fill="#9A8700" style="stroke:#9A8700;stroke-width:1;stroke-linejoin:miter;stroke-miterlimit:10;"/><line x1="1219.476" y1="269.258" x2="1508.725" y2="269.258" style="stroke:#9A8700;stroke-width:1;"/><text x="1226.476" y="264.192" fill="#000" font-size="13" font-weight="700">5</text><text x="1239.521" y="264.192" fill="#000" font-size="13" textLength="247.394">teacherOwnsSession(actor, sessionId)</text><polygon points="1926.267,294.391,1936.267,298.391,1926.267,302.391,1930.267,298.391" fill="#9A8700" style="stroke:#9A8700;stroke-width:1;stroke-linejoin:miter;stroke-miterlimit:10;"/><line x1="1514.725" y1="298.391" x2="1932.267" y2="298.391" style="stroke:#9A8700;stroke-width:1;"/><text x="1521.725" y="293.325" fill="#000" font-size="13" font-weight="700">6</text><text x="1534.77" y="293.325" fill="#000" font-size="13" textLength="270.956">session + group + teacher + enrollments</text><polygon points="1525.725,323.523,1515.725,327.523,1525.725,331.523,1521.725,327.523" fill="#9A8700" style="stroke:#9A8700;stroke-width:1;stroke-linejoin:miter;stroke-miterlimit:10;"/><line x1="1519.725" y1="327.523" x2="1937.267" y2="327.523" style="stroke:#9A8700;stroke-width:1;stroke-dasharray:2,2;"/><text x="1531.725" y="322.458" fill="#000" font-size="13" font-weight="700">7</text><text x="1544.77" y="322.458" fill="#000" font-size="13" textLength="159.288">authorized class context</text><polygon points="1926.267,352.656,1936.267,356.656,1926.267,360.656,1930.267,356.656" fill="#9A8700" style="stroke:#9A8700;stroke-width:1;stroke-linejoin:miter;stroke-miterlimit:10;"/><line x1="1219.476" y1="356.656" x2="1932.267" y2="356.656" style="stroke:#9A8700;stroke-width:1;"/><text x="1226.476" y="351.59" fill="#000" font-size="13" font-weight="700">8</text><text x="1239.521" y="351.59" fill="#000" font-size="13" textLength="288.774">active enrollment episodes covering session</text><polygon points="1230.476,381.789,1220.476,385.789,1230.476,389.789,1226.476,385.789" fill="#9A8700" style="stroke:#9A8700;stroke-width:1;stroke-linejoin:miter;stroke-miterlimit:10;"/><line x1="1224.476" y1="385.789" x2="1937.267" y2="385.789" style="stroke:#9A8700;stroke-width:1;stroke-dasharray:2,2;"/><text x="1236.476" y="380.723" fill="#000" font-size="13" font-weight="700">9</text><text x="1249.521" y="380.723" fill="#000" font-size="13" textLength="175.456">roster and existing records</text><polygon points="341.862,410.922,331.862,414.922,341.862,418.922,337.862,414.922" fill="#9A8700" style="stroke:#9A8700;stroke-width:1;stroke-linejoin:miter;stroke-miterlimit:10;"/><line x1="335.862" y1="414.922" x2="1218.476" y2="414.922" style="stroke:#9A8700;stroke-width:1;stroke-dasharray:2,2;"/><text x="347.862" y="409.856" fill="#000" font-size="13" textLength="18.091" font-weight="700">10</text><text x="369.953" y="409.856" fill="#000" font-size="13" textLength="200.529">roster, state and editable flags</text><polygon points="318.862,440.055,328.862,444.055,318.862,448.055,322.862,444.055" fill="#9A8700" style="stroke:#9A8700;stroke-width:1;stroke-linejoin:miter;stroke-miterlimit:10;"/><line x1="41.96" y1="444.055" x2="324.862" y2="444.055" style="stroke:#9A8700;stroke-width:1;"/><text x="48.96" y="438.989" fill="#000" font-size="13" textLength="18.091" font-weight="700">11</text><text x="71.051" y="438.989" fill="#000" font-size="13" textLength="242.811">Mark present/late/absent and finalize</text><polygon points="619.297,484.32,629.297,488.32,619.297,492.32,623.297,488.32" fill="#9A8700" style="stroke:#9A8700;stroke-width:1;stroke-linejoin:miter;stroke-miterlimit:10;"/><line x1="330.862" y1="488.32" x2="625.297" y2="488.32" style="stroke:#9A8700;stroke-width:1;"/><text x="337.862" y="475.688" fill="#000" font-size="13" textLength="18.091" font-weight="700">12</text><text x="359.953" y="468.122" fill="#000" font-size="13" textLength="152.991">PUT .../{id}/attendance</text><text x="359.953" y="483.254" fill="#000" font-size="13" textLength="254.344">records[], finalize=true, expectedState</text><line x1="631.297" y1="517.453" x2="673.297" y2="517.453" style="stroke:#9A8700;stroke-width:1;"/><line x1="673.297" y1="517.453" x2="673.297" y2="530.453" style="stroke:#9A8700;stroke-width:1;"/><line x1="632.297" y1="530.453" x2="673.297" y2="530.453" style="stroke:#9A8700;stroke-width:1;"/><polygon points="642.297,526.453,632.297,530.453,642.297,534.453,638.297,530.453" fill="#9A8700" style="stroke:#9A8700;stroke-width:1;stroke-linejoin:miter;stroke-miterlimit:10;"/><text x="638.297" y="512.387" fill="#000" font-size="13" textLength="18.091" font-weight="700">13</text><text x="660.388" y="512.387" fill="#000" font-size="13" textLength="202.497">validate session, role and body</text><polygon points="857.884,555.586,867.884,559.586,857.884,563.586,861.884,559.586" fill="#9A8700" style="stroke:#9A8700;stroke-width:1;stroke-linejoin:miter;stroke-miterlimit:10;"/><line x1="631.297" y1="559.586" x2="863.884" y2="559.586" style="stroke:#9A8700;stroke-width:1;"/><text x="638.297" y="554.52" fill="#000" font-size="13" textLength="18.091" font-weight="700">14</text><text x="660.388" y="554.52" fill="#000" font-size="13" textLength="100.153">valid command</text><polygon points="1207.476,584.719,1217.476,588.719,1207.476,592.719,1211.476,588.719" fill="#9A8700" style="stroke:#9A8700;stroke-width:1;stroke-linejoin:miter;stroke-miterlimit:10;"/><line x1="869.884" y1="588.719" x2="1213.476" y2="588.719" style="stroke:#9A8700;stroke-width:1;"/><text x="876.884" y="583.653" fill="#000" font-size="13" textLength="18.091" font-weight="700">15</text><text x="898.975" y="583.653" fill="#000" font-size="13" textLength="303.5">recordSessionAttendance(actor, id, command)</text><polygon points="1502.725,613.852,1512.725,617.852,1502.725,621.852,1506.725,617.852" fill="#9A8700" style="stroke:#9A8700;stroke-width:1;stroke-linejoin:miter;stroke-miterlimit:10;"/><line x1="1219.476" y1="617.852" x2="1508.725" y2="617.852" style="stroke:#9A8700;stroke-width:1;"/><text x="1226.476" y="612.786" fill="#000" font-size="13" textLength="18.091" font-weight="700">16</text><text x="1248.566" y="612.786" fill="#000" font-size="13" textLength="249.158">verify teacher/director resource scope</text><line x1="1219.476" y1="646.984" x2="1261.476" y2="646.984" style="stroke:#9A8700;stroke-width:1;"/><line x1="1261.476" y1="646.984" x2="1261.476" y2="659.984" style="stroke:#9A8700;stroke-width:1;"/><line x1="1220.476" y1="659.984" x2="1261.476" y2="659.984" style="stroke:#9A8700;stroke-width:1;"/><polygon points="1230.476,655.984,1220.476,659.984,1230.476,663.984,1226.476,659.984" fill="#9A8700" style="stroke:#9A8700;stroke-width:1;stroke-linejoin:miter;stroke-miterlimit:10;"/><text x="1226.476" y="641.918" fill="#000" font-size="13" textLength="18.091" font-weight="700">17</text><text x="1248.566" y="641.918" fill="#000" font-size="13" textLength="248.949">validate unique students and statuses</text><line x1="1219.476" y1="689.117" x2="1261.476" y2="689.117" style="stroke:#9A8700;stroke-width:1;"/><line x1="1261.476" y1="689.117" x2="1261.476" y2="702.117" style="stroke:#9A8700;stroke-width:1;"/><line x1="1220.476" y1="702.117" x2="1261.476" y2="702.117" style="stroke:#9A8700;stroke-width:1;"/><polygon points="1230.476,698.117,1220.476,702.117,1230.476,706.117,1226.476,702.117" fill="#9A8700" style="stroke:#9A8700;stroke-width:1;stroke-linejoin:miter;stroke-miterlimit:10;"/><text x="1226.476" y="684.051" fill="#000" font-size="13" textLength="18.091" font-weight="700">18</text><text x="1248.566" y="684.051" fill="#000" font-size="13" textLength="249.761">require class ended before finalization</text><path d="M25.96,714.117 L90.403,714.117 L90.403,721.25 L80.403,731.25 L25.96,731.25 L25.96,714.117" style="stroke:#000;stroke-width:1.5;" fill="#EEE"/><rect x="25.96" y="714.117" width="2207.247" height="482.063" fill="none" style="stroke:#000;stroke-width:1.5;"/><text x="40.96" y="727.184" fill="#000" font-size="13" textLength="19.443" font-weight="700">alt</text><text x="105.403" y="726.328" fill="#000" font-size="11" textLength="290.775" font-weight="700">[valid roster and unchanged attendance state]</text><line x1="25.96" y1="1088.977" x2="2233.207" y2="1088.977" style="stroke:#000;stroke-width:1;stroke-dasharray:2,2;"/><text x="30.96" y="1101.187" fill="#000" font-size="11" textLength="315.573" font-weight="700">[stale state, invalid student or unauthorized class]</text><polygon points="1632.142,758.383,1642.142,762.383,1632.142,766.383,1636.142,762.383" fill="#9A8700" style="stroke:#9A8700;stroke-width:1;stroke-linejoin:miter;stroke-miterlimit:10;"/><line x1="1219.476" y1="762.383" x2="1638.142" y2="762.383" style="stroke:#9A8700;stroke-width:1;"/><text x="1226.476" y="757.317" fill="#000" font-size="13" textLength="18.091" font-weight="700">19</text><text x="1248.566" y="757.317" fill="#000" font-size="13" textLength="113.921">begin transaction</text><polygon points="1926.267,802.648,1936.267,806.648,1926.267,810.648,1930.267,806.648" fill="#9A8700" style="stroke:#9A8700;stroke-width:1;stroke-linejoin:miter;stroke-miterlimit:10;"/><line x1="1644.142" y1="806.648" x2="1932.267" y2="806.648" style="stroke:#9A8700;stroke-width:1;"/><text x="1651.142" y="794.016" fill="#000" font-size="13" textLength="18.091" font-weight="700">20</text><text x="1673.232" y="786.45" fill="#000" font-size="13" textLength="201.494">upsert each attendance record</text><text x="1673.232" y="801.583" fill="#000" font-size="13" textLength="222.961">with recorder/updater and version</text><polygon points="1926.267,846.914,1936.267,850.914,1926.267,854.914,1930.267,850.914" fill="#9A8700" style="stroke:#9A8700;stroke-width:1;stroke-linejoin:miter;stroke-miterlimit:10;"/><line x1="1644.142" y1="850.914" x2="1932.267" y2="850.914" style="stroke:#9A8700;stroke-width:1;"/><text x="1651.142" y="838.282" fill="#000" font-size="13" textLength="18.091" font-weight="700">21</text><text x="1673.232" y="830.715" fill="#000" font-size="13" textLength="248.035">mark class attendanceState=finalized</text><text x="1673.232" y="845.848" fill="#000" font-size="13" textLength="172.955">and finalizedBy/finalizedAt</text><polygon points="2089.339,891.18,2099.339,895.18,2089.339,899.18,2093.339,895.18" fill="#9A8700" style="stroke:#9A8700;stroke-width:1;stroke-linejoin:miter;stroke-miterlimit:10;"/><line x1="1644.142" y1="895.18" x2="2095.339" y2="895.18" style="stroke:#9A8700;stroke-width:1;"/><text x="1651.142" y="882.547" fill="#000" font-size="13" textLength="18.091" font-weight="700">22</text><text x="1673.232" y="874.981" fill="#000" font-size="13" textLength="244.01">log ATTENDANCE_BATCH_RECORDED</text><text x="1673.232" y="890.114" fill="#000" font-size="13" textLength="191.858">and ATTENDANCE_FINALIZED</text><polygon points="1949.267,920.313,1939.267,924.313,1949.267,928.313,1945.267,924.313" fill="#9A8700" style="stroke:#9A8700;stroke-width:1;stroke-linejoin:miter;stroke-miterlimit:10;"/><line x1="1943.267" y1="924.313" x2="2100.339" y2="924.313" style="stroke:#9A8700;stroke-width:1;"/><text x="1955.267" y="919.247" fill="#000" font-size="13" textLength="18.091" font-weight="700">23</text><text x="1977.358" y="919.247" fill="#000" font-size="13" textLength="116.981">append audit logs</text><polygon points="1230.476,949.445,1220.476,953.445,1230.476,957.445,1226.476,953.445" fill="#9A8700" style="stroke:#9A8700;stroke-width:1;stroke-linejoin:miter;stroke-miterlimit:10;"/><line x1="1224.476" y1="953.445" x2="1643.142" y2="953.445" style="stroke:#9A8700;stroke-width:1;stroke-dasharray:2,2;"/><text x="1236.476" y="948.379" fill="#000" font-size="13" textLength="18.091" font-weight="700">24</text><text x="1258.566" y="948.379" fill="#000" font-size="13" textLength="49.137">commit</text><polygon points="2205.207,978.578,2215.207,982.578,2205.207,986.578,2209.207,982.578" fill="#9A8700" style="stroke:#9A8700;stroke-width:1;stroke-linejoin:miter;stroke-miterlimit:10;"/><line x1="1219.476" y1="982.578" x2="2211.207" y2="982.578" style="stroke:#9A8700;stroke-width:1;"/><text x="1226.476" y="977.512" fill="#000" font-size="13" textLength="18.091" font-weight="700">25</text><text x="1248.566" y="977.512" fill="#000" font-size="13" textLength="286.394">invalidate attendance/reports/students tags</text><polygon points="880.884,1007.711,870.884,1011.711,880.884,1015.711,876.884,1011.711" fill="#9A8700" style="stroke:#9A8700;stroke-width:1;stroke-linejoin:miter;stroke-miterlimit:10;"/><line x1="874.884" y1="1011.711" x2="1218.476" y2="1011.711" style="stroke:#9A8700;stroke-width:1;stroke-dasharray:2,2;"/><text x="886.884" y="1006.645" fill="#000" font-size="13" textLength="18.091" font-weight="700">26</text><text x="908.975" y="1006.645" fill="#000" font-size="13" textLength="138.531">finalized roster result</text><polygon points="341.862,1036.844,331.862,1040.844,341.862,1044.844,337.862,1040.844" fill="#9A8700" style="stroke:#9A8700;stroke-width:1;stroke-linejoin:miter;stroke-miterlimit:10;"/><line x1="335.862" y1="1040.844" x2="868.884" y2="1040.844" style="stroke:#9A8700;stroke-width:1;stroke-dasharray:2,2;"/><text x="347.862" y="1035.778" fill="#000" font-size="13" textLength="18.091" font-weight="700">27</text><text x="369.953" y="1035.778" fill="#000" font-size="13" textLength="79.796">200 success</text><polygon points="52.96,1065.977,42.96,1069.977,52.96,1073.977,48.96,1069.977" fill="#9A8700" style="stroke:#9A8700;stroke-width:1;stroke-linejoin:miter;stroke-miterlimit:10;"/><line x1="46.96" y1="1069.977" x2="329.862" y2="1069.977" style="stroke:#9A8700;stroke-width:1;stroke-dasharray:2,2;"/><text x="58.96" y="1064.911" fill="#000" font-size="13" textLength="18.091" font-weight="700">28</text><text x="81.051" y="1064.911" fill="#000" font-size="13" textLength="202.192">Confirmation and locked roster</text><polygon points="880.884,1125.914,870.884,1129.914,880.884,1133.914,876.884,1129.914" fill="#9A8700" style="stroke:#9A8700;stroke-width:1;stroke-linejoin:miter;stroke-miterlimit:10;"/><line x1="874.884" y1="1129.914" x2="1218.476" y2="1129.914" style="stroke:#9A8700;stroke-width:1;stroke-dasharray:2,2;"/><text x="886.884" y="1124.848" fill="#000" font-size="13" textLength="18.091" font-weight="700">29</text><text x="908.975" y="1124.848" fill="#000" font-size="13" textLength="144.93">AppError 403/409/422</text><polygon points="341.862,1155.047,331.862,1159.047,341.862,1163.047,337.862,1159.047" fill="#9A8700" style="stroke:#9A8700;stroke-width:1;stroke-linejoin:miter;stroke-miterlimit:10;"/><line x1="335.862" y1="1159.047" x2="868.884" y2="1159.047" style="stroke:#9A8700;stroke-width:1;stroke-dasharray:2,2;"/><text x="347.862" y="1153.981" fill="#000" font-size="13" textLength="18.091" font-weight="700">30</text><text x="369.953" y="1153.981" fill="#000" font-size="13" textLength="166.924">consistent error envelope</text><polygon points="52.96,1184.18,42.96,1188.18,52.96,1192.18,48.96,1188.18" fill="#9A8700" style="stroke:#9A8700;stroke-width:1;stroke-linejoin:miter;stroke-miterlimit:10;"/><line x1="46.96" y1="1188.18" x2="329.862" y2="1188.18" style="stroke:#9A8700;stroke-width:1;stroke-dasharray:2,2;"/><text x="58.96" y="1183.114" fill="#000" font-size="13" textLength="18.091" font-weight="700">31</text><text x="81.051" y="1183.114" fill="#000" font-size="13" textLength="184.755">Friendly correction message</text><path d="M25.96,1214.18 L95.412,1214.18 L95.412,1221.313 L85.412,1231.313 L25.96,1231.313 L25.96,1214.18" style="stroke:#000;stroke-width:1.5;" fill="#EEE"/><rect x="25.96" y="1214.18" width="2207.247" height="231.063" fill="none" style="stroke:#000;stroke-width:1.5;"/><text x="40.96" y="1227.247" fill="#000" font-size="13" textLength="24.451" font-weight="700">opt</text><text x="110.412" y="1226.39" fill="#000" font-size="11" textLength="251.646" font-weight="700">[authorized correction after finalization]</text><polygon points="318.862,1258.445,328.862,1262.445,318.862,1266.445,322.862,1262.445" fill="#9A8700" style="stroke:#9A8700;stroke-width:1;stroke-linejoin:miter;stroke-miterlimit:10;"/><line x1="41.96" y1="1262.445" x2="324.862" y2="1262.445" style="stroke:#9A8700;stroke-width:1;"/><text x="48.96" y="1257.379" fill="#000" font-size="13" textLength="18.091" font-weight="700">32</text><text x="71.051" y="1257.379" fill="#000" font-size="13" textLength="230.058">Enable correction and enter reason</text><polygon points="1207.476,1287.578,1217.476,1291.578,1207.476,1295.578,1211.476,1291.578" fill="#9A8700" style="stroke:#9A8700;stroke-width:1;stroke-linejoin:miter;stroke-miterlimit:10;"/><line x1="330.862" y1="1291.578" x2="1213.476" y2="1291.578" style="stroke:#9A8700;stroke-width:1;"/><text x="337.862" y="1286.512" fill="#000" font-size="13" textLength="18.091" font-weight="700">33</text><text x="359.953" y="1286.512" fill="#000" font-size="13" textLength="253.075">PUT attendance with correctionReason</text><polygon points="1502.725,1316.711,1512.725,1320.711,1502.725,1324.711,1506.725,1320.711" fill="#9A8700" style="stroke:#9A8700;stroke-width:1;stroke-linejoin:miter;stroke-miterlimit:10;"/><line x1="1219.476" y1="1320.711" x2="1508.725" y2="1320.711" style="stroke:#9A8700;stroke-width:1;"/><text x="1226.476" y="1315.645" fill="#000" font-size="13" textLength="18.091" font-weight="700">34</text><text x="1248.566" y="1315.645" fill="#000" font-size="13" textLength="203.633">allow correction role and scope</text><polygon points="1926.267,1345.844,1936.267,1349.844,1926.267,1353.844,1930.267,1349.844" fill="#9A8700" style="stroke:#9A8700;stroke-width:1;stroke-linejoin:miter;stroke-miterlimit:10;"/><line x1="1219.476" y1="1349.844" x2="1932.267" y2="1349.844" style="stroke:#9A8700;stroke-width:1;"/><text x="1226.476" y="1344.778" fill="#000" font-size="13" textLength="18.091" font-weight="700">35</text><text x="1248.566" y="1344.778" fill="#000" font-size="13" textLength="371.795">update record, increment version, preserve history fields</text><polygon points="2089.339,1374.977,2099.339,1378.977,2089.339,1382.977,2093.339,1378.977" fill="#9A8700" style="stroke:#9A8700;stroke-width:1;stroke-linejoin:miter;stroke-miterlimit:10;"/><line x1="1219.476" y1="1378.977" x2="2095.339" y2="1378.977" style="stroke:#9A8700;stroke-width:1;"/><text x="1226.476" y="1373.911" fill="#000" font-size="13" textLength="18.091" font-weight="700">36</text><text x="1248.566" y="1373.911" fill="#000" font-size="13" textLength="280.033">log ATTENDANCE_CORRECTED with reason</text><polygon points="2205.207,1404.109,2215.207,1408.109,2205.207,1412.109,2209.207,1408.109" fill="#9A8700" style="stroke:#9A8700;stroke-width:1;stroke-linejoin:miter;stroke-miterlimit:10;"/><line x1="1219.476" y1="1408.109" x2="2211.207" y2="1408.109" style="stroke:#9A8700;stroke-width:1;"/><text x="1226.476" y="1403.043" fill="#000" font-size="13" textLength="18.091" font-weight="700">37</text><text x="1248.566" y="1403.043" fill="#000" font-size="13" textLength="198.136">invalidate affected report tags</text><polygon points="341.862,1433.242,331.862,1437.242,341.862,1441.242,337.862,1437.242" fill="#9A8700" style="stroke:#9A8700;stroke-width:1;stroke-linejoin:miter;stroke-miterlimit:10;"/><line x1="335.862" y1="1437.242" x2="1218.476" y2="1437.242" style="stroke:#9A8700;stroke-width:1;stroke-dasharray:2,2;"/><text x="347.862" y="1432.176" fill="#000" font-size="13" textLength="18.091" font-weight="700">38</text><text x="369.953" y="1432.176" fill="#000" font-size="13" textLength="108.456">corrected record</text><?plantuml-src VLPRRzis67tNho3Qbmrp8YyBqDL01yYNR06QonpdfSrGq19j4w59ZQHyQR7_liEB9Jfn2pzOehxh-Svt9CkjOAImbicAofAHAowfu5-fvKgICt93kIHKLgGGbcc9umriXDgQZ3PMoMOzPpepprpMLDCrcTFoUQbL8wkH4agJjrS5VkyI2xEYbTfokIGBAWnBdXHQgsrqUr_y_gxVpp9QMjpUQxLW1XVKa1cZvGevuMDvoMigBNapnQ4bj6i3nqoySVQFryUcarsjcJ5apQjAi2tLx4aQ7BX-Vo7JOJ72toTLUUURrkWeI8VNI4chbH3CrzRTVSVyWUaDHtcmZPV7XcM9IkwLuENUsOIhu_h7rD8vDJupszadPAJIe7qqu6kUxR8gsY20iKlD7lx-w9wCXyVPcehRf29_VsGnSb0d5lu-o-88oDaVG7T0xcecIIaeGEqca3rUk-STW0FovsH6SbhpVFDhxitF8kuc_yQh_tADOe5Sv-82T90E21YtOXBLKSigOafLuq-pVnjcR9PC0cwnw05PChJeiqnz-9yyeteafhwkViuE3S8j03uWDdHujvKcUf_mYtE2stWu81s77Fzh_CSWk6BILRP6xIOR3ybPaidrf3J_Yau2X6MOQrgL2-y6ZDNh8X5MSwCgvZmsJBk5YYKSKhGO163z6hCTDzRPQbOgNPakJHnci4MV5Y075x22pg4I2q6NvjNqRwX-9cwbK5Cku9JJkRlslekW9gVOSFyu8-Vdvs7q7M-UPApiyp-zrls3rGtheVYQbHZzWwlj1K_Iq1iuLQxy24WFNOdGp5nL-nymp7i2qFKQnj-ZL2WmygBRxGD3UDKxH3Z9BJUinVx0ZhpYYET43X2gHiFM4plrR3EtZJMIW_KOKbCvKldMtCGQT7pIqsq94aMEeMBmRSuM2aUBHF4XkC9651BMDB9SKRc4JoAndY4P8KcwsMw0g4kyCX9HWibiTw1nKnkcmLtqdiOAa3x9BRUhU0Decjer6qe0QkPbiBMZtalXyUJuS60EOgOyh8RxlBqkR1lDIz-02BKanMmskHqNjwF9bs4n6_trPJePtKt7at68b3o-khujFbv_cemHnWTeTxM68W8hVuQO9kP91-8OmkqnV5vU1uJBTivTMxbcjTBMvEtCBVM1qmLEgTosUHWa-DK8bp6bTLpYYtwVcCQ_VM3WbjLDCp1qu1mMNA_3Du43GQZokGsSCRp67Hj4v4JlqC61dmJiRkHBfVj1xKLTJ_0neCbb_xVyily-lxouE5qurD90qRmUUWycDqou_NdTnfNc05FiuQJTphbkrkYOBbc61rccQdkanvqPNJW4ZpQ5a1T2E95U9LClfvuoO4-DzmawsBB0YM2o1fx-NO3fmUk4Yb21Zx0qMIjnGJwEdCBcUKQ5vN8ZAZNpxv6uMRqWuXelcHKGLNgFVfcep76eqvk23S6Qp2PZ4ZVuTU4doBrOU3adWTgd21r6x7lqTgvsDwl_0G00?></g></svg>