<svg xmlns="http://www.w3.org/2000/svg" xmlns:xlink="http://www.w3.org/1999/xlink" version="1.1" data-diagram-type="DESCRIPTION" style="width:1963px;height:2128px;background:#FAFAF7;" width="1963px" height="2128px" viewBox="0 0 1963 2128" zoomAndPan="magnify" preserveAspectRatio="none" contentStyleType="text/css"><?plantuml 1.2026.7beta8?><defs/><g font-family="sans-serif" lengthAdjust="spacing"><rect x="0" y="0" width="1963" height="2128" fill="#FAFAF7" style="stroke:none;"/><g class="title" data-source-line="1"><text x="786.662" y="22.995" fill="#000" font-size="14" textLength="383.216" font-weight="700">American Latin Class - AWS Staging Deployment</text></g><!--cluster AWS Region us-east-2--><g class="cluster" data-qualified-name="AWS Region us-east-2" id="ent0005" data-source-line="14"><polygon points="390.29,139.567,400.29,129.567,1938.54,129.567,1938.54,1478.567,1928.54,1488.567,390.29,1488.567,390.29,139.567" fill="none" style="stroke:#181818;stroke-width:1;stroke-linejoin:miter;stroke-miterlimit:10;"/><line x1="1928.54" y1="139.567" x2="1938.54" y2="129.567" style="stroke:#181818;stroke-width:1;"/><line x1="390.29" y1="139.567" x2="1928.54" y2="139.567" style="stroke:#181818;stroke-width:1;"/><line x1="1928.54" y1="139.567" x2="1928.54" y2="1488.567" style="stroke:#181818;stroke-width:1;"/><text x="1073.206" y="155.562" fill="#000" font-size="14" textLength="174.419" font-weight="700">AWS Region us-east-2</text></g><!--cluster VPC--><g class="cluster" data-qualified-name="AWS Region us-east-2.VPC" id="ent0006" data-source-line="15"><polygon points="414.29,187.567,424.29,177.567,1914.54,177.567,1914.54,1454.567,1904.54,1464.567,414.29,1464.567,414.29,187.567" fill="none" style="stroke:#181818;stroke-width:1;stroke-linejoin:miter;stroke-miterlimit:10;"/><line x1="1904.54" y1="187.567" x2="1914.54" y2="177.567" style="stroke:#181818;stroke-width:1;"/><line x1="414.29" y1="187.567" x2="1904.54" y2="187.567" style="stroke:#181818;stroke-width:1;"/><line x1="1904.54" y1="187.567" x2="1904.54" y2="1464.567" style="stroke:#181818;stroke-width:1;"/><text x="1144.73" y="203.562" fill="#000" font-size="14" textLength="31.37" font-weight="700">VPC</text></g><!--cluster Public edge--><g class="cluster" data-qualified-name="AWS Region us-east-2.VPC.Public edge" id="ent0007" data-source-line="16"><rect x="438.29" y="378.567" width="863.04" height="259" fill="none" style="stroke:#181818;stroke-width:1;" rx="2.5" ry="2.5"/><path d="M540.343,378.567 L540.343,387.864 L530.343,397.864 L438.29,397.864" style="stroke:#181818;stroke-width:1;" fill="none"/><text x="441.29" y="392.562" fill="#000" font-size="14" textLength="92.053" font-weight="700">Public edge</text></g><!--cluster Frontend--><g class="cluster" data-qualified-name="AWS Region us-east-2.VPC.Public edge.Frontend" id="ent0008" data-source-line="17"><polygon points="470.29,439.567,480.29,429.567,1269.33,429.567,1269.33,595.567,1259.33,605.567,470.29,605.567,470.29,439.567" fill="none" style="stroke:#181818;stroke-width:1;stroke-linejoin:miter;stroke-miterlimit:10;"/><line x1="1259.33" y1="439.567" x2="1269.33" y2="429.567" style="stroke:#181818;stroke-width:1;"/><line x1="470.29" y1="439.567" x2="1259.33" y2="439.567" style="stroke:#181818;stroke-width:1;"/><line x1="1259.33" y1="439.567" x2="1259.33" y2="605.567" style="stroke:#181818;stroke-width:1;"/><text x="812.469" y="455.562" fill="#000" font-size="14" textLength="106.682" font-weight="700">Frontend EC2</text><text x="803.312" y="471.859" fill="#000" font-size="14" textLength="124.995" font-weight="700">Ubuntu + Nginx</text></g><!--cluster Application instances--><g class="cluster" data-qualified-name="AWS Region us-east-2.VPC.Application instances" id="ent0011" data-source-line="23"><rect x="983.29" y="661.567" width="907.25" height="779" fill="none" style="stroke:#181818;stroke-width:1;" rx="2.5" ry="2.5"/><path d="M1162.794,661.567 L1162.794,670.864 L1152.794,680.864 L983.29,680.864" style="stroke:#181818;stroke-width:1;" fill="none"/><text x="986.29" y="675.562" fill="#000" font-size="14" textLength="169.504" font-weight="700">Application instances</text></g><!--cluster Core--><g class="cluster" data-qualified-name="AWS Region us-east-2.VPC.Application instances.Core" id="ent0012" data-source-line="24"><polygon points="1052.89,1274.567,1062.89,1264.567,1858.54,1264.567,1858.54,1398.567,1848.54,1408.567,1052.89,1408.567,1052.89,1274.567" fill="none" style="stroke:#181818;stroke-width:1;stroke-linejoin:miter;stroke-miterlimit:10;"/><line x1="1848.54" y1="1274.567" x2="1858.54" y2="1264.567" style="stroke:#181818;stroke-width:1;"/><line x1="1052.89" y1="1274.567" x2="1848.54" y2="1274.567" style="stroke:#181818;stroke-width:1;"/><line x1="1848.54" y1="1274.567" x2="1848.54" y2="1408.567" style="stroke:#181818;stroke-width:1;"/><text x="1393.48" y="1290.562" fill="#000" font-size="14" textLength="116.471" font-weight="700">Core Node EC2</text></g><!--cluster AuthNode--><g class="cluster" data-qualified-name="AWS Region us-east-2.VPC.Application instances.AuthNode" id="ent0015" data-source-line="28"><polygon points="1026.77,1090.567,1036.77,1080.567,1826.73,1080.567,1826.73,1214.567,1816.73,1224.567,1026.77,1224.567,1026.77,1090.567" fill="none" style="stroke:#181818;stroke-width:1;stroke-linejoin:miter;stroke-miterlimit:10;"/><line x1="1816.73" y1="1090.567" x2="1826.73" y2="1080.567" style="stroke:#181818;stroke-width:1;"/><line x1="1026.77" y1="1090.567" x2="1816.73" y2="1090.567" style="stroke:#181818;stroke-width:1;"/><line x1="1816.73" y1="1090.567" x2="1816.73" y2="1224.567" style="stroke:#181818;stroke-width:1;"/><text x="1363.93" y="1106.562" fill="#000" font-size="14" textLength="117.64" font-weight="700">Auth Node EC2</text></g><!--cluster ReportsNode--><g class="cluster" data-qualified-name="AWS Region us-east-2.VPC.Application instances.ReportsNode" id="ent0018" data-source-line="32"><polygon points="1026.77,906.567,1036.77,896.567,1826.73,896.567,1826.73,1030.567,1816.73,1040.567,1026.77,1040.567,1026.77,906.567" fill="none" style="stroke:#181818;stroke-width:1;stroke-linejoin:miter;stroke-miterlimit:10;"/><line x1="1816.73" y1="906.567" x2="1826.73" y2="896.567" style="stroke:#181818;stroke-width:1;"/><line x1="1026.77" y1="906.567" x2="1816.73" y2="906.567" style="stroke:#181818;stroke-width:1;"/><line x1="1816.73" y1="906.567" x2="1816.73" y2="1040.567" style="stroke:#181818;stroke-width:1;"/><text x="1351.738" y="922.562" fill="#000" font-size="14" textLength="142.023" font-weight="700">Reports Node EC2</text></g><!--cluster AnalyticsNode--><g class="cluster" data-qualified-name="AWS Region us-east-2.VPC.Application instances.AnalyticsNode" id="ent0021" data-source-line="36"><polygon points="1015.29,722.567,1025.29,712.567,1289.06,712.567,1289.06,846.567,1279.06,856.567,1015.29,856.567,1015.29,722.567" fill="none" style="stroke:#181818;stroke-width:1;stroke-linejoin:miter;stroke-miterlimit:10;"/><line x1="1279.06" y1="722.567" x2="1289.06" y2="712.567" style="stroke:#181818;stroke-width:1;"/><line x1="1015.29" y1="722.567" x2="1279.06" y2="722.567" style="stroke:#181818;stroke-width:1;"/><line x1="1279.06" y1="722.567" x2="1279.06" y2="856.567" style="stroke:#181818;stroke-width:1;"/><text x="1094.8" y="738.562" fill="#000" font-size="14" textLength="106.75" font-weight="700">Analytics EC2</text></g><!--cluster Private data tier--><g class="cluster" data-qualified-name="AWS Region us-east-2.VPC.Private data tier" id="ent0023" data-source-line="41"><rect x="1053.05" y="225.567" width="810.05" height="129" fill="none" style="stroke:#181818;stroke-width:1;" rx="2.5" ry="2.5"/><path d="M1193.022,225.567 L1193.022,234.864 L1183.022,244.864 L1053.05,244.864" style="stroke:#181818;stroke-width:1;" fill="none"/><text x="1056.05" y="239.562" fill="#000" font-size="14" textLength="129.972" font-weight="700">Private data tier</text></g><!--entity Static--><g class="entity" data-qualified-name="AWS Region us-east-2.VPC.Public edge.Frontend.Static" id="ent0009" data-source-line="18"><rect x="1059.01" y="502.767" width="186.324" height="55.594" fill="#F1F1F1" style="stroke:#181818;stroke-width:0.5;" rx="2.5" ry="2.5"/><polygon points="1228.334,507.767,1228.334,521.767,1240.334,521.767,1240.334,513.767,1234.334,507.767,1228.334,507.767" fill="#F1F1F1" style="stroke:#181818;stroke-width:0.5;stroke-linejoin:miter;stroke-miterlimit:10;"/><line x1="1234.334" y1="507.767" x2="1234.334" y2="513.767" style="stroke:#181818;stroke-width:0.5;"/><line x1="1240.334" y1="513.767" x2="1234.334" y2="513.767" style="stroke:#181818;stroke-width:0.5;"/><text x="1069.01" y="528.762" fill="#000" font-size="14" textLength="154.157">React/Vite static build</text><text x="1069.01" y="545.059" fill="#000" font-size="14" textLength="156.324">/var/www/alc-frontend</text></g><!--entity Nginx--><g class="entity" data-qualified-name="AWS Region us-east-2.VPC.Public edge.Frontend.Nginx" id="ent0010" data-source-line="19"><rect x="494.29" y="493.117" width="220.512" height="68.891" fill="#F1F1F1" style="stroke:#181818;stroke-width:0.5;" rx="2.5" ry="2.5"/><text x="504.29" y="516.112" fill="#000" font-size="14" textLength="40.407">Nginx</text><text x="504.29" y="532.409" fill="#000" font-size="14" textLength="70.219">80 -> 443</text><text x="504.29" y="548.706" fill="#000" font-size="14" textLength="200.512">TLS + HSTS + reverse proxy</text></g><!--entity CoreApp--><g class="entity" data-qualified-name="AWS Region us-east-2.VPC.Application instances.Core.CoreApp" id="ent0013" data-source-line="25"><rect x="1076.89" y="1312.267" width="150.573" height="52.594" fill="#F1F1F1" style="stroke:#181818;stroke-width:0.5;" rx="2.5" ry="2.5"/><text x="1086.89" y="1335.262" fill="#000" font-size="14" textLength="116.136">PM2 alc-api-core</text><text x="1086.89" y="1351.559" fill="#000" font-size="14" textLength="130.573">Express app :3000</text></g><!--entity CoreMail--><g class="entity" data-qualified-name="AWS Region us-east-2.VPC.Application instances.Core.CoreMail" id="ent0014" data-source-line="26"><rect x="1653.67" y="1312.267" width="180.863" height="52.594" fill="#F1F1F1" style="stroke:#181818;stroke-width:0.5;" rx="2.5" ry="2.5"/><text x="1663.67" y="1335.262" fill="#000" font-size="14" textLength="133.909">Mailpit SMTP :1025</text><text x="1663.67" y="1351.559" fill="#000" font-size="14" textLength="160.863">UI :8025 loopback only</text></g><!--entity AuthApp--><g class="entity" data-qualified-name="AWS Region us-east-2.VPC.Application instances.AuthNode.AuthApp" id="ent0016" data-source-line="29"><rect x="1050.77" y="1128.267" width="202.813" height="52.594" fill="#F1F1F1" style="stroke:#181818;stroke-width:0.5;" rx="2.5" ry="2.5"/><text x="1060.77" y="1151.262" fill="#000" font-size="14" textLength="117.318">PM2 alc-api-auth</text><text x="1060.77" y="1167.559" fill="#000" font-size="14" textLength="182.813">Same Express build :3001</text></g><!--entity AuthMail--><g class="entity" data-qualified-name="AWS Region us-east-2.VPC.Application instances.AuthNode.AuthMail" id="ent0017" data-source-line="30"><rect x="1685.48" y="1128.267" width="117.241" height="52.594" fill="#F1F1F1" style="stroke:#181818;stroke-width:0.5;" rx="2.5" ry="2.5"/><text x="1695.48" y="1151.262" fill="#000" font-size="14" textLength="46.703">Mailpit</text><text x="1695.48" y="1167.559" fill="#000" font-size="14" textLength="97.241">loopback only</text></g><!--entity ReportsApp--><g class="entity" data-qualified-name="AWS Region us-east-2.VPC.Application instances.ReportsNode.ReportsApp" id="ent0019" data-source-line="33"><rect x="1050.77" y="944.267" width="202.813" height="52.594" fill="#F1F1F1" style="stroke:#181818;stroke-width:0.5;" rx="2.5" ry="2.5"/><text x="1060.77" y="967.262" fill="#000" font-size="14" textLength="135.864">PM2 alc-api-reports</text><text x="1060.77" y="983.559" fill="#000" font-size="14" textLength="182.813">Same Express build :3002</text></g><!--entity ReportsMail--><g class="entity" data-qualified-name="AWS Region us-east-2.VPC.Application instances.ReportsNode.ReportsMail" id="ent0020" data-source-line="34"><rect x="1685.48" y="944.267" width="117.241" height="52.594" fill="#F1F1F1" style="stroke:#181818;stroke-width:0.5;" rx="2.5" ry="2.5"/><text x="1695.48" y="967.262" fill="#000" font-size="14" textLength="46.703">Mailpit</text><text x="1695.48" y="983.559" fill="#000" font-size="14" textLength="97.241">loopback only</text></g><!--entity AnalyticsApp--><g class="entity" data-qualified-name="AWS Region us-east-2.VPC.Application instances.AnalyticsNode.AnalyticsApp" id="ent0022" data-source-line="37"><rect x="1039.29" y="760.267" width="225.769" height="52.594" fill="#F1F1F1" style="stroke:#181818;stroke-width:0.5;" rx="2.5" ry="2.5"/><text x="1049.29" y="783.262" fill="#000" font-size="14" textLength="205.769">systemd alc-python-analytics</text><text x="1049.29" y="799.559" fill="#000" font-size="14" textLength="154.39">FastAPI/Uvicorn :8000</text></g><!--entity RDS--><g class="entity" data-qualified-name="AWS Region us-east-2.VPC.Private data tier.RDS" id="ent0024" data-source-line="42"><path d="M1641.11,270.617 C1641.11,260.617 1744.11,260.617 1744.11,260.617 C1744.11,260.617 1847.109,260.617 1847.109,270.617 L1847.109,328.508 C1847.109,338.508 1744.11,338.508 1744.11,338.508 C1744.11,338.508 1641.11,338.508 1641.11,328.508 L1641.11,270.617" style="stroke:#181818;stroke-width:0.5;" fill="#F1F1F1"/><path d="M1641.11,270.617 C1641.11,280.617 1744.11,280.617 1744.11,280.617 C1744.11,280.617 1847.109,280.617 1847.109,270.617" style="stroke:#181818;stroke-width:0.5;" fill="none"/><text x="1651.11" y="297.612" fill="#000" font-size="14" textLength="175.629">Amazon RDS PostgreSQL</text><text x="1651.11" y="313.909" fill="#000" font-size="14" textLength="185.999">american-latin-class :5432</text><text x="1651.11" y="330.206" fill="#000" font-size="14" textLength="135.188">private access only</text></g><!--entity Migrations--><g class="entity" data-qualified-name="AWS Region us-east-2.VPC.Private data tier.Migrations" id="ent0025" data-source-line="43"><rect x="1069.05" y="271.767" width="166.247" height="55.594" fill="#F1F1F1" style="stroke:#181818;stroke-width:0.5;" rx="2.5" ry="2.5"/><polygon points="1218.297,276.767,1218.297,290.767,1230.297,290.767,1230.297,282.767,1224.297,276.767,1218.297,276.767" fill="#F1F1F1" style="stroke:#181818;stroke-width:0.5;stroke-linejoin:miter;stroke-miterlimit:10;"/><line x1="1224.297" y1="276.767" x2="1224.297" y2="282.767" style="stroke:#181818;stroke-width:0.5;"/><line x1="1230.297" y1="282.767" x2="1224.297" y2="282.767" style="stroke:#181818;stroke-width:0.5;"/><text x="1079.05" y="297.762" fill="#000" font-size="14" textLength="136.247">Migrations 001-013</text><text x="1079.05" y="314.059" fill="#000" font-size="14" textLength="106.743">Prisma schema</text></g><!--entity User--><g class="entity" data-qualified-name="User" id="ent0001" data-source-line="9"><ellipse cx="81.145" cy="497.917" rx="8" ry="8" fill="#F1F1F1" style="stroke:#181818;stroke-width:0.5;"/><path d="M81.145,505.917 L81.145,532.917 M68.145,513.917 L94.145,513.917 M81.145,532.917 L68.145,547.917 M81.145,532.917 L94.145,547.917" style="stroke:#181818;stroke-width:0.5;" fill="none"/><text x="47.98" y="562.412" fill="#000" font-size="14" textLength="66.329">Web user</text></g><!--entity Operator--><g class="entity" data-qualified-name="Operator" id="ent0002" data-source-line="10"><ellipse cx="81.147" cy="1683.917" rx="8" ry="8" fill="#F1F1F1" style="stroke:#181818;stroke-width:0.5;"/><path d="M81.147,1691.917 L81.147,1718.917 M68.147,1699.917 L94.147,1699.917 M81.147,1718.917 L68.147,1733.917 M81.147,1718.917 L94.147,1733.917" style="stroke:#181818;stroke-width:0.5;" fill="none"/><text x="6" y="1748.412" fill="#000" font-size="14" textLength="150.295">Deployment operator</text></g><!--entity Google--><g class="entity" data-qualified-name="Google" id="ent0003" data-source-line="11"><path d="M1684.311,1512.462 C1687.272,1506.211 1692.967,1507.372 1695.952,1512.438 C1699.42,1507.123 1704.619,1506.812 1708.06,1512.467 C1711.079,1505.159 1717.663,1504.897 1721.379,1511.815 C1724.972,1505.843 1728.449,1505.509 1732.43,1511.455 C1736.515,1505.665 1741.409,1505.467 1745.444,1511.511 C1749.269,1507.09 1753.261,1505.95 1756.739,1511.89 C1760.279,1505.563 1766.069,1506.823 1769.29,1512.231 C1772.59,1506.21 1777.709,1505.992 1781.32,1511.917 C1786.441,1506.481 1790.305,1506.894 1794.181,1513.272 C1797.567,1508.034 1803.168,1508.689 1805.832,1514.063 C1810.732,1516.436 1811.303,1520.417 1807.335,1524.115 C1812.951,1527.107 1813.252,1532.433 1808.05,1536.072 C1814.332,1540.461 1813.928,1544.404 1807.384,1548.081 C1812.568,1553.424 1811.776,1557.281 1805.103,1560.435 C1802.815,1565.439 1797.978,1565.48 1794.701,1561.592 C1790.376,1567.636 1786.623,1566.796 1782.261,1561.632 C1778.429,1567.468 1773.42,1568.4 1769.216,1562.029 C1766.836,1567.644 1761.083,1570.278 1756.669,1564.213 C1753.874,1570.276 1750.13,1571.192 1745.704,1565.77 C1741.152,1571.533 1736.014,1571.315 1733.289,1564.031 C1729.323,1571.071 1724.272,1569.638 1720.294,1564.043 C1716.321,1569.625 1710.848,1569.221 1707.968,1562.91 C1703.856,1566.652 1700.074,1566.493 1697.406,1561.218 C1693.065,1566.761 1686.668,1566.764 1683.751,1559.679 C1676.594,1557.277 1676.559,1552.449 1681.122,1547.515 C1675.463,1545.481 1674.101,1541.94 1677.622,1536.884 C1673.513,1532.618 1674.478,1526.778 1680.818,1525.427 C1675.206,1519.173 1677.205,1515.289 1684.311,1512.462" style="stroke:#181818;stroke-width:0.5;" fill="#F1F1F1"/><text x="1690.37" y="1532.262" fill="#000" font-size="14" textLength="107.475">Google Identity</text><text x="1690.37" y="1548.559" fill="#000" font-size="14" textLength="67.628">and Maps</text></g><!--entity ExternalSMTP--><g class="entity" data-qualified-name="ExternalSMTP" id="ent0004" data-source-line="12"><path d="M1655.123,1611.593 C1657.771,1605.663 1663.323,1604.949 1667.764,1609.414 C1671.779,1603.432 1676.347,1603.097 1680.094,1609.678 C1684.456,1603.288 1690.254,1602.845 1693.981,1610.314 C1696.804,1604.301 1701.866,1602.449 1706.982,1607.657 C1710.553,1600.772 1716.632,1601.637 1720.28,1607.576 C1723.069,1600.782 1729.112,1601.44 1732.475,1607.01 C1736.438,1600.978 1741.65,1600.704 1745.079,1607.534 C1748.443,1602.036 1754.973,1602.22 1758.27,1607.614 C1762.011,1600.761 1767.868,1601.054 1771.709,1607.513 C1775.9,1602.363 1782.118,1603.758 1784.599,1609.531 C1788.465,1604.332 1792.161,1604.024 1796.189,1609.352 C1800.01,1602.318 1807.404,1601.466 1811.078,1609.497 C1814.764,1604.007 1818.543,1604.328 1822.618,1609.058 C1827.737,1603.321 1833.962,1602.449 1837.47,1610.761 C1847.113,1612.356 1848.938,1619.108 1843.376,1626.433 C1849.38,1633.409 1844.844,1639.361 1837.385,1640.674 C1834.944,1647.778 1828.932,1648.026 1824.3,1643.047 C1820.959,1650.017 1815.393,1651.947 1810.116,1645.025 C1805.843,1650.972 1801.182,1650.922 1797.347,1644.571 C1794.607,1651.19 1789.858,1653.36 1784.484,1647.227 C1781.137,1653.716 1776.534,1652.72 1772.361,1648.131 C1768.879,1654.358 1763.34,1655.424 1758.366,1649.91 C1755.69,1658.145 1750.041,1657.991 1744.44,1652.987 C1739.068,1659.079 1735.147,1657.611 1731.844,1650.944 C1726.712,1655.438 1722.707,1654.177 1720.018,1648.188 C1716.038,1655.91 1710.11,1654.919 1705.998,1648.318 C1700.153,1653.564 1695.727,1651.882 1692.773,1645.131 C1688.829,1650.08 1682.652,1649.782 1680.203,1643.463 C1675.678,1649.427 1672.025,1648.766 1668.277,1642.693 C1663.305,1648.568 1657.753,1648.089 1654.559,1640.833 C1645.206,1641.116 1640.735,1636.247 1644.486,1626.992 C1640.25,1618.069 1645.26,1610.778 1655.123,1611.593" style="stroke:#181818;stroke-width:0.5;" fill="#F1F1F1"/><text x="1660.11" y="1629.412" fill="#000" font-size="14" textLength="168">Future production SMTP</text></g><g class="entity" data-qualified-name="GMN48" id="ent0049" data-source-line="74"><path d="M490.78,1504.297 L490.78,1574.828 L718.326,1574.828 L718.326,1514.297 L708.326,1504.297 L490.78,1504.297" style="stroke:#181818;stroke-width:0.5;" fill="#FEFFDD"/><path d="M708.326,1504.297 L708.326,1514.297 L718.326,1514.297 L708.326,1504.297" style="stroke:#181818;stroke-width:1;" fill="#FEFFDD"/><text x="496.78" y="1521.364" fill="#000" font-size="13" textLength="141.292">Public security group:</text><text x="496.78" y="1536.497" fill="#000" font-size="13" textLength="140.518">80/443 from Internet.</text><text x="496.78" y="1551.629" fill="#000" font-size="13" textLength="206.546">SSH 22 only during deployment</text><text x="496.78" y="1566.762" fill="#000" font-size="13" textLength="188.417">and restricted to operator IP.</text></g><g class="entity" data-qualified-name="GMN51" id="ent0052" data-source-line="81"><path d="M983.32,43.297 L983.32,113.828 L1321.017,113.828 L1321.017,53.297 L1311.017,43.297 L983.32,43.297" style="stroke:#181818;stroke-width:0.5;" fill="#FEFFDD"/><path d="M1311.017,43.297 L1311.017,53.297 L1321.017,53.297 L1311.017,43.297" style="stroke:#181818;stroke-width:1;" fill="#FEFFDD"/><text x="989.32" y="60.364" fill="#000" font-size="13" textLength="288.863">The three Node EC2 instances use the same</text><text x="989.32" y="75.497" fill="#000" font-size="13" textLength="316.697">deployable Express application. Nginx separates</text><text x="989.32" y="90.629" fill="#000" font-size="13" textLength="281.315">route groups for staging; this is not a claim</text><text x="989.32" y="105.762" fill="#000" font-size="13" textLength="252.205">of independently coded microservices.</text></g><g class="entity" data-qualified-name="GMN54" id="ent0055" data-source-line="88"><path d="M1603.02,73.437 L1603.02,113.703 A0,0 0 0 0 1603.02,113.703 L1740.11,113.703 L1744.11,260.137 L1748.11,113.703 L1885.188,113.703 A0,0 0 0 0 1885.188,113.703 L1885.188,83.437 L1875.188,73.437 L1603.02,73.437 A0,0 0 0 0 1603.02,73.437" style="stroke:#181818;stroke-width:0.5;" fill="#FEFFDD"/><path d="M1875.188,73.437 L1875.188,83.437 L1885.188,83.437 L1875.188,73.437" style="stroke:#181818;stroke-width:0.5;" fill="#FEFFDD"/><text x="1609.02" y="90.504" fill="#000" font-size="13" textLength="261.168">RDS accepts 5432 only from application</text><text x="1609.02" y="105.637" fill="#000" font-size="13" textLength="221.349">security groups. It is never public.</text></g><!--link User to Nginx--><g class="link" data-entity-1="ent0001" data-entity-2="ent0010" id="lnk26" data-source-line="48" data-link-type="dependency"><path d="M114.76,527.567 C189.12,527.567 368.99,527.567 488.86,527.567" style="stroke:#9A8700;stroke-width:1;" fill="none" id="User-to-Nginx"/><polygon points="493.86,527.567,484.86,523.567,488.86,527.567,484.86,531.567,493.86,527.567" fill="#9A8700" style="stroke:#9A8700;stroke-width:1;stroke-linejoin:miter;stroke-miterlimit:10;"/><text x="245.29" y="523.634" fill="#000" font-size="13" textLength="70.694">HTTPS 443</text></g><!--link Nginx to Static--><g class="link" data-entity-1="ent0010" data-entity-2="ent0009" id="lnk27" data-source-line="49" data-link-type="dependency"><path d="M714.98,528.167 C815.78,528.717 958.68,529.51 1053.7,530.03" style="stroke:#9A8700;stroke-width:1;" fill="none" id="Nginx-to-Static"/><polygon points="1058.7,530.057,1049.722,526.008,1053.7,530.03,1049.678,534.008,1058.7,530.057" fill="#9A8700" style="stroke:#9A8700;stroke-width:1;stroke-linejoin:miter;stroke-miterlimit:10;"/><text x="749.32" y="524.634" fill="#000" font-size="13" textLength="203.36">landing/login/dashboard/assets</text></g><!--link Nginx to AuthApp--><g class="link" data-entity-1="ent0010" data-entity-2="ent0016" id="lnk28" data-source-line="50" data-link-type="dependency"><path d="M715.11,561.807 C716.23,563.017 717.3,564.267 718.32,565.567 C763.3,622.467 711.82,827.887 748.32,890.567 C820.49,1014.487 972.097,1089.051 1067.397,1125.961" style="stroke:#9A8700;stroke-width:1;" fill="none" id="Nginx-to-AuthApp"/><polygon points="1072.06,1127.767,1065.112,1120.786,1067.397,1125.961,1062.223,1128.246,1072.06,1127.767" fill="#9A8700" style="stroke:#9A8700;stroke-width:1;stroke-linejoin:miter;stroke-miterlimit:10;"/><text x="806.32" y="871.634" fill="#000" font-size="13" textLength="89.356">/api/v1/auth/*</text><text x="807.218" y="886.767" fill="#000" font-size="13" textLength="87.56">private :3001</text></g><!--link Nginx to ReportsApp--><g class="link" data-entity-1="ent0010" data-entity-2="ent0019" id="lnk29" data-source-line="51" data-link-type="dependency"><path d="M714.92,561.967 C716.1,563.127 717.23,564.327 718.32,565.567 C762.98,616.247 710.59,658.537 748.32,714.567 C815.87,814.857 873.05,800.017 975.29,864.567 C1019.15,892.257 1065.667,920.17 1101.367,941.3" style="stroke:#9A8700;stroke-width:1;" fill="none" id="Nginx-to-ReportsApp"/><polygon points="1105.67,943.847,1099.962,935.821,1101.367,941.3,1095.888,942.705,1105.67,943.847" fill="#9A8700" style="stroke:#9A8700;stroke-width:1;stroke-linejoin:miter;stroke-miterlimit:10;"/><text x="797.82" y="695.634" fill="#000" font-size="13" textLength="106.577">/api/v1/reports/*</text><text x="807.329" y="710.767" fill="#000" font-size="13" textLength="87.56">private :3002</text></g><!--link Nginx to CoreApp--><g class="link" data-entity-1="ent0010" data-entity-2="ent0013" id="lnk30" data-source-line="52" data-link-type="dependency"><path d="M715.18,561.757 C716.27,562.977 717.32,564.247 718.32,565.567 C791.64,661.917 684.58,1006.637 748.32,1109.567 C822.13,1228.747 977.307,1290.353 1071.957,1318.463" style="stroke:#9A8700;stroke-width:1;" fill="none" id="Nginx-to-CoreApp"/><polygon points="1076.75,1319.887,1069.261,1313.49,1071.957,1318.463,1066.984,1321.159,1076.75,1319.887" fill="#9A8700" style="stroke:#9A8700;stroke-width:1;stroke-linejoin:miter;stroke-miterlimit:10;"/><text x="788.32" y="1090.634" fill="#000" font-size="13" textLength="125.493">remaining /api/v1/*</text><text x="807.287" y="1105.767" fill="#000" font-size="13" textLength="87.56">private :3000</text></g><!--link Nginx to AnalyticsApp--><g class="link" data-entity-1="ent0010" data-entity-2="ent0022" id="lnk31" data-source-line="53" data-link-type="dependency"><path d="M710.79,562.467 C713.33,563.487 715.85,564.527 718.32,565.567 C863.16,626.547 1022.005,713.321 1100.185,757.411" style="stroke:#9A8700;stroke-width:1;" fill="none" id="Nginx-to-AnalyticsApp"/><polygon points="1104.54,759.867,1098.666,751.962,1100.185,757.411,1094.736,758.93,1104.54,759.867" fill="#9A8700" style="stroke:#9A8700;stroke-width:1;stroke-linejoin:miter;stroke-miterlimit:10;"/><text x="792.32" y="562.634" fill="#000" font-size="13" textLength="117.92">/api/analytics/v1/*</text><text x="807.5" y="577.767" fill="#000" font-size="13" textLength="87.56">private :8000</text></g><!--link CoreApp to RDS--><g class="link" data-entity-1="ent0013" data-entity-2="ent0024" id="lnk32" data-source-line="55" data-link-type="dependency"><path d="M1212.49,1311.947 C1247.71,1293.717 1291.19,1266.677 1321.02,1232.567 C1574.41,942.837 1699.929,480.728 1732.989,343.518" style="stroke:#9A8700;stroke-width:1;" fill="none" id="CoreApp-to-RDS"/><polygon points="1734.16,338.657,1728.163,346.47,1732.989,343.518,1735.941,348.343,1734.16,338.657" fill="#9A8700" style="stroke:#9A8700;stroke-width:1;stroke-linejoin:miter;stroke-miterlimit:10;"/><text x="1392.52" y="826.634" fill="#000" font-size="13" textLength="139.769">TLS PostgreSQL 5432</text></g><!--link AuthApp to RDS--><g class="link" data-entity-1="ent0016" data-entity-2="ent0024" id="lnk33" data-source-line="56" data-link-type="dependency"><path d="M1224.3,1127.867 C1259.55,1110.767 1299.15,1084.877 1321.02,1048.567 C1365.98,973.917 1302.14,729.707 1351.02,657.567 C1412.67,566.567 1489.95,620.547 1573.02,548.567 C1643.05,487.887 1695.294,396.549 1722.264,343.199" style="stroke:#9A8700;stroke-width:1;" fill="none" id="AuthApp-to-RDS"/><polygon points="1724.52,338.737,1716.89,344.964,1722.264,343.199,1724.029,348.574,1724.52,338.737" fill="#9A8700" style="stroke:#9A8700;stroke-width:1;stroke-linejoin:miter;stroke-miterlimit:10;"/><text x="1392.52" y="544.634" fill="#000" font-size="13" textLength="139.769">TLS PostgreSQL 5432</text></g><!--link ReportsApp to RDS--><g class="link" data-entity-1="ent0019" data-entity-2="ent0024" id="lnk34" data-source-line="57" data-link-type="dependency"><path d="M1223.71,943.977 C1259.02,926.857 1298.86,900.907 1321.02,864.567 C1360.63,799.617 1303.51,582.977 1351.02,523.567 C1415.71,442.657 1483.18,504.137 1573.02,452.567 C1625.9,422.217 1673.098,376.912 1705.158,342.562" style="stroke:#9A8700;stroke-width:1;" fill="none" id="ReportsApp-to-RDS"/><polygon points="1708.57,338.907,1699.505,342.757,1705.158,342.562,1705.353,348.216,1708.57,338.907" fill="#9A8700" style="stroke:#9A8700;stroke-width:1;stroke-linejoin:miter;stroke-miterlimit:10;"/><text x="1392.52" y="448.634" fill="#000" font-size="13" textLength="139.769">TLS PostgreSQL 5432</text></g><!--link AnalyticsApp to RDS--><g class="link" data-entity-1="ent0022" data-entity-2="ent0024" id="lnk35" data-source-line="58" data-link-type="dependency"><path d="M1181.95,759.837 C1220.02,722.727 1286.36,651.777 1321.02,577.567 C1349.8,515.967 1305.87,478.397 1351.02,427.567 C1389.78,383.937 1533.264,345.083 1635.934,321.803" style="stroke:#9A8700;stroke-width:1;" fill="none" id="AnalyticsApp-to-RDS"/><polygon points="1640.81,320.697,1631.148,318.786,1635.934,321.803,1632.917,326.588,1640.81,320.697" fill="#9A8700" style="stroke:#9A8700;stroke-width:1;stroke-linejoin:miter;stroke-miterlimit:10;"/><text x="1369.02" y="334.634" fill="#000" font-size="13" textLength="186.297">scoped analytics reads 5432</text></g><!--link Migrations to RDS--><g class="link" data-entity-1="ent0025" data-entity-2="ent0024" id="lnk36" data-source-line="59" data-link-type="dependency"><path d="M1235.51,299.567 C1341.58,299.567 1520.93,299.567 1635.86,299.567" style="stroke:#9A8700;stroke-width:1;" fill="none" id="Migrations-to-RDS"/><polygon points="1640.86,299.567,1631.86,295.567,1635.86,299.567,1631.86,303.567,1640.86,299.567" fill="#9A8700" style="stroke:#9A8700;stroke-width:1;stroke-linejoin:miter;stroke-miterlimit:10;"/><text x="1388.52" y="295.634" fill="#000" font-size="13" textLength="147.101">controlled deployment</text></g><!--link AuthApp to Google--><g class="link" data-entity-1="ent0016" data-entity-2="ent0003" id="lnk37" data-source-line="60" data-link-type="dependency"><path d="M1253.78,1151.727 C1279,1156.087 1303.76,1165.647 1321.02,1184.567 C1373.78,1242.397 1293.36,1482.617 1351.02,1535.567 C1396.65,1577.457 1570.617,1560.469 1670.247,1546.749" style="stroke:#9A8700;stroke-width:1;" fill="none" id="AuthApp-to-Google"/><polygon points="1675.2,1546.067,1665.738,1543.332,1670.247,1546.749,1666.83,1551.257,1675.2,1546.067" fill="#9A8700" style="stroke:#9A8700;stroke-width:1;stroke-linejoin:miter;stroke-miterlimit:10;"/><text x="1414.52" y="1531.634" fill="#000" font-size="13" textLength="95.843">verify ID token</text></g><!--link Static to Google--><g class="link" data-entity-1="ent0009" data-entity-2="ent0003" id="lnk38" data-source-line="61" data-link-type="dependency"><path d="M1185,558.667 C1225.16,596.357 1292.42,667.547 1321.02,744.567 C1346.3,812.657 1307.7,1339.267 1351.02,1397.567 C1390.41,1450.557 1568.963,1497.205 1670.373,1520.125" style="stroke:#9A8700;stroke-width:1;" fill="none" id="Static-to-Google"/><polygon points="1675.25,1521.227,1667.353,1515.341,1670.373,1520.125,1665.59,1523.144,1675.25,1521.227" fill="#9A8700" style="stroke:#9A8700;stroke-width:1;stroke-linejoin:miter;stroke-miterlimit:10;"/><text x="1352.02" y="1393.634" fill="#000" font-size="13" textLength="220.81">Maps / Identity browser resources</text></g><!--link CoreApp to CoreMail--><g class="link" data-entity-1="ent0013" data-entity-2="ent0014" id="lnk39" data-source-line="62" data-link-type="dependency"><path d="M1227.89,1338.567 C1336.4,1338.567 1532.32,1338.567 1648.6,1338.567" style="stroke:#9A8700;stroke-width:1;" fill="none" id="CoreApp-to-CoreMail"/><polygon points="1653.6,1338.567,1644.6,1334.567,1648.6,1338.567,1644.6,1342.567,1653.6,1338.567" fill="#9A8700" style="stroke:#9A8700;stroke-width:1;stroke-linejoin:miter;stroke-miterlimit:10;"/><text x="1385.52" y="1334.634" fill="#000" font-size="13" textLength="153.429">staging invitation email</text></g><!--link AuthApp to AuthMail--><g class="link" data-entity-1="ent0016" data-entity-2="ent0017" id="lnk40" data-source-line="63" data-link-type="dependency"><path d="M1253.92,1154.567 C1378.15,1154.567 1580.12,1154.567 1680.29,1154.567" style="stroke:#9A8700;stroke-width:1;" fill="none" id="AuthApp-to-AuthMail"/><polygon points="1685.29,1154.567,1676.29,1150.567,1680.29,1154.567,1676.29,1158.567,1685.29,1154.567" fill="#9A8700" style="stroke:#9A8700;stroke-width:1;stroke-linejoin:miter;stroke-miterlimit:10;"/></g><!--link ReportsApp to ReportsMail--><g class="link" data-entity-1="ent0019" data-entity-2="ent0020" id="lnk41" data-source-line="64" data-link-type="dependency"><path d="M1253.92,970.567 C1378.15,970.567 1580.12,970.567 1680.29,970.567" style="stroke:#9A8700;stroke-width:1;" fill="none" id="ReportsApp-to-ReportsMail"/><polygon points="1685.29,970.567,1676.29,966.567,1680.29,970.567,1676.29,974.567,1685.29,970.567" fill="#9A8700" style="stroke:#9A8700;stroke-width:1;stroke-linejoin:miter;stroke-miterlimit:10;"/></g><!--link CoreApp to ExternalSMTP--><g class="link" data-entity-1="ent0013" data-entity-2="ent0004" id="lnk42" data-source-line="65" data-link-type="dependency"><path d="M1227.57,1333.397 C1260.6,1335.257 1297.29,1343.747 1321.02,1368.567 C1391.04,1441.807 1277.41,1524.937 1351.02,1594.567 C1428.14,1667.517 1551.309,1663.733 1639.999,1648.883" style="stroke:#9A8700;stroke-width:1;stroke-dasharray:7,7;" fill="none" id="CoreApp-to-ExternalSMTP"/><polygon points="1644.93,1648.057,1635.393,1645.598,1639.999,1648.883,1636.714,1653.488,1644.93,1648.057" fill="#9A8700" style="stroke:#9A8700;stroke-width:1;stroke-linejoin:miter;stroke-miterlimit:10;"/><text x="1384.02" y="1590.634" fill="#000" font-size="13" textLength="156.54">production replacement</text></g><!--link Operator to Frontend--><g class="link" data-entity-1="ent0002" data-entity-2="ent0008" id="lnk43" data-source-line="67" data-link-type="dependency"><path d="M100.1,1675.147 C145.58,1577.797 269.84,1311.834 383.523,1068.513 C440.364,946.853 494.561,830.852 534.943,744.419 C555.135,701.202 571.873,665.377 583.761,639.933 C589.705,627.21 594.437,617.083 597.781,609.924 C598.199,609.029 598.596,608.181 598.97,607.379 C599.157,606.979 597.223,611.12 597.399,610.743" style="stroke:#9A8700;stroke-width:1;" fill="none" id="Operator-to-Frontend"/><polygon points="599.515,606.213,592.082,612.674,597.399,610.743,599.33,616.06,599.515,606.213" fill="#9A8700" style="stroke:#9A8700;stroke-width:1;stroke-linejoin:miter;stroke-miterlimit:10;"/><text x="187.29" y="1085.634" fill="#000" font-size="13" textLength="186.196">temporary restricted SSH 22</text></g><!--link Operator to Core--><g class="link" data-entity-1="ent0002" data-entity-2="ent0012" id="lnk44" data-source-line="68" data-link-type="dependency"><path d="M107.32,1751.957 C126.03,1777.257 153.85,1808.887 186.29,1826.567 C485.64,1989.687 679.86,2030.107 953.32,1826.567 C1036.4,1764.732 1085.743,1659.407 1114.375,1568.959 C1128.691,1523.736 1137.83,1482.231 1143.42,1451.742 C1146.215,1436.498 1148.122,1424.007 1149.346,1415.182 C1149.652,1412.976 1149.915,1410.999 1150.139,1409.265 C1150.167,1409.048 1149.56,1413.795 1149.587,1413.586" style="stroke:#9A8700;stroke-width:1;" fill="none" id="Operator-to-Core"/><polygon points="1150.221,1408.626,1145.112,1417.046,1149.587,1413.586,1153.047,1418.061,1150.221,1408.626" fill="#9A8700" style="stroke:#9A8700;stroke-width:1;stroke-linejoin:miter;stroke-miterlimit:10;"/><text x="511.55" y="1917.634" fill="#000" font-size="13" textLength="186.196">temporary restricted SSH 22</text></g><!--link Operator to AuthNode--><g class="link" data-entity-1="ent0002" data-entity-2="ent0015" id="lnk45" data-source-line="69" data-link-type="dependency"><path d="M156.52,1747.527 C327.27,1819.837 748.37,1964.787 953.32,1739.567 C986.49,1703.117 947.59,1337.327 975.29,1296.567 C999.04,1261.602 1042.018,1241.674 1079.543,1230.453 C1084.233,1229.05 1088.839,1227.784 1093.311,1226.641 C1095.547,1226.069 1097.749,1225.529 1099.913,1225.018 C1100.453,1224.89 1096.121,1225.893 1096.657,1225.768" style="stroke:#9A8700;stroke-width:1;" fill="none" id="Operator-to-AuthNode"/><polygon points="1101.528,1224.64,1091.857,1222.775,1096.657,1225.768,1093.663,1230.568,1101.528,1224.64" fill="#9A8700" style="stroke:#9A8700;stroke-width:1;stroke-linejoin:miter;stroke-miterlimit:10;"/><text x="511.55" y="1820.634" fill="#000" font-size="13" textLength="186.196">temporary restricted SSH 22</text></g><!--link Operator to ReportsNode--><g class="link" data-entity-1="ent0002" data-entity-2="ent0018" id="lnk46" data-source-line="70" data-link-type="dependency"><path d="M156.55,1720.737 C347.75,1737.327 848.67,1768.597 953.32,1652.567 C993.54,1607.977 941.77,1162.387 975.29,1112.567 C998.885,1077.497 1041.86,1057.569 1079.423,1046.374 C1084.118,1044.975 1088.729,1043.712 1093.206,1042.573 C1095.445,1042.004 1097.651,1041.465 1099.817,1040.956 C1100.359,1040.829 1096.025,1041.826 1096.562,1041.702" style="stroke:#9A8700;stroke-width:1;" fill="none" id="Operator-to-ReportsNode"/><polygon points="1101.434,1040.58,1091.766,1038.702,1096.562,1041.702,1093.562,1046.498,1101.434,1040.58" fill="#9A8700" style="stroke:#9A8700;stroke-width:1;stroke-linejoin:miter;stroke-miterlimit:10;"/><text x="511.55" y="1724.634" fill="#000" font-size="13" textLength="186.196">temporary restricted SSH 22</text></g><!--link Operator to AnalyticsNode--><g class="link" data-entity-1="ent0002" data-entity-2="ent0021" id="lnk47" data-source-line="71" data-link-type="dependency"><path d="M156.58,1704.667 C314.21,1685.337 671.15,1638.947 718.32,1609.567 C871.16,1514.377 893.17,1449.277 953.32,1279.567 C979.44,1205.907 930.95,992.927 975.29,928.567 C999.265,893.757 1042.248,873.832 1079.719,862.573 C1084.403,861.166 1089,859.894 1093.464,858.745 C1095.696,858.171 1097.895,857.627 1100.053,857.113 C1100.593,856.985 1096.262,857.995 1096.796,857.87" style="stroke:#9A8700;stroke-width:1;" fill="none" id="Operator-to-AnalyticsNode"/><polygon points="1101.665,856.733,1091.991,854.885,1096.796,857.87,1093.811,862.675,1101.665,856.733" fill="#9A8700" style="stroke:#9A8700;stroke-width:1;stroke-linejoin:miter;stroke-miterlimit:10;"/><text x="511.55" y="1605.634" fill="#000" font-size="13" textLength="186.196">temporary restricted SSH 22</text></g><!--link GMN48 to Frontend--><g class="link" data-entity-1="ent0049" data-entity-2="ent0008" id="lnk50" data-source-line="74" data-link-type="association"><path d="M604.55,1504.147 C604.55,1353.127 604.55,1202.104 604.55,1051.081 C604.55,975.569 604.55,900.057 604.55,824.544 C604.55,786.788 604.55,749.032 604.55,711.276 C604.55,692.397 604.55,673.519 604.55,654.641 C604.55,645.202 604.55,635.763 604.55,626.324 C604.55,621.605 604.55,616.885 604.55,612.165 C604.55,610.986 604.55,609.806 604.55,608.626" style="stroke:#9A8700;stroke-width:1;stroke-dasharray:7,7;" fill="none" id="GMN48-Frontend"/></g><!--link Core to GMN51--><g class="link" data-entity-1="ent0012" data-entity-2="ent0052" id="lnk53" data-source-line="81" data-link-type="association"><path d="M1119.812,1408.616 C1119.496,1408.684 1119.178,1408.752 1118.858,1408.82 C1116.296,1409.366 1113.613,1409.919 1110.818,1410.474 C1088.458,1414.914 1058.929,1419.442 1027.076,1420.734 C963.37,1423.319 890.365,1412.962 846.81,1363.067 C685.9,1178.757 726.33,475.017 846.81,262.067 C887.85,189.527 970.29,142.507 1039.17,114.247" style="stroke:#9A8700;stroke-width:1;stroke-dasharray:7,7;" fill="none" id="Core-GMN51"/></g><g class="legend" data-source-line="92"><rect x="1542.431" y="2051.107" width="402.109" height="58.891" fill="none" style="stroke:#000;stroke-width:1;" rx="7.5" ry="7.5"/><text x="1547.431" y="2069.102" fill="#000" font-size="14" textLength="392.109">Current public IPv4 addresses are intentionally omitted.</text><text x="1547.431" y="2085.399" fill="#000" font-size="14" textLength="360.657">They are ephemeral and documented separately in</text><text x="1547.431" y="2101.696" fill="#000" font-size="14" textLength="334.106">03Documentation/aws-current-deployment.md.</text></g><?plantuml-src bLRRRXit47tVhnYeRorMAyiEugf00C6NHa2SgbuxUT4BjKj9HBZaWkJALeFyUm-vLxcsKyE6BP5pENDcE3DEECbfNd0ZCgRe4tD2qOLarb9CywyffOvjXThI9I-bFXHSkKZoZIEdoOZjpb4k3C-Sq2gotuGgcM45hLdsRMjqfV8BBRMXNwxd-7a_aB0xbki7RtZ3fEM3cqmNfLRmaxe3e7dZJ6tbKAI4URRbBmlCZT4FZUlVv-Vl9vCeOfd3rz5NlgRASZCYPkaU7zgBFa3I9JSCXq7ch-PBb4bTvJJwKsiueqKEIU4EAyLKJZUij46wlcrbhojN6KwbqNaLEABqvcuP1AyU7JUAINyGHKhdd4QUxrk-zNALZJcpBfwEw7j4LDz_MLxKNuas21CdosejHKOyt_BsfXM-Dbev3cnN5zELkbzNobNq6tr6DXy3WawWrIDYneaD-A3HBSU_v8jmdAn3KMIqheJCLohPCvCyF3maJ6RnfZ4HxAL1hhFLvP56mUTAdKye_a1dPwShTVSf1PQFwPt_P_YU6njeUZm4Kq6XiVGZglyEmvwN9S9cWL6X051bt3ubu4A3-i_-8nW8PiF9z-SGBc-cv0DYfOWpIAtKrMDfE5u1AqkQdKucayu2d3zdueO9MGeNCaopaydq7LXVqEmSdqXgNVf7GLh9GsV9gnn5sKAVLsvt3DsVX8EVmcUGNAdKyzJ6458NeZZfZBqUnKhz5x7NUX7nBI-rSVOOT7Fu_t2RMlX5w4Sctuw-KNoPShp50-hNzfIt9o_ZjmVhU9676Cg3ssaLirPhfQxnWEVBHNA_5wWfvKkXAQFET1_7SsM-D6BFy09pvXWvuPjM2yCVhPdrm0ls3vx1xMLAIstTrl3qxq_eIarBZwLlwN4MMlhitTafca7Ps6LPvZdkERfCewUDu4PiJNXebb0-yUG4hnUuRC78PZjUiA3PIqLjC3yY1ECRBCLuzU55qum-tjqjKzy3elh4tzMD0vSIhHGZ8P4QTqdEx6wjcSaJGEVE3ZIQ0ePAWj99zYU9h_harpwqKEm3ZRvk1afDoJtLcmxqcWSF9ODOXV8JgrL_eZOP0Xmak7NOLSPJNLyMKTHw2cYHp1dv9jcdb7pkeZRorwK6qVx4t11dBsepZ42KTVSc36UvhLK61T4hP9W3Hai9fRnV58PWcx4v8_HwiJdGuX8hn3UkeYRxHp9-d5BIpLXQOvpxIa9Bq9L1qHwnrRPI3xpPLeJQ2rVF1vysUGIbQsHFQHgqYDR-UFpXQ5J3ns2Qeu0aotW8DceNXM2h6wupGeU0NMOE7hx3etHWAKq_qdHwh1F6qnlakvdm1frXItwBgwDU-BeYbXbKjTCbwKt7GzHiAfPdbV4fzUjXEOlE9mcQ0HgUBcYXFC_SZQFQKcXCb4CU6HsKbL-u1cwnYROB6osMuyYpxY4qGDRQEHW75izlTBS3jftX_MhGRn1-CSGbLXvqpwZsoDQodqQitpl6JKkptA-S3YM9WE0kn6Lf0p1DCVu1ay8IVe676A4LYo827g7W0cWH4-BC02UdGcH6ezGnChXz9HRVgltJyosyTFNJhFaAL0w0HiUKsp4jN03ZjougGrg6ZYJV-YzXkKSRlwYCyREk5WJ1-pDYUUxf064C5IjyWhqd9k5U5y8XAsEeWkf3aE0b1WKo9CcdBjTPvVE8Q5loe2SKD2QdbyrbW9wm1njdDO2uBu1naGV0DT9_0G00?></g></svg>