<svg xmlns="http://www.w3.org/2000/svg" xmlns:xlink="http://www.w3.org/1999/xlink" version="1.1" data-diagram-type="STATE" style="width:1385px;height:687px;background:#FAFAF7;" width="1385px" height="687px" viewBox="0 0 1385 687" zoomAndPan="magnify" preserveAspectRatio="none" contentStyleType="text/css"><?plantuml 1.2026.7beta8?><defs/><g font-family="sans-serif" lengthAdjust="spacing"><rect x="0" y="0" width="1385" height="687" fill="#FAFAF7" style="stroke:none;"/><g class="title" data-source-line="1"><text x="531.702" y="22.995" fill="#000" font-size="14" textLength="315" font-weight="700">Class Group Enrollment - State Diagram</text></g><g class="start_entity" data-qualified-name=".start." id="ent0001" data-source-line="6"><ellipse cx="948.03" cy="53.297" rx="10" ry="10" fill="#222" style="stroke:#222;stroke-width:1;"/></g><g class="entity" data-qualified-name="trial" id="ent0002" data-source-line="6"><rect x="351.03" y="140.297" width="50" height="50" fill="#F1F1F1" style="stroke:#181818;stroke-width:0.5;" rx="12.5" ry="12.5"/><line x1="351.03" y1="166.594" x2="401.03" y2="166.594" style="stroke:#181818;stroke-width:0.5;"/><text x="362.228" y="158.292" fill="#000" font-size="14" textLength="27.604">trial</text></g><g class="entity" data-qualified-name="active" id="ent0004" data-source-line="7"><rect x="690.75" y="267.297" width="62.554" height="50" fill="#F1F1F1" style="stroke:#181818;stroke-width:0.5;" rx="12.5" ry="12.5"/><line x1="690.75" y1="293.594" x2="753.304" y2="293.594" style="stroke:#181818;stroke-width:0.5;"/><text x="700.75" y="285.292" fill="#000" font-size="14" textLength="42.554">active</text></g><g class="entity" data-qualified-name="waitlisted" id="ent0006" data-source-line="8"><rect x="904.29" y="140.297" width="87.471" height="50" fill="#F1F1F1" style="stroke:#181818;stroke-width:0.5;" rx="12.5" ry="12.5"/><line x1="904.29" y1="166.594" x2="991.761" y2="166.594" style="stroke:#181818;stroke-width:0.5;"/><text x="914.29" y="158.292" fill="#000" font-size="14" textLength="67.471">waitlisted</text></g><g class="entity" data-qualified-name="withdrawn" id="ent0009" data-source-line="11"><rect x="636.4" y="521.297" width="93.247" height="50" fill="#F1F1F1" style="stroke:#181818;stroke-width:0.5;" rx="12.5" ry="12.5"/><line x1="636.4" y1="547.594" x2="729.647" y2="547.594" style="stroke:#181818;stroke-width:0.5;"/><text x="646.4" y="539.292" fill="#000" font-size="14" textLength="73.247">withdrawn</text></g><g class="entity" data-qualified-name="completed" id="ent0011" data-source-line="12"><rect x="320.89" y="521.297" width="94.279" height="50" fill="#F1F1F1" style="stroke:#181818;stroke-width:0.5;" rx="12.5" ry="12.5"/><line x1="320.89" y1="547.594" x2="415.169" y2="547.594" style="stroke:#181818;stroke-width:0.5;"/><text x="330.89" y="539.292" fill="#000" font-size="14" textLength="74.279">completed</text></g><g class="entity" data-qualified-name="frozen" id="ent0015" data-source-line="15"><rect x="635.98" y="394.297" width="64.085" height="50" fill="#F1F1F1" style="stroke:#181818;stroke-width:0.5;" rx="12.5" ry="12.5"/><line x1="635.98" y1="420.594" x2="700.065" y2="420.594" style="stroke:#181818;stroke-width:0.5;"/><text x="645.98" y="412.292" fill="#000" font-size="14" textLength="44.085">frozen</text></g><g class="end_entity" data-qualified-name=".end." id="ent0022" data-source-line="22"><ellipse cx="532.03" cy="652.437" rx="11" ry="11" fill="none" style="stroke:#222;stroke-width:1;"/><ellipse cx="532.03" cy="652.437" rx="6" ry="6" fill="#222" style="stroke:#222;stroke-width:1;"/></g><g class="entity" data-qualified-name="GMN25" id="ent0026" data-source-line="26"><path d="M787.92,272.167 L787.92,288.297 L753.5,292.297 L787.92,296.297 L787.92,312.433 A0,0 0 0 0 787.92,312.433 L1080.143,312.433 A0,0 0 0 0 1080.143,312.433 L1080.143,282.167 L1070.143,272.167 L787.92,272.167 A0,0 0 0 0 787.92,272.167" style="stroke:#181818;stroke-width:0.5;" fill="#FEFFDD"/><path d="M1070.143,272.167 L1070.143,282.167 L1080.143,282.167 L1070.143,272.167" style="stroke:#181818;stroke-width:0.5;" fill="#FEFFDD"/><text x="793.92" y="289.234" fill="#000" font-size="13" textLength="227.195">Counts against group capacity and</text><text x="793.92" y="304.367" fill="#000" font-size="13" textLength="271.223">covers sessions between startsAt/endsAt.</text></g><g class="entity" data-qualified-name="GMN28" id="ent0029" data-source-line="31"><path d="M577.83,639.867 L577.83,665 A0,0 0 0 0 577.83,665 L836.22,665 A0,0 0 0 0 836.22,665 L836.22,649.867 L826.22,639.867 L708.26,639.867 L688.65,571.717 L700.26,639.867 L577.83,639.867 A0,0 0 0 0 577.83,639.867" style="stroke:#181818;stroke-width:0.5;" fill="#FEFFDD"/><path d="M826.22,639.867 L826.22,649.867 L836.22,649.867 L826.22,639.867" style="stroke:#181818;stroke-width:0.5;" fill="#FEFFDD"/><text x="583.83" y="656.934" fill="#000" font-size="13" textLength="237.39">Terminal state. History is preserved.</text></g><g class="entity" data-qualified-name="GMN31" id="ent0032" data-source-line="35"><path d="M223.58,632.297 L223.58,672.563 A0,0 0 0 0 223.58,672.563 L486.476,672.563 A0,0 0 0 0 486.476,672.563 L486.476,642.297 L476.476,632.297 L361.45,632.297 L364.98,571.717 L353.45,632.297 L223.58,632.297 A0,0 0 0 0 223.58,632.297" style="stroke:#181818;stroke-width:0.5;" fill="#FEFFDD"/><path d="M476.476,632.297 L476.476,642.297 L486.476,642.297 L476.476,632.297" style="stroke:#181818;stroke-width:0.5;" fill="#FEFFDD"/><text x="229.58" y="649.364" fill="#000" font-size="13" textLength="241.896">Terminal state indicating the student</text><text x="229.58" y="664.497" fill="#000" font-size="13" textLength="223.006">finished the class/program period.</text></g><g class="entity" data-qualified-name="GMN34" id="ent0035" data-source-line="40"><path d="M6,145.167 L6,185.433 A0,0 0 0 0 6,185.433 L316.053,185.433 A0,0 0 0 0 316.053,185.433 L316.053,169.297 L350.87,165.297 L316.053,161.297 L316.053,155.167 L306.053,145.167 L6,145.167 A0,0 0 0 0 6,145.167" style="stroke:#181818;stroke-width:0.5;" fill="#FEFFDD"/><path d="M306.053,145.167 L306.053,155.167 L316.053,155.167 L306.053,145.167" style="stroke:#181818;stroke-width:0.5;" fill="#FEFFDD"/><text x="12" y="162.234" fill="#000" font-size="13" textLength="289.053">Hard delete is allowed only for an erroneous</text><text x="12" y="177.367" fill="#000" font-size="13" textLength="253.906">enrollment with no attendance history.</text></g><!--link *start* to trial--><g class="link" data-entity-1="ent0001" data-entity-2="ent0002" id="lnk3" data-source-line="6" data-link-type="dependency"><path d="M938.1,56.207 C872.6,68.807 507.03,139.113 406.25,158.493" style="stroke:#9A8700;stroke-width:1;" fill="none" id="*start*-to-trial"/><polygon points="401.34,159.437,410.933,161.665,406.25,158.493,409.423,153.809,401.34,159.437" fill="#9A8700" style="stroke:#9A8700;stroke-width:1;stroke-linejoin:miter;stroke-miterlimit:10;"/><text x="732.03" y="106.364" fill="#000" font-size="13" textLength="100.521">trial enrollment</text></g><!--link *start* to active--><g class="link" data-entity-1="ent0001" data-entity-2="ent0004" id="lnk5" data-source-line="7" data-link-type="dependency"><path d="M958.12,55.387 C988.62,58.887 1078.83,70.987 1096.03,93.297 C1137.11,146.607 1263.8,81.237 1012.03,237.297 C919.91,294.397 873.77,235.947 770.03,267.297 C764.59,268.947 763.559,269.093 758.229,271.523" style="stroke:#9A8700;stroke-width:1;" fill="none" id="*start*-to-active"/><polygon points="753.68,273.597,763.528,273.503,758.229,271.523,760.21,266.224,753.68,273.597" fill="#9A8700" style="stroke:#9A8700;stroke-width:1;stroke-linejoin:miter;stroke-miterlimit:10;"/><text x="1157.03" y="169.864" fill="#000" font-size="13" textLength="212.374">regular enrollment with capacity</text></g><!--link *start* to waitlisted--><g class="link" data-entity-1="ent0001" data-entity-2="ent0006" id="lnk7" data-source-line="8" data-link-type="dependency"><path d="M948.03,63.677 C948.03,80.407 948.03,110.897 948.03,134.927" style="stroke:#9A8700;stroke-width:1;" fill="none" id="*start*-to-waitlisted"/><polygon points="948.03,139.927,952.03,130.927,948.03,134.927,944.03,130.927,948.03,139.927" fill="#9A8700" style="stroke:#9A8700;stroke-width:1;stroke-linejoin:miter;stroke-miterlimit:10;"/><text x="949.03" y="106.364" fill="#000" font-size="13" textLength="138.017">no available capacity</text></g><!--link trial to active--><g class="link" data-entity-1="ent0002" data-entity-2="ent0004" id="lnk8" data-source-line="10" data-link-type="dependency"><path d="M401.29,177.287 C435.09,191.817 497.04,217.857 551.03,237.297 C599.06,254.597 650.935,270.48 685.465,280.68" style="stroke:#9A8700;stroke-width:1;" fill="none" id="trial-to-active"/><polygon points="690.26,282.097,682.762,275.711,685.465,280.68,680.496,283.383,690.26,282.097" fill="#9A8700" style="stroke:#9A8700;stroke-width:1;stroke-linejoin:miter;stroke-miterlimit:10;"/><text x="552.03" y="233.364" fill="#000" font-size="13" textLength="261.536">confirms enrollment / capacity available</text></g><!--link trial to withdrawn--><g class="link" data-entity-1="ent0002" data-entity-2="ent0009" id="lnk10" data-source-line="11" data-link-type="dependency"><path d="M370.63,190.707 C360.71,241.827 344.75,362.187 393.03,444.297 C442.07,527.717 562.343,543.458 631.103,545.648" style="stroke:#9A8700;stroke-width:1;" fill="none" id="trial-to-withdrawn"/><polygon points="636.1,545.807,627.232,541.522,631.103,545.648,626.977,549.518,636.1,545.807" fill="#9A8700" style="stroke:#9A8700;stroke-width:1;stroke-linejoin:miter;stroke-miterlimit:10;"/><text x="367.03" y="360.364" fill="#000" font-size="13" textLength="174.795">leaves during trial / reason</text></g><!--link trial to completed--><g class="link" data-entity-1="ent0002" data-entity-2="ent0011" id="lnk12" data-source-line="12" data-link-type="dependency"><path d="M350.92,180.907 C328.6,193.967 297.75,212.267 286.03,220.297 C210.29,272.247 163.34,264.787 123.03,347.297 C77.05,441.397 232.192,504.013 315.682,530.343" style="stroke:#9A8700;stroke-width:1;" fill="none" id="trial-to-completed"/><polygon points="320.45,531.847,313.07,525.325,315.682,530.343,310.664,532.955,320.45,531.847" fill="#9A8700" style="stroke:#9A8700;stroke-width:1;stroke-linejoin:miter;stroke-miterlimit:10;"/><text x="124.03" y="360.364" fill="#000" font-size="13" textLength="144.282">trial period completed</text></g><!--link waitlisted to active--><g class="link" data-entity-1="ent0006" data-entity-2="ent0004" id="lnk13" data-source-line="13" data-link-type="dependency"><path d="M903.92,190.697 C859.73,215.137 797.186,249.738 758.026,271.388" style="stroke:#9A8700;stroke-width:1;" fill="none" id="waitlisted-to-active"/><polygon points="753.65,273.807,763.462,272.953,758.026,271.388,759.591,265.952,753.65,273.807" fill="#9A8700" style="stroke:#9A8700;stroke-width:1;stroke-linejoin:miter;stroke-miterlimit:10;"/><text x="850.03" y="233.364" fill="#000" font-size="13" textLength="153.563">seat becomes available</text></g><!--link waitlisted to withdrawn--><g class="link" data-entity-1="ent0006" data-entity-2="ent0009" id="lnk14" data-source-line="14" data-link-type="dependency"><path d="M992.14,182.377 C1027.89,198.017 1075.83,225.587 1098.03,267.297 C1115.39,299.927 1122.16,405.247 1090.03,444.297 C1044.35,499.817 831.879,529.234 734.889,540.034" style="stroke:#9A8700;stroke-width:1;" fill="none" id="waitlisted-to-withdrawn"/><polygon points="729.92,540.587,739.307,543.566,734.889,540.034,738.422,535.615,729.92,540.587" fill="#9A8700" style="stroke:#9A8700;stroke-width:1;stroke-linejoin:miter;stroke-miterlimit:10;"/><text x="1113.03" y="360.364" fill="#000" font-size="13" textLength="159.637">cancels request / reason</text></g><!--link active to frozen--><g class="link" data-entity-1="ent0004" data-entity-2="ent0015" id="lnk16" data-source-line="15" data-link-type="dependency"><path d="M690.28,294.077 C653.46,296.887 594.2,307.727 566.03,347.297 C561.64,353.457 562.13,357.827 566.03,364.297 C573.93,377.437 604.215,392.21 631.015,403.54" style="stroke:#9A8700;stroke-width:1;" fill="none" id="active-to-frozen"/><polygon points="635.62,405.487,628.888,398.298,631.015,403.54,625.773,405.667,635.62,405.487" fill="#9A8700" style="stroke:#9A8700;stroke-width:1;stroke-linejoin:miter;stroke-miterlimit:10;"/><text x="567.03" y="360.364" fill="#000" font-size="13" textLength="111.674">temporary pause</text></g><!--link frozen to active--><g class="link" data-entity-1="ent0015" data-entity-2="ent0004" id="lnk17" data-source-line="16" data-link-type="dependency"><path d="M678.54,393.967 C688.05,371.957 699.987,344.317 709.507,322.287" style="stroke:#9A8700;stroke-width:1;" fill="none" id="frozen-to-active"/><polygon points="711.49,317.697,704.248,324.372,709.507,322.287,711.592,327.545,711.49,317.697" fill="#9A8700" style="stroke:#9A8700;stroke-width:1;stroke-linejoin:miter;stroke-miterlimit:10;"/><text x="700.03" y="360.364" fill="#000" font-size="13" textLength="154.324">resumes within episode</text></g><!--link active to withdrawn--><g class="link" data-entity-1="ent0004" data-entity-2="ent0009" id="lnk18" data-source-line="17" data-link-type="dependency"><path d="M753.73,309.997 C759.11,312.587 764.68,315.117 770.03,317.297 C810.23,333.727 835.31,313.867 863.03,347.297 C904.12,396.877 918.05,440.077 879.03,491.297 C861.01,514.957 786.74,530.097 734.69,538.207" style="stroke:#9A8700;stroke-width:1;" fill="none" id="active-to-withdrawn"/><polygon points="729.75,538.977,739.259,541.544,734.69,538.207,738.027,533.639,729.75,538.977" fill="#9A8700" style="stroke:#9A8700;stroke-width:1;stroke-linejoin:miter;stroke-miterlimit:10;"/><text x="904.03" y="423.864" fill="#000" font-size="13" textLength="177.239">early exit / reason required</text></g><!--link frozen to withdrawn--><g class="link" data-entity-1="ent0015" data-entity-2="ent0009" id="lnk19" data-source-line="18" data-link-type="dependency"><path d="M666.4,444.727 C665.9,458.477 665.93,475.917 668.03,491.297 C669.37,501.137 670.602,506.912 673.312,516.072" style="stroke:#9A8700;stroke-width:1;" fill="none" id="frozen-to-withdrawn"/><polygon points="674.73,520.867,676.012,511.102,673.312,516.072,668.341,513.371,674.73,520.867" fill="#9A8700" style="stroke:#9A8700;stroke-width:1;stroke-linejoin:miter;stroke-miterlimit:10;"/><text x="669.03" y="487.364" fill="#000" font-size="13" textLength="205.315">definitive exit / reason required</text></g><!--link active to completed--><g class="link" data-entity-1="ent0004" data-entity-2="ent0011" id="lnk20" data-source-line="19" data-link-type="dependency"><path d="M690.37,302.827 C619.78,324.287 454.18,375.977 435.03,394.297 C398.34,429.397 381.486,483.275 373.876,516.195" style="stroke:#9A8700;stroke-width:1;" fill="none" id="active-to-completed"/><polygon points="372.75,521.067,378.674,513.199,373.876,516.195,370.88,511.397,372.75,521.067" fill="#9A8700" style="stroke:#9A8700;stroke-width:1;stroke-linejoin:miter;stroke-miterlimit:10;"/><text x="436.03" y="423.864" fill="#000" font-size="13" textLength="181.403">academic period completed</text></g><!--link frozen to completed--><g class="link" data-entity-1="ent0015" data-entity-2="ent0011" id="lnk21" data-source-line="20" data-link-type="dependency"><path d="M635.5,432.017 C624.02,436.047 610.99,440.497 599.03,444.297 C553.18,458.877 539.42,455.777 495.03,474.297 C464.02,487.237 435.224,503.302 410.614,518.242" style="stroke:#9A8700;stroke-width:1;" fill="none" id="frozen-to-completed"/><polygon points="406.34,520.837,416.109,519.586,410.614,518.242,411.958,512.747,406.34,520.837" fill="#9A8700" style="stroke:#9A8700;stroke-width:1;stroke-linejoin:miter;stroke-miterlimit:10;"/><text x="496.03" y="487.364" fill="#000" font-size="13" textLength="162.24">period closed by director</text></g><!--link withdrawn to *end*--><g class="link" data-entity-1="ent0009" data-entity-2="ent0022" id="lnk23" data-source-line="22" data-link-type="dependency"><path d="M647.62,571.717 C612.58,595.877 565.416,628.408 545.006,642.488" style="stroke:#9A8700;stroke-width:1;" fill="none" id="withdrawn-to-*end*"/><polygon points="540.89,645.327,550.57,643.509,545.006,642.488,546.027,636.924,540.89,645.327" fill="#9A8700" style="stroke:#9A8700;stroke-width:1;stroke-linejoin:miter;stroke-miterlimit:10;"/></g><!--link completed to *end*--><g class="link" data-entity-1="ent0011" data-entity-2="ent0022" id="lnk24" data-source-line="23" data-link-type="dependency"><path d="M408.17,571.797 C435.39,588.557 472.1,611.427 504.03,632.297 C510.53,636.557 513.659,638.661 519.149,642.461" style="stroke:#9A8700;stroke-width:1;" fill="none" id="completed-to-*end*"/><polygon points="523.26,645.307,518.136,636.896,519.149,642.461,513.583,643.474,523.26,645.307" fill="#9A8700" style="stroke:#9A8700;stroke-width:1;stroke-linejoin:miter;stroke-miterlimit:10;"/></g><?plantuml-src VLHBRzim3BxhLn3ORK2RthhjC23e7hrljs47Hg8TehBeKNAyxDUFIjnOQR4X1yKIluVuKE4I2HuYvWnVLQOHFYUL60TA1MxWMy52y8cnLnnSVk8qels37Vgdti9JU90e2c--RErttqJaFGQPEVNGOSpKd6nLPLvWxxVlxk_kdFlnzYVSt7o4eemHFYmhNQnS0j0NFf15AFLJH6rYOEQo1uyZUYx72s96koBdGi5GIG0Fo15tTkjBg3lBNV5xIHtha5k1pGMoiZJOgXyKvsJmI7YW367Ice9ppCPCOvRKGBmCOwIpj_FkICeIrWFN-Byoc0aBxCW2JMUryoAyzUGnUOhPNFoQA9VLpy9PupkLFrI32msZAEeHHfoiVil1YnhagQfN4Kv08sS9rDAryeGQZq2_ULK-MM6rMpRqBIPGnubFTFy0Dc9jCj5Ze87zwtmsIYtWEIvAjk_T4OBH-oBgt6geWgolt0fytd59R52K-tq1wPOKkGURa6BLwP6J9Rm_3TZQGoaOqu4qMp5pPadP2bfcCdkve9QyBHjAmPPRPojKZKLf9wN8KAKkxjntqe6JzL2kKtiBZzO6OWNa3AELYlH0uJz4QugkYO1JO8_brCXxiiqfr96ibSbxoq7TzFK5sOmgzQ5OalbAAr9toiwfqzqZQh02Lybg4MEKsTWaMPTqzZYWTPGz5ObaokxbcDT1BiNuQq_3_dpJLV0l?></g></svg>