<svg xmlns="http://www.w3.org/2000/svg" xmlns:xlink="http://www.w3.org/1999/xlink" version="1.1" data-diagram-type="SEQUENCE" style="width:1791px;height:1516px;background:#FAFAF7;" width="1791px" height="1516px" viewBox="0 0 1791 1516" zoomAndPan="magnify" preserveAspectRatio="none" contentStyleType="text/css"><?plantuml 1.2026.7beta8?><defs/><g font-family="sans-serif" lengthAdjust="spacing"><rect x="0" y="0" width="1791" height="1516" fill="#FAFAF7" style="stroke:none;"/><g class="title" data-source-line="1"><text x="692.701" y="27.995" fill="#000" font-size="14" textLength="404.332" font-weight="700">Authentication - Password and Google Alternatives</text></g><g><title>Usuario</title><rect x="36.102" y="123.594" width="8" height="1305.594" fill="#000" fill-opacity="0"/><line x1="39.602" y1="123.594" x2="39.602" y2="1429.188" style="stroke:#181818;stroke-width:0.5;stroke-dasharray:5,5;"/></g><g><title>React login</title><rect x="366.784" y="123.594" width="8" height="1305.594" fill="#000" fill-opacity="0"/><line x1="370.284" y1="123.594" x2="370.284" y2="1429.188" style="stroke:#181818;stroke-width:0.5;stroke-dasharray:5,5;"/></g><g><title>AuthController</title><rect x="701.604" y="123.594" width="8" height="1305.594" fill="#000" fill-opacity="0"/><line x1="705.104" y1="123.594" x2="705.104" y2="1429.188" style="stroke:#181818;stroke-width:0.5;stroke-dasharray:5,5;"/></g><g><title>AuthService</title><rect x="988.538" y="123.594" width="8" height="1305.594" fill="#000" fill-opacity="0"/><line x1="992.038" y1="123.594" x2="992.038" y2="1429.188" style="stroke:#181818;stroke-width:0.5;stroke-dasharray:5,5;"/></g><g><title>Google Identity</title><rect x="1329.077" y="123.594" width="8" height="1305.594" fill="#000" fill-opacity="0"/><line x1="1332.577" y1="123.594" x2="1332.577" y2="1429.188" style="stroke:#181818;stroke-width:0.5;stroke-dasharray:5,5;"/></g><g><title>PostgreSQL</title><rect x="1443.191" y="123.594" width="8" height="1305.594" fill="#000" fill-opacity="0"/><line x1="1446.691" y1="123.594" x2="1446.691" y2="1429.188" style="stroke:#181818;stroke-width:0.5;stroke-dasharray:5,5;"/></g><g><title>AuditService</title><rect x="1726.005" y="123.594" width="8" height="1305.594" fill="#000" fill-opacity="0"/><line x1="1729.505" y1="123.594" x2="1729.505" y2="1429.188" style="stroke:#181818;stroke-width:0.5;stroke-dasharray:5,5;"/></g><text x="10" y="120.292" fill="#000" font-size="14" textLength="53.204">Usuario</text><ellipse cx="39.602" cy="55.797" rx="8" ry="8" fill="#E2E2F0" style="stroke:#181818;stroke-width:0.5;"/><path d="M39.602,63.797 L39.602,90.797 M26.602,71.797 L52.602,71.797 M39.602,90.797 L26.602,105.797 M39.602,90.797 L52.602,105.797" style="stroke:#181818;stroke-width:0.5;" fill="none"/><rect x="323.953" y="92.297" width="92.661" height="30.297" fill="#E2E2F0" style="stroke:#181818;stroke-width:0.5;" rx="2.5" ry="2.5"/><text x="330.953" y="112.292" fill="#000" font-size="14" textLength="78.661">React login</text><rect x="647.111" y="92.297" width="115.985" height="30.297" fill="#E2E2F0" style="stroke:#181818;stroke-width:0.5;" rx="2.5" ry="2.5"/><text x="654.111" y="112.292" fill="#000" font-size="14" textLength="101.985">AuthController</text><rect x="942.761" y="92.297" width="98.554" height="30.297" fill="#E2E2F0" style="stroke:#181818;stroke-width:0.5;" rx="2.5" ry="2.5"/><text x="949.761" y="112.292" fill="#000" font-size="14" textLength="84.554">AuthService</text><rect x="1271.84" y="92.297" width="121.475" height="30.297" fill="#E2E2F0" style="stroke:#181818;stroke-width:0.5;" rx="2.5" ry="2.5"/><text x="1278.84" y="112.292" fill="#000" font-size="14" textLength="107.475">Google Identity</text><text x="1403.314" y="120.292" fill="#000" font-size="14" textLength="80.753">PostgreSQL</text><path d="M1428.691,71.297 C1428.691,61.297 1446.691,61.297 1446.691,61.297 C1446.691,61.297 1464.691,61.297 1464.691,71.297 L1464.691,97.297 C1464.691,107.297 1446.691,107.297 1446.691,107.297 C1446.691,107.297 1428.691,107.297 1428.691,97.297 L1428.691,71.297" style="stroke:#181818;stroke-width:0.5;" fill="#E2E2F0"/><path d="M1428.691,71.297 C1428.691,81.297 1446.691,81.297 1446.691,81.297 C1446.691,81.297 1464.691,81.297 1464.691,71.297" style="stroke:#181818;stroke-width:0.5;" fill="none"/><rect x="1678.276" y="92.297" width="102.457" height="30.297" fill="#E2E2F0" style="stroke:#181818;stroke-width:0.5;" rx="2.5" ry="2.5"/><text x="1685.276" y="112.292" fill="#000" font-size="14" textLength="88.457">AuditService</text><text x="10" y="1442.183" fill="#000" font-size="14" textLength="53.204">Usuario</text><ellipse cx="39.602" cy="1453.984" rx="8" ry="8" fill="#E2E2F0" style="stroke:#181818;stroke-width:0.5;"/><path d="M39.602,1461.984 L39.602,1488.984 M26.602,1469.984 L52.602,1469.984 M39.602,1488.984 L26.602,1503.984 M39.602,1488.984 L52.602,1503.984" style="stroke:#181818;stroke-width:0.5;" fill="none"/><rect x="323.953" y="1429.188" width="92.661" height="30.297" fill="#E2E2F0" style="stroke:#181818;stroke-width:0.5;" rx="2.5" ry="2.5"/><text x="330.953" y="1449.183" fill="#000" font-size="14" textLength="78.661">React login</text><rect x="647.111" y="1429.188" width="115.985" height="30.297" fill="#E2E2F0" style="stroke:#181818;stroke-width:0.5;" rx="2.5" ry="2.5"/><text x="654.111" y="1449.183" fill="#000" font-size="14" textLength="101.985">AuthController</text><rect x="942.761" y="1429.188" width="98.554" height="30.297" fill="#E2E2F0" style="stroke:#181818;stroke-width:0.5;" rx="2.5" ry="2.5"/><text x="949.761" y="1449.183" fill="#000" font-size="14" textLength="84.554">AuthService</text><rect x="1271.84" y="1429.188" width="121.475" height="30.297" fill="#E2E2F0" style="stroke:#181818;stroke-width:0.5;" rx="2.5" ry="2.5"/><text x="1278.84" y="1449.183" fill="#000" font-size="14" textLength="107.475">Google Identity</text><text x="1403.314" y="1442.183" fill="#000" font-size="14" textLength="80.753">PostgreSQL</text><path d="M1428.691,1455.484 C1428.691,1445.484 1446.691,1445.484 1446.691,1445.484 C1446.691,1445.484 1464.691,1445.484 1464.691,1455.484 L1464.691,1481.484 C1464.691,1491.484 1446.691,1491.484 1446.691,1491.484 C1446.691,1491.484 1428.691,1491.484 1428.691,1481.484 L1428.691,1455.484" style="stroke:#181818;stroke-width:0.5;" fill="#E2E2F0"/><path d="M1428.691,1455.484 C1428.691,1465.484 1446.691,1465.484 1446.691,1465.484 C1446.691,1465.484 1464.691,1465.484 1464.691,1455.484" style="stroke:#181818;stroke-width:0.5;" fill="none"/><rect x="1678.276" y="1429.188" width="102.457" height="30.297" fill="#E2E2F0" style="stroke:#181818;stroke-width:0.5;" rx="2.5" ry="2.5"/><text x="1685.276" y="1449.183" fill="#000" font-size="14" textLength="88.457">AuditService</text><path d="M23.602,135.594 L88.045,135.594 L88.045,142.727 L78.045,152.727 L23.602,152.727 L23.602,135.594" style="stroke:#000;stroke-width:1.5;" fill="#EEE"/><rect x="23.602" y="135.594" width="1464.089" height="583.867" fill="none" style="stroke:#000;stroke-width:1.5;"/><text x="38.602" y="148.661" fill="#000" font-size="13" textLength="19.443" font-weight="700">alt</text><text x="103.045" y="147.804" fill="#000" font-size="11" textLength="134.138" font-weight="700">[email and password]</text><line x1="23.602" y1="361.523" x2="1487.691" y2="361.523" style="stroke:#000;stroke-width:1;stroke-dasharray:2,2;"/><text x="28.602" y="373.734" fill="#000" font-size="11" textLength="101.02" font-weight="700">[Google Sign-In]</text><polygon points="358.284,179.859,368.284,183.859,358.284,187.859,362.284,183.859" fill="#9A8700" style="stroke:#9A8700;stroke-width:1;stroke-linejoin:miter;stroke-miterlimit:10;"/><line x1="39.602" y1="183.859" x2="364.284" y2="183.859" style="stroke:#9A8700;stroke-width:1;"/><text x="46.602" y="178.793" fill="#000" font-size="13" font-weight="700">1</text><text x="59.647" y="178.793" fill="#000" font-size="13" textLength="293.636">Enter academy email and personal password</text><polygon points="693.104,208.992,703.104,212.992,693.104,216.992,697.104,212.992" fill="#9A8700" style="stroke:#9A8700;stroke-width:1;stroke-linejoin:miter;stroke-miterlimit:10;"/><line x1="370.284" y1="212.992" x2="699.104" y2="212.992" style="stroke:#9A8700;stroke-width:1;"/><text x="377.284" y="207.926" fill="#000" font-size="13" font-weight="700">2</text><text x="390.329" y="207.926" fill="#000" font-size="13" textLength="152.921">POST /api/v1/auth/login</text><polygon points="980.038,238.125,990.038,242.125,980.038,246.125,984.038,242.125" fill="#9A8700" style="stroke:#9A8700;stroke-width:1;stroke-linejoin:miter;stroke-miterlimit:10;"/><line x1="705.104" y1="242.125" x2="986.038" y2="242.125" style="stroke:#9A8700;stroke-width:1;"/><text x="712.104" y="237.059" fill="#000" font-size="13" font-weight="700">3</text><text x="725.149" y="237.059" fill="#000" font-size="13" textLength="239.211">loginWithPassword(email, password)</text><polygon points="1434.691,267.258,1444.691,271.258,1434.691,275.258,1438.691,271.258" fill="#9A8700" style="stroke:#9A8700;stroke-width:1;stroke-linejoin:miter;stroke-miterlimit:10;"/><line x1="992.038" y1="271.258" x2="1440.691" y2="271.258" style="stroke:#9A8700;stroke-width:1;"/><text x="999.038" y="266.192" fill="#000" font-size="13" font-weight="700">4</text><text x="1012.083" y="266.192" fill="#000" font-size="13" textLength="281.538">find active user + role by normalized email</text><polygon points="1003.038,296.391,993.038,300.391,1003.038,304.391,999.038,300.391" fill="#9A8700" style="stroke:#9A8700;stroke-width:1;stroke-linejoin:miter;stroke-miterlimit:10;"/><line x1="997.038" y1="300.391" x2="1445.691" y2="300.391" style="stroke:#9A8700;stroke-width:1;stroke-dasharray:2,2;"/><text x="1009.038" y="295.325" fill="#000" font-size="13" font-weight="700">5</text><text x="1022.083" y="295.325" fill="#000" font-size="13" textLength="224.212">password hash and account policy</text><line x1="992.038" y1="329.523" x2="1034.038" y2="329.523" style="stroke:#9A8700;stroke-width:1;"/><line x1="1034.038" y1="329.523" x2="1034.038" y2="342.523" style="stroke:#9A8700;stroke-width:1;"/><line x1="993.038" y1="342.523" x2="1034.038" y2="342.523" style="stroke:#9A8700;stroke-width:1;"/><polygon points="1003.038,338.523,993.038,342.523,1003.038,346.523,999.038,342.523" fill="#9A8700" style="stroke:#9A8700;stroke-width:1;stroke-linejoin:miter;stroke-miterlimit:10;"/><text x="999.038" y="324.458" fill="#000" font-size="13" font-weight="700">6</text><text x="1012.083" y="324.458" fill="#000" font-size="13" textLength="213.478">constant-time bcrypt verification</text><polygon points="1320.577,398.461,1330.577,402.461,1320.577,406.461,1324.577,402.461" fill="#9A8700" style="stroke:#9A8700;stroke-width:1;stroke-linejoin:miter;stroke-miterlimit:10;"/><line x1="39.602" y1="402.461" x2="1326.577" y2="402.461" style="stroke:#9A8700;stroke-width:1;"/><text x="46.602" y="397.395" fill="#000" font-size="13" font-weight="700">7</text><text x="59.647" y="397.395" fill="#000" font-size="13" textLength="199.221">Select verified Google account</text><polygon points="381.284,427.594,371.284,431.594,381.284,435.594,377.284,431.594" fill="#9A8700" style="stroke:#9A8700;stroke-width:1;stroke-linejoin:miter;stroke-miterlimit:10;"/><line x1="375.284" y1="431.594" x2="1331.577" y2="431.594" style="stroke:#9A8700;stroke-width:1;stroke-dasharray:2,2;"/><text x="387.284" y="426.528" fill="#000" font-size="13" font-weight="700">8</text><text x="400.329" y="426.528" fill="#000" font-size="13" textLength="102.051">signed ID token</text><polygon points="693.104,456.727,703.104,460.727,693.104,464.727,697.104,460.727" fill="#9A8700" style="stroke:#9A8700;stroke-width:1;stroke-linejoin:miter;stroke-miterlimit:10;"/><line x1="370.284" y1="460.727" x2="699.104" y2="460.727" style="stroke:#9A8700;stroke-width:1;"/><text x="377.284" y="455.661" fill="#000" font-size="13" font-weight="700">9</text><text x="390.329" y="455.661" fill="#000" font-size="13" textLength="237.472">POST /api/v1/auth/google {idToken}</text><polygon points="980.038,485.859,990.038,489.859,980.038,493.859,984.038,489.859" fill="#9A8700" style="stroke:#9A8700;stroke-width:1;stroke-linejoin:miter;stroke-miterlimit:10;"/><line x1="705.104" y1="489.859" x2="986.038" y2="489.859" style="stroke:#9A8700;stroke-width:1;"/><text x="712.104" y="484.793" fill="#000" font-size="13" textLength="18.091" font-weight="700">10</text><text x="734.195" y="484.793" fill="#000" font-size="13" textLength="168.981">loginWithGoogle(idToken)</text><polygon points="1320.577,514.992,1330.577,518.992,1320.577,522.992,1324.577,518.992" fill="#9A8700" style="stroke:#9A8700;stroke-width:1;stroke-linejoin:miter;stroke-miterlimit:10;"/><line x1="992.038" y1="518.992" x2="1326.577" y2="518.992" style="stroke:#9A8700;stroke-width:1;"/><text x="999.038" y="513.926" fill="#000" font-size="13" textLength="18.091" font-weight="700">11</text><text x="1021.128" y="513.926" fill="#000" font-size="13" textLength="294.449">verify signature, audience and email_verified</text><polygon points="1003.038,544.125,993.038,548.125,1003.038,552.125,999.038,548.125" fill="#9A8700" style="stroke:#9A8700;stroke-width:1;stroke-linejoin:miter;stroke-miterlimit:10;"/><line x1="997.038" y1="548.125" x2="1331.577" y2="548.125" style="stroke:#9A8700;stroke-width:1;stroke-dasharray:2,2;"/><text x="1009.038" y="543.059" fill="#000" font-size="13" textLength="18.091" font-weight="700">12</text><text x="1031.128" y="543.059" fill="#000" font-size="13" textLength="112.512">sub, email, name</text><polygon points="1434.691,573.258,1444.691,577.258,1434.691,581.258,1438.691,577.258" fill="#9A8700" style="stroke:#9A8700;stroke-width:1;stroke-linejoin:miter;stroke-miterlimit:10;"/><line x1="992.038" y1="577.258" x2="1440.691" y2="577.258" style="stroke:#9A8700;stroke-width:1;"/><text x="999.038" y="572.192" fill="#000" font-size="13" textLength="18.091" font-weight="700">13</text><text x="1021.128" y="572.192" fill="#000" font-size="13" textLength="303.539">find existing active academy account by email</text><path d="M354.284,589.258 L418.727,589.258 L418.727,596.391 L408.727,606.391 L354.284,606.391 L354.284,589.258" style="stroke:#000;stroke-width:1.5;" fill="#EEE"/><rect x="354.284" y="589.258" width="1108.407" height="116.203" fill="none" style="stroke:#000;stroke-width:1.5;"/><text x="369.284" y="602.325" fill="#000" font-size="13" textLength="19.443" font-weight="700">alt</text><text x="433.727" y="601.468" fill="#000" font-size="11" textLength="220.51" font-weight="700">[account exists and email matches]</text><line x1="354.284" y1="656.523" x2="1462.691" y2="656.523" style="stroke:#000;stroke-width:1;stroke-dasharray:2,2;"/><text x="359.284" y="668.734" fill="#000" font-size="11" textLength="277.648" font-weight="700">[no provisioned account or mismatched link]</text><polygon points="1434.691,633.523,1444.691,637.523,1434.691,641.523,1438.691,637.523" fill="#9A8700" style="stroke:#9A8700;stroke-width:1;stroke-linejoin:miter;stroke-miterlimit:10;"/><line x1="992.038" y1="637.523" x2="1440.691" y2="637.523" style="stroke:#9A8700;stroke-width:1;"/><text x="999.038" y="632.458" fill="#000" font-size="13" textLength="18.091" font-weight="700">14</text><text x="1021.128" y="632.458" fill="#000" font-size="13" textLength="177.004">link googleSub if not linked</text><polygon points="381.284,693.461,371.284,697.461,381.284,701.461,377.284,697.461" fill="#9A8700" style="stroke:#9A8700;stroke-width:1;stroke-linejoin:miter;stroke-miterlimit:10;"/><line x1="375.284" y1="697.461" x2="991.038" y2="697.461" style="stroke:#9A8700;stroke-width:1;stroke-dasharray:2,2;"/><text x="387.284" y="692.395" fill="#000" font-size="13" textLength="18.091" font-weight="700">15</text><text x="409.375" y="692.395" fill="#000" font-size="13" textLength="285.645">401/403 (Google never self-registers a role)</text><line x1="992.038" y1="754.594" x2="1034.038" y2="754.594" style="stroke:#9A8700;stroke-width:1;"/><line x1="1034.038" y1="754.594" x2="1034.038" y2="767.594" style="stroke:#9A8700;stroke-width:1;"/><line x1="993.038" y1="767.594" x2="1034.038" y2="767.594" style="stroke:#9A8700;stroke-width:1;"/><polygon points="1003.038,763.594,993.038,767.594,1003.038,771.594,999.038,767.594" fill="#9A8700" style="stroke:#9A8700;stroke-width:1;stroke-linejoin:miter;stroke-miterlimit:10;"/><text x="999.038" y="749.528" fill="#000" font-size="13" textLength="18.091" font-weight="700">16</text><text x="1021.128" y="749.528" fill="#000" font-size="13" textLength="206.648">generate random session token</text><polygon points="1434.691,792.727,1444.691,796.727,1434.691,800.727,1438.691,796.727" fill="#9A8700" style="stroke:#9A8700;stroke-width:1;stroke-linejoin:miter;stroke-miterlimit:10;"/><line x1="992.038" y1="796.727" x2="1440.691" y2="796.727" style="stroke:#9A8700;stroke-width:1;"/><text x="999.038" y="791.661" fill="#000" font-size="13" textLength="18.091" font-weight="700">17</text><text x="1021.128" y="791.661" fill="#000" font-size="13" textLength="229.772">store SHA-256 token hash + expiry</text><polygon points="1717.505,821.859,1727.505,825.859,1717.505,829.859,1721.505,825.859" fill="#9A8700" style="stroke:#9A8700;stroke-width:1;stroke-linejoin:miter;stroke-miterlimit:10;"/><line x1="992.038" y1="825.859" x2="1723.505" y2="825.859" style="stroke:#9A8700;stroke-width:1;"/><text x="999.038" y="820.793" fill="#000" font-size="13" textLength="18.091" font-weight="700">18</text><text x="1021.128" y="820.793" fill="#000" font-size="13" textLength="159.612">log authentication event</text><polygon points="1457.691,850.992,1447.691,854.992,1457.691,858.992,1453.691,854.992" fill="#9A8700" style="stroke:#9A8700;stroke-width:1;stroke-linejoin:miter;stroke-miterlimit:10;"/><line x1="1451.691" y1="854.992" x2="1728.505" y2="854.992" style="stroke:#9A8700;stroke-width:1;"/><text x="1463.691" y="849.926" fill="#000" font-size="13" textLength="18.091" font-weight="700">19</text><text x="1485.782" y="849.926" fill="#000" font-size="13" textLength="236.723">append audit row without credential</text><polygon points="716.104,880.125,706.104,884.125,716.104,888.125,712.104,884.125" fill="#9A8700" style="stroke:#9A8700;stroke-width:1;stroke-linejoin:miter;stroke-miterlimit:10;"/><line x1="710.104" y1="884.125" x2="991.038" y2="884.125" style="stroke:#9A8700;stroke-width:1;stroke-dasharray:2,2;"/><text x="722.104" y="879.059" fill="#000" font-size="13" textLength="18.091" font-weight="700">20</text><text x="744.195" y="879.059" fill="#000" font-size="13" textLength="127.575">token + public user</text><line x1="705.104" y1="913.258" x2="747.104" y2="913.258" style="stroke:#9A8700;stroke-width:1;"/><line x1="747.104" y1="913.258" x2="747.104" y2="926.258" style="stroke:#9A8700;stroke-width:1;"/><line x1="706.104" y1="926.258" x2="747.104" y2="926.258" style="stroke:#9A8700;stroke-width:1;"/><polygon points="716.104,922.258,706.104,926.258,716.104,930.258,712.104,926.258" fill="#9A8700" style="stroke:#9A8700;stroke-width:1;stroke-linejoin:miter;stroke-miterlimit:10;"/><text x="712.104" y="908.192" fill="#000" font-size="13" textLength="18.091" font-weight="700">21</text><text x="734.195" y="908.192" fill="#000" font-size="13" textLength="137.814">generate CSRF token</text><polygon points="381.284,966.523,371.284,970.523,381.284,974.523,377.284,970.523" fill="#9A8700" style="stroke:#9A8700;stroke-width:1;stroke-linejoin:miter;stroke-miterlimit:10;"/><line x1="375.284" y1="970.523" x2="704.104" y2="970.523" style="stroke:#9A8700;stroke-width:1;stroke-dasharray:2,2;"/><text x="387.284" y="957.891" fill="#000" font-size="13" textLength="18.091" font-weight="700">22</text><text x="409.375" y="950.325" fill="#000" font-size="13" textLength="147.64">Set-Cookie alc_session</text><text x="409.375" y="965.458" fill="#000" font-size="13" textLength="248.574">HttpOnly + Secure + SameSite=Strict</text><polygon points="381.284,1010.789,371.284,1014.789,381.284,1018.789,377.284,1014.789" fill="#9A8700" style="stroke:#9A8700;stroke-width:1;stroke-linejoin:miter;stroke-miterlimit:10;"/><line x1="375.284" y1="1014.789" x2="704.104" y2="1014.789" style="stroke:#9A8700;stroke-width:1;stroke-dasharray:2,2;"/><text x="387.284" y="1002.157" fill="#000" font-size="13" textLength="18.091" font-weight="700">23</text><text x="409.375" y="994.59" fill="#000" font-size="13" textLength="123.36">Set-Cookie alc_csrf</text><text x="409.375" y="1009.723" fill="#000" font-size="13" textLength="171.418">Secure + SameSite=Strict</text><polygon points="693.104,1039.922,703.104,1043.922,693.104,1047.922,697.104,1043.922" fill="#9A8700" style="stroke:#9A8700;stroke-width:1;stroke-linejoin:miter;stroke-miterlimit:10;"/><line x1="370.284" y1="1043.922" x2="699.104" y2="1043.922" style="stroke:#9A8700;stroke-width:1;"/><text x="377.284" y="1038.856" fill="#000" font-size="13" textLength="18.091" font-weight="700">24</text><text x="399.375" y="1038.856" fill="#000" font-size="13" textLength="256.604">GET /api/v1/auth/me (cookies included)</text><polygon points="1434.691,1069.055,1444.691,1073.055,1434.691,1077.055,1438.691,1073.055" fill="#9A8700" style="stroke:#9A8700;stroke-width:1;stroke-linejoin:miter;stroke-miterlimit:10;"/><line x1="705.104" y1="1073.055" x2="1440.691" y2="1073.055" style="stroke:#9A8700;stroke-width:1;"/><text x="712.104" y="1067.989" fill="#000" font-size="13" textLength="18.091" font-weight="700">25</text><text x="734.195" y="1067.989" fill="#000" font-size="13" textLength="238.335">resolve session hash and role/profile</text><polygon points="716.104,1098.188,706.104,1102.188,716.104,1106.188,712.104,1102.188" fill="#9A8700" style="stroke:#9A8700;stroke-width:1;stroke-linejoin:miter;stroke-miterlimit:10;"/><line x1="710.104" y1="1102.188" x2="1445.691" y2="1102.188" style="stroke:#9A8700;stroke-width:1;stroke-dasharray:2,2;"/><text x="722.104" y="1097.122" fill="#000" font-size="13" textLength="18.091" font-weight="700">26</text><text x="744.195" y="1097.122" fill="#000" font-size="13" textLength="79.898">current user</text><path d="M23.602,1114.188 L88.045,1114.188 L88.045,1121.32 L78.045,1131.32 L23.602,1131.32 L23.602,1114.188" style="stroke:#000;stroke-width:1.5;" fill="#EEE"/><rect x="23.602" y="1114.188" width="1439.089" height="291" fill="none" style="stroke:#000;stroke-width:1.5;"/><text x="38.602" y="1127.254" fill="#000" font-size="13" textLength="19.443" font-weight="700">alt</text><text x="103.045" y="1126.398" fill="#000" font-size="11" textLength="190.094" font-weight="700">[mustChangePassword = true]</text><line x1="23.602" y1="1356.25" x2="1462.691" y2="1356.25" style="stroke:#000;stroke-width:1;stroke-dasharray:2,2;"/><text x="28.602" y="1368.46" fill="#000" font-size="11" textLength="98.178" font-weight="700">[account ready]</text><polygon points="381.284,1158.453,371.284,1162.453,381.284,1166.453,377.284,1162.453" fill="#9A8700" style="stroke:#9A8700;stroke-width:1;stroke-linejoin:miter;stroke-miterlimit:10;"/><line x1="375.284" y1="1162.453" x2="704.104" y2="1162.453" style="stroke:#9A8700;stroke-width:1;stroke-dasharray:2,2;"/><text x="387.284" y="1157.387" fill="#000" font-size="13" textLength="18.091" font-weight="700">27</text><text x="409.375" y="1157.387" fill="#000" font-size="13" textLength="261.339">redirect to mandatory password change</text><polygon points="358.284,1187.586,368.284,1191.586,358.284,1195.586,362.284,1191.586" fill="#9A8700" style="stroke:#9A8700;stroke-width:1;stroke-linejoin:miter;stroke-miterlimit:10;"/><line x1="39.602" y1="1191.586" x2="364.284" y2="1191.586" style="stroke:#9A8700;stroke-width:1;"/><text x="46.602" y="1186.52" fill="#000" font-size="13" textLength="18.091" font-weight="700">28</text><text x="68.693" y="1186.52" fill="#000" font-size="13" textLength="232.794">enter temporary and new password</text><polygon points="693.104,1216.719,703.104,1220.719,693.104,1224.719,697.104,1220.719" fill="#9A8700" style="stroke:#9A8700;stroke-width:1;stroke-linejoin:miter;stroke-miterlimit:10;"/><line x1="370.284" y1="1220.719" x2="699.104" y2="1220.719" style="stroke:#9A8700;stroke-width:1;"/><text x="377.284" y="1215.653" fill="#000" font-size="13" textLength="18.091" font-weight="700">29</text><text x="399.375" y="1215.653" fill="#000" font-size="13" textLength="288.729">POST /api/v1/auth/change-password + CSRF</text><polygon points="980.038,1245.852,990.038,1249.852,980.038,1253.852,984.038,1249.852" fill="#9A8700" style="stroke:#9A8700;stroke-width:1;stroke-linejoin:miter;stroke-miterlimit:10;"/><line x1="705.104" y1="1249.852" x2="986.038" y2="1249.852" style="stroke:#9A8700;stroke-width:1;"/><text x="712.104" y="1244.786" fill="#000" font-size="13" textLength="18.091" font-weight="700">30</text><text x="734.195" y="1244.786" fill="#000" font-size="13" textLength="240.843">changePassword(user, current, next)</text><polygon points="1434.691,1274.984,1444.691,1278.984,1434.691,1282.984,1438.691,1278.984" fill="#9A8700" style="stroke:#9A8700;stroke-width:1;stroke-linejoin:miter;stroke-miterlimit:10;"/><line x1="992.038" y1="1278.984" x2="1440.691" y2="1278.984" style="stroke:#9A8700;stroke-width:1;"/><text x="999.038" y="1273.918" fill="#000" font-size="13" textLength="18.091" font-weight="700">31</text><text x="1021.128" y="1273.918" fill="#000" font-size="13" textLength="304.237">update hash, clear policy flag, revoke sessions</text><polygon points="1434.691,1304.117,1444.691,1308.117,1434.691,1312.117,1438.691,1308.117" fill="#9A8700" style="stroke:#9A8700;stroke-width:1;stroke-linejoin:miter;stroke-miterlimit:10;"/><line x1="992.038" y1="1308.117" x2="1440.691" y2="1308.117" style="stroke:#9A8700;stroke-width:1;"/><text x="999.038" y="1303.051" fill="#000" font-size="13" textLength="18.091" font-weight="700">32</text><text x="1021.128" y="1303.051" fill="#000" font-size="13" textLength="180.254">create replacement session</text><polygon points="381.284,1333.25,371.284,1337.25,381.284,1341.25,377.284,1337.25" fill="#9A8700" style="stroke:#9A8700;stroke-width:1;stroke-linejoin:miter;stroke-miterlimit:10;"/><line x1="375.284" y1="1337.25" x2="704.104" y2="1337.25" style="stroke:#9A8700;stroke-width:1;stroke-dasharray:2,2;"/><text x="387.284" y="1332.184" fill="#000" font-size="13" textLength="18.091" font-weight="700">33</text><text x="409.375" y="1332.184" fill="#000" font-size="13" textLength="149.049">replace secure cookies</text><polygon points="381.284,1393.188,371.284,1397.188,381.284,1401.188,377.284,1397.188" fill="#9A8700" style="stroke:#9A8700;stroke-width:1;stroke-linejoin:miter;stroke-miterlimit:10;"/><line x1="375.284" y1="1397.188" x2="704.104" y2="1397.188" style="stroke:#9A8700;stroke-width:1;stroke-dasharray:2,2;"/><text x="387.284" y="1392.122" fill="#000" font-size="13" textLength="18.091" font-weight="700">34</text><text x="409.375" y="1392.122" fill="#000" font-size="13" textLength="211.936">show dashboard allowed for role</text><?plantuml-src bLPTRzis57tNhxZeNZmaWjEjMpS37U0u_J0me5dLOIy5YclgMYPCaG99sTM6_VTTKfGjEGcG8GXWI-T-dNjuQ2-z8bYsVaVQIu5U6WqvtADpHsDBG5t2UsEg05AUh6R4WLo6hJUwhJTaCxUNka6BDMnGx2jhMbskZ38MldktvB_N8uJROMcEKbUmHULez6PfhJcci5-Nlxo-kSao59w__kbQjD80Elx8zHZFdSe6jOSNduX1e4mbzOk8M4_VXybMHdjhb28R8UUl3w45sOCK577fynIKk5YNWIxVHM3_B2lHumOTmRrnlh9K_F5xU7jtEycmR4lfK-hmEdxdKPK7gb6go7YJwCyWZWpvRppO0jvgtW2Wm9BgRWmdwun6DObRXwZph0ku_rXyXZasSdvuEUVzxUQHDiQUKI4cDRVeMVrB-jsWXbaiUNqgypt73gDmuDtj0hQI--6Li4YW3QrV0MScs7IWZQrHoR-fx5lduBjRoCSLXyImGxUBew4Gh2SFZL5ITDDwfp1XjFDCRkvbpQM4xHeF1x9ocnIT4Ojjq74XAvslzOZR_iM24oeIGoITX9zwu83q84_xS9o9OUixy6PF-fciLtsIVsJvEKJz-um5z7LdAUA2zg7xs7ONcqBVMhe6P6sH3ZhJYVElmspJOKuLNRkvXhHbZJKziM3w9fqFfpXjUf3aiArDTrfn4FRmE8QvSpTGenSxTXE01tMKr7legIhQ3SWjwyV7fx7vk51jeB7c81slcCvQOS-efUjpbp5aMY1jxzNDo_chcnzXbeZGnEI08xNDBLNSAPygm2ZVm3ZfCWl_sMCAh4YJHKzWUJZ3FaSkD9LqSJ6QOrTZ6NvOvZ_yz7CFwGL_nGmrqdRZWEWFKGg0KvVcTbcKyVsG6Pk6mg69pzXFuSZYCQq7OIaw5gfiJCDOg7qVLz2q6pvgyV1cKrsEqQU1LyMdTsdCCJfnN93FLyRi9Mj4YQ-9bY_wW_VDHwqwhbUGOB663wotGdfwKtWhXNz6Ek7izej-Ci73m_Z-xSLPPBkOYPZGWTH2jIMngqt73iHQSaQnq8Uzdlmfg6FE8jnAlW6IdOqhSckMYU_fZ2vVjywlTgWhEbsoRy3RbYvy88tCYvCsk98tV5mqNpB6TcUZ537JnJr1yPxmL3V68gD3evgE__Tww7FdfrfNSTbFsvMOJ3KB8ryF1B2Tq3V_o8NHDcMGKI2KmOhG9g-7hSBgckS_iBW6ujt312pjUF2eKIYe3cGdy5E4HY23ecpIzliROd0GJbbsZuUx7H-hahlT60o_ZvGoHtQPBPjEq4AmYFy0?></g></svg>