<svg xmlns="http://www.w3.org/2000/svg" xmlns:xlink="http://www.w3.org/1999/xlink" version="1.1" data-diagram-type="STATE" style="width:755px;height:945px;background:#FAFAF7;" width="755px" height="945px" viewBox="0 0 755 945" zoomAndPan="magnify" preserveAspectRatio="none" contentStyleType="text/css"><?plantuml 1.2026.7beta8?><defs/><g font-family="sans-serif" lengthAdjust="spacing"><rect x="0" y="0" width="755" height="945" fill="#FAFAF7" style="stroke:none;"/><g class="title" data-source-line="1"><text x="186.961" y="22.995" fill="#000" font-size="14" textLength="374.603" font-weight="700">Student Payment - State and Reversal Diagram</text></g><g class="entity" data-qualified-name="reversed" id="ent0001" data-source-line="17"><path d="M109.37,526.697 L330.867,526.697 A12.5,12.5 0 0 1 343.367,539.197 L343.367,552.994 L96.87,552.994 L96.87,539.197 A12.5,12.5 0 0 1 109.37,526.697" fill="#F1F1F1"/><rect x="96.87" y="526.697" width="246.497" height="302.887" fill="none" style="stroke:#181818;stroke-width:0.5;" rx="12.5" ry="12.5"/><line x1="96.87" y1="552.994" x2="343.367" y2="552.994" style="stroke:#181818;stroke-width:0.5;"/><text x="189.21" y="544.692" fill="#000" font-size="14" textLength="61.817">reversed</text><g class="entity" data-qualified-name="reversed.Original" id="ent0002" data-source-line="18"><rect x="128.83" y="619.994" width="170.568" height="50" fill="#F1F1F1" style="stroke:#181818;stroke-width:0.5;" rx="12.5" ry="12.5"/><line x1="128.83" y1="646.291" x2="299.398" y2="646.291" style="stroke:#181818;stroke-width:0.5;"/><text x="138.83" y="637.989" fill="#000" font-size="14" textLength="150.568">Original remains paid</text></g><g class="entity" data-qualified-name="reversed.ReversalRow" id="ent0003" data-source-line="19"><rect x="108.87" y="705.994" width="210.497" height="52.594" fill="#F1F1F1" style="stroke:#181818;stroke-width:0.5;" rx="12.5" ry="12.5"/><line x1="108.87" y1="748.588" x2="319.367" y2="748.588" style="stroke:#181818;stroke-width:0.5;"/><text x="118.87" y="723.989" fill="#000" font-size="14" textLength="121.994">New reversal row</text><text x="118.87" y="740.286" fill="#000" font-size="14" textLength="190.497">amount = -original amount</text></g><g class="start_entity" data-qualified-name="reversed..start.reversed" id="ent0019" data-source-line="20"><ellipse cx="214.12" cy="573.994" rx="10" ry="10" fill="#222" style="stroke:#222;stroke-width:1;"/></g><g class="end_entity" data-qualified-name="reversed..end.reversed" id="ent0022" data-source-line="22"><ellipse cx="214.12" cy="805.584" rx="11" ry="11" fill="none" style="stroke:#222;stroke-width:1;"/><ellipse cx="214.12" cy="805.584" rx="6" ry="6" fill="#222" style="stroke:#222;stroke-width:1;"/></g><!--link *start*reversed to Original--><g class="link" data-entity-1="ent0019" data-entity-2="ent0002" id="lnk20" data-source-line="20" data-link-type="dependency"><path d="M214.12,584.294 C214.12,593.344 214.12,602.474 214.12,614.724" style="stroke:#9A8700;stroke-width:1;" fill="none" id="*start*reversed-to-Original"/><polygon points="214.12,619.724,218.12,610.724,214.12,614.724,210.12,610.724,214.12,619.724" fill="#9A8700" style="stroke:#9A8700;stroke-width:1;stroke-linejoin:miter;stroke-miterlimit:10;"/></g><!--link Original to ReversalRow--><g class="link" data-entity-1="ent0002" data-entity-2="ent0003" id="lnk21" data-source-line="21" data-link-type="dependency"><path d="M214.12,670.204 C214.12,681.234 214.12,689.304 214.12,700.524" style="stroke:#9A8700;stroke-width:1;" fill="none" id="Original-to-ReversalRow"/><polygon points="214.12,705.524,218.12,696.524,214.12,700.524,210.12,696.524,214.12,705.524" fill="#9A8700" style="stroke:#9A8700;stroke-width:1;stroke-linejoin:miter;stroke-miterlimit:10;"/></g><!--link ReversalRow to *end*reversed--><g class="link" data-entity-1="ent0003" data-entity-2="ent0022" id="lnk23" data-source-line="22" data-link-type="dependency"><path d="M214.12,759.024 C214.12,771.154 214.12,779.944 214.12,789.144" style="stroke:#9A8700;stroke-width:1;" fill="none" id="ReversalRow-to-*end*reversed"/><polygon points="214.12,794.144,218.12,785.144,214.12,789.144,210.12,785.144,214.12,794.144" fill="#9A8700" style="stroke:#9A8700;stroke-width:1;stroke-linejoin:miter;stroke-miterlimit:10;"/></g></g><g class="start_entity" data-qualified-name=".start." id="ent0004" data-source-line="6"><ellipse cx="242.12" cy="53.297" rx="10" ry="10" fill="#222" style="stroke:#222;stroke-width:1;"/></g><g class="entity" data-qualified-name="pending" id="ent0005" data-source-line="6"><rect x="203.67" y="140.297" width="76.909" height="50" fill="#F1F1F1" style="stroke:#181818;stroke-width:0.5;" rx="12.5" ry="12.5"/><line x1="203.67" y1="166.594" x2="280.579" y2="166.594" style="stroke:#181818;stroke-width:0.5;"/><text x="213.67" y="158.292" fill="#000" font-size="14" textLength="56.909">pending</text></g><g class="entity" data-qualified-name="overdue" id="ent0007" data-source-line="7"><rect x="203.32" y="267.297" width="77.593" height="50" fill="#F1F1F1" style="stroke:#181818;stroke-width:0.5;" rx="12.5" ry="12.5"/><line x1="203.32" y1="293.594" x2="280.913" y2="293.594" style="stroke:#181818;stroke-width:0.5;"/><text x="213.32" y="285.292" fill="#000" font-size="14" textLength="57.593">overdue</text></g><g class="entity" data-qualified-name="paid" id="ent0009" data-source-line="8"><rect x="7" y="396.997" width="50.242" height="50" fill="#F1F1F1" style="stroke:#181818;stroke-width:0.5;" rx="12.5" ry="12.5"/><line x1="7" y1="423.294" x2="57.242" y2="423.294" style="stroke:#181818;stroke-width:0.5;"/><text x="17" y="414.992" fill="#000" font-size="14" textLength="30.242">paid</text></g><g class="entity" data-qualified-name="cancelled" id="ent0012" data-source-line="10"><rect x="482.75" y="396.997" width="86.739" height="50" fill="#F1F1F1" style="stroke:#181818;stroke-width:0.5;" rx="12.5" ry="12.5"/><line x1="482.75" y1="423.294" x2="569.489" y2="423.294" style="stroke:#181818;stroke-width:0.5;"/><text x="492.75" y="414.992" fill="#000" font-size="14" textLength="66.739">cancelled</text></g><g class="end_entity" data-qualified-name=".end." id="ent0016" data-source-line="14"><ellipse cx="431.12" cy="910.717" rx="11" ry="11" fill="none" style="stroke:#222;stroke-width:1;"/><ellipse cx="431.12" cy="910.717" rx="6" ry="6" fill="#222" style="stroke:#222;stroke-width:1;"/></g><g class="entity" data-qualified-name="GMN24" id="ent0025" data-source-line="26"><path d="M92.19,394.297 L92.19,417.997 L57.69,421.997 L92.19,425.997 L92.19,449.695 A0,0 0 0 0 92.19,449.695 L448.054,449.695 A0,0 0 0 0 448.054,449.695 L448.054,404.297 L438.054,394.297 L92.19,394.297 A0,0 0 0 0 92.19,394.297" style="stroke:#181818;stroke-width:0.5;" fill="#FEFFDD"/><path d="M438.054,394.297 L438.054,404.297 L448.054,404.297 L438.054,394.297" style="stroke:#181818;stroke-width:0.5;" fill="#FEFFDD"/><text x="98.19" y="411.364" fill="#000" font-size="13" textLength="334.864">Paid movements are immutable financial evidence.</text><text x="98.19" y="426.497" fill="#000" font-size="13" textLength="295.693">They are corrected through a linked reversal,</text><text x="98.19" y="441.629" fill="#000" font-size="13" textLength="118.377">never by deletion.</text></g><g class="entity" data-qualified-name="GMN27" id="ent0028" data-source-line="32"><path d="M89.75,890.577 L89.75,930.843 A0,0 0 0 0 89.75,930.843 L350.501,930.843 A0,0 0 0 0 350.501,930.843 L350.501,900.577 L340.501,890.577 L224.12,890.577 L220.12,830.037 L216.12,890.577 L89.75,890.577 A0,0 0 0 0 89.75,890.577" style="stroke:#181818;stroke-width:0.5;" fill="#FEFFDD"/><path d="M340.501,890.577 L340.501,900.577 L350.501,900.577 L340.501,890.577" style="stroke:#181818;stroke-width:0.5;" fill="#FEFFDD"/><text x="95.75" y="907.644" fill="#000" font-size="13" textLength="239.751">reversalOfId is unique and preserves</text><text x="95.75" y="922.777" fill="#000" font-size="13" textLength="204.033">the complete accounting trace.</text></g><!--link *start* to pending--><g class="link" data-entity-1="ent0004" data-entity-2="ent0005" id="lnk6" data-source-line="6" data-link-type="dependency"><path d="M242.12,63.677 C242.12,80.407 242.12,110.887 242.12,134.917" style="stroke:#9A8700;stroke-width:1;" fill="none" id="*start*-to-pending"/><polygon points="242.12,139.917,246.12,130.917,242.12,134.917,238.12,130.917,242.12,139.917" fill="#9A8700" style="stroke:#9A8700;stroke-width:1;stroke-linejoin:miter;stroke-miterlimit:10;"/><text x="243.12" y="106.364" fill="#000" font-size="13" textLength="90.632">create charge</text></g><!--link pending to overdue--><g class="link" data-entity-1="ent0005" data-entity-2="ent0007" id="lnk8" data-source-line="7" data-link-type="dependency"><path d="M242.12,190.697 C242.12,212.717 242.12,239.957 242.12,261.957" style="stroke:#9A8700;stroke-width:1;" fill="none" id="pending-to-overdue"/><polygon points="242.12,266.957,246.12,257.957,242.12,261.957,238.12,257.957,242.12,266.957" fill="#9A8700" style="stroke:#9A8700;stroke-width:1;stroke-linejoin:miter;stroke-miterlimit:10;"/><text x="243.12" y="233.364" fill="#000" font-size="13" textLength="222.536">dueAt passed (presentation state)</text></g><!--link pending to paid--><g class="link" data-entity-1="ent0005" data-entity-2="ent0009" id="lnk10" data-source-line="8" data-link-type="dependency"><path d="M203.51,181.097 C166.25,197.167 110.55,226.167 76.12,267.297 C44.68,304.857 36.068,358.702 33.508,391.612" style="stroke:#9A8700;stroke-width:1;" fill="none" id="pending-to-paid"/><polygon points="33.12,396.597,37.806,387.934,33.508,391.612,29.83,387.314,33.12,396.597" fill="#9A8700" style="stroke:#9A8700;stroke-width:1;stroke-linejoin:miter;stroke-miterlimit:10;"/><text x="77.12" y="296.864" fill="#000" font-size="13" textLength="108.545">record collection</text></g><!--link overdue to paid--><g class="link" data-entity-1="ent0007" data-entity-2="ent0009" id="lnk11" data-source-line="9" data-link-type="dependency"><path d="M203.2,301.347 C157.9,311.367 86.64,329.367 66.12,347.297 C51.48,360.087 44.207,375.727 39.267,391.827" style="stroke:#9A8700;stroke-width:1;" fill="none" id="overdue-to-paid"/><polygon points="37.8,396.607,44.264,389.176,39.267,391.827,36.616,386.829,37.8,396.607" fill="#9A8700" style="stroke:#9A8700;stroke-width:1;stroke-linejoin:miter;stroke-miterlimit:10;"/><text x="67.12" y="360.364" fill="#000" font-size="13" textLength="178.712">collect outstanding amount</text></g><!--link pending to cancelled--><g class="link" data-entity-1="ent0005" data-entity-2="ent0012" id="lnk13" data-source-line="10" data-link-type="dependency"><path d="M280.95,170.957 C339.19,178.657 445.4,195.667 474.12,220.297 C526.04,264.817 529.721,348.811 528.081,391.731" style="stroke:#9A8700;stroke-width:1;" fill="none" id="pending-to-cancelled"/><polygon points="527.89,396.727,532.231,387.886,528.081,391.731,524.237,387.581,527.89,396.727" fill="#9A8700" style="stroke:#9A8700;stroke-width:1;stroke-linejoin:miter;stroke-miterlimit:10;"/><text x="523.12" y="296.864" fill="#000" font-size="13" textLength="216.404">cancel unpaid obligation / reason</text></g><!--link overdue to cancelled--><g class="link" data-entity-1="ent0007" data-entity-2="ent0012" id="lnk14" data-source-line="11" data-link-type="dependency"><path d="M250.96,317.537 C258.02,333.387 269.5,353.147 286.12,364.297 C353.1,409.247 387.81,371.287 465.12,394.297 C470.77,395.977 471.936,396.218 477.636,398.458" style="stroke:#9A8700;stroke-width:1;" fill="none" id="overdue-to-cancelled"/><polygon points="482.29,400.287,475.377,393.272,477.636,398.458,472.451,400.718,482.29,400.287" fill="#9A8700" style="stroke:#9A8700;stroke-width:1;stroke-linejoin:miter;stroke-miterlimit:10;"/><text x="287.12" y="360.364" fill="#000" font-size="13" textLength="233.568">administrative cancellation / reason</text></g><!--link paid to reversed--><g class="link" data-entity-1="ent0009" data-entity-2="ent0001" id="lnk15" data-source-line="12" data-link-type="dependency"><path d="M50.15,447.367 C64.48,466.747 82.886,491.627 105.686,522.447" style="stroke:#9A8700;stroke-width:1;" fill="none" id="paid-to-reversed"/><polygon points="108.66,526.467,106.523,516.853,105.686,522.447,100.092,521.61,108.66,526.467" fill="#9A8700" style="stroke:#9A8700;stroke-width:1;stroke-linejoin:miter;stroke-miterlimit:10;"/><text x="84.12" y="492.764" fill="#000" font-size="13" textLength="232.934">create opposite movement / reason</text></g><!--link cancelled to *end*--><g class="link" data-entity-1="ent0012" data-entity-2="ent0016" id="lnk17" data-source-line="14" data-link-type="dependency"><path d="M521.34,447.467 C504,536.337 445.698,835.009 434.068,894.609" style="stroke:#9A8700;stroke-width:1;" fill="none" id="cancelled-to-*end*"/><polygon points="433.11,899.517,438.76,891.45,434.068,894.609,430.908,889.917,433.11,899.517" fill="#9A8700" style="stroke:#9A8700;stroke-width:1;stroke-linejoin:miter;stroke-miterlimit:10;"/></g><!--link reversed to *end*--><g class="link" data-entity-1="ent0001" data-entity-2="ent0016" id="lnk18" data-source-line="15" data-link-type="dependency"><path d="M343.78,814.267 C378.31,852.007 406.805,883.138 420.575,898.188" style="stroke:#9A8700;stroke-width:1;" fill="none" id="reversed-to-*end*"/><polygon points="423.95,901.877,420.826,892.537,420.575,898.188,414.924,897.937,423.95,901.877" fill="#9A8700" style="stroke:#9A8700;stroke-width:1;stroke-linejoin:miter;stroke-miterlimit:10;"/></g><?plantuml-src NLDDZzCm4BtxLunsBu3eihS5992gHKXSsDN23VOmiQV9g8aTRATLXVZlp3XrcwuYDUxCUsy-_98vzmG_ykJ8PtZ4mw3lbKGm4w1ty4GxYWbx-CBOHXnCsh8VKKxGeDssCKpUtOS-HBZ-kfRdRe587RgmPz_21lj4Yymwnh0_qZwitz_TtXhpwyqph5QVOIJlbFCHR2JjmtOOMp8rhfWWNRc912E_wmmZfaGENesHaeo0cOE7f5Eylk2Do4v8aMo83cpeUxAADLLm0Jfc8KnPb6OD76JUV25fqLiIPA6KCqo-I8IcvtPkvPsKnFIYpfA9Rc3FAKV1xwYcNf2BgZ9ZkPMvvBoZC8uXiHm6gL1kySGovphAbJMR4xy6JDdLMVUlWNbzSFKGkMKl3eWq8FjKrdC5cA1cpjZlj3zgA3xiV_jvOV09Lg7gpA6YKDtr5FOYKWsmq3qLr_WbUl7lDCO_OtpGERZjvE8sfLVpg6khUqc0aO27OShOYFat8kyjImdQiNm6bcxCpuuE1IOk4QjaMKZknEbj1mWz-wq4wfXlZTSJD0Tmr9DUs8qHUu0sScod2Jc7GVkf2pQL_h3vve2JM8R_JFCdLpmSTvHCxhI5OHHPILchUrFRYKkqpLhbFm00?></g></svg>