<svg xmlns="http://www.w3.org/2000/svg" xmlns:xlink="http://www.w3.org/1999/xlink" version="1.1" data-diagram-type="SEQUENCE" style="width:2004px;height:1500px;background:#FAFAF7;" width="2004px" height="1500px" viewBox="0 0 2004 1500" zoomAndPan="magnify" preserveAspectRatio="none" contentStyleType="text/css"><?plantuml 1.2026.7beta8?><defs/><g font-family="sans-serif" lengthAdjust="spacing"><rect x="0" y="0" width="2004" height="1500" fill="#FAFAF7" style="stroke:none;"/><g class="title" data-source-line="1"><text x="727.889" y="27.995" fill="#000" font-size="14" textLength="546.424" font-weight="700">Management Reports - Filters, Functional Pipeline, Cache and Export</text></g><g><title>Director general</title><rect x="66.604" y="123.594" width="8" height="1289.117" fill="#000" fill-opacity="0"/><line x1="70.104" y1="123.594" x2="70.104" y2="1412.711" style="stroke:#181818;stroke-width:0.5;stroke-dasharray:5,5;"/></g><g><title>React ReportsPanel</title><rect x="441.599" y="123.594" width="8" height="1289.117" fill="#000" fill-opacity="0"/><line x1="445.099" y1="123.594" x2="445.099" y2="1412.711" style="stroke:#181818;stroke-width:0.5;stroke-dasharray:5,5;"/></g><g><title>Express auth . RBAC</title><rect x="729.577" y="123.594" width="8" height="1289.117" fill="#000" fill-opacity="0"/><line x1="733.077" y1="123.594" x2="733.077" y2="1412.711" style="stroke:#181818;stroke-width:0.5;stroke-dasharray:5,5;"/></g><g><title>ReportsController</title><rect x="1059.3" y="123.594" width="8" height="1289.117" fill="#000" fill-opacity="0"/><line x1="1062.8" y1="123.594" x2="1062.8" y2="1412.711" style="stroke:#181818;stroke-width:0.5;stroke-dasharray:5,5;"/></g><g><title>AccessPolicy</title><rect x="1354.623" y="123.594" width="8" height="1289.117" fill="#000" fill-opacity="0"/><line x1="1358.123" y1="123.594" x2="1358.123" y2="1412.711" style="stroke:#181818;stroke-width:0.5;stroke-dasharray:5,5;"/></g><g><title>CacheService</title><rect x="1470.734" y="123.594" width="8" height="1289.117" fill="#000" fill-opacity="0"/><line x1="1474.234" y1="123.594" x2="1474.234" y2="1412.711" style="stroke:#181818;stroke-width:0.5;stroke-dasharray:5,5;"/></g><g><title>reportMetrics.js</title><rect x="1633.097" y="123.594" width="8" height="1289.117" fill="#000" fill-opacity="0"/><line x1="1636.597" y1="123.594" x2="1636.597" y2="1412.711" style="stroke:#181818;stroke-width:0.5;stroke-dasharray:5,5;"/></g><g><title>PostgreSQL</title><rect x="1946.326" y="123.594" width="8" height="1289.117" fill="#000" fill-opacity="0"/><line x1="1949.826" y1="123.594" x2="1949.826" y2="1412.711" style="stroke:#181818;stroke-width:0.5;stroke-dasharray:5,5;"/></g><text x="10" y="120.292" fill="#000" font-size="14" textLength="114.208">Director general</text><ellipse cx="70.104" cy="55.797" rx="8" ry="8" fill="#E2E2F0" style="stroke:#181818;stroke-width:0.5;"/><path d="M70.104,63.797 L70.104,90.797 M57.104,71.797 L83.104,71.797 M70.104,90.797 L57.104,105.797 M70.104,90.797 L83.104,105.797" style="stroke:#181818;stroke-width:0.5;" fill="none"/><rect x="369.456" y="92.297" width="151.286" height="30.297" fill="#E2E2F0" style="stroke:#181818;stroke-width:0.5;" rx="2.5" ry="2.5"/><text x="376.456" y="112.292" fill="#000" font-size="14" textLength="137.286">React ReportsPanel</text><rect x="650.8" y="92.297" width="164.555" height="30.297" fill="#E2E2F0" style="stroke:#181818;stroke-width:0.5;" rx="2.5" ry="2.5"/><text x="657.8" y="112.292" fill="#000" font-size="14" textLength="150.555">Express auth + RBAC</text><rect x="994.048" y="92.297" width="137.505" height="30.297" fill="#E2E2F0" style="stroke:#181818;stroke-width:0.5;" rx="2.5" ry="2.5"/><text x="1001.048" y="112.292" fill="#000" font-size="14" textLength="123.505">ReportsController</text><rect x="1306.652" y="92.297" width="102.942" height="30.297" fill="#E2E2F0" style="stroke:#181818;stroke-width:0.5;" rx="2.5" ry="2.5"/><text x="1313.652" y="112.292" fill="#000" font-size="14" textLength="88.942">AccessPolicy</text><rect x="1419.594" y="92.297" width="109.279" height="30.297" fill="#E2E2F0" style="stroke:#181818;stroke-width:0.5;" rx="2.5" ry="2.5"/><text x="1426.594" y="112.292" fill="#000" font-size="14" textLength="95.279">CacheService</text><rect x="1538.874" y="76" width="195.446" height="46.594" fill="#E2E2F0" style="stroke:#181818;stroke-width:0.5;" rx="2.5" ry="2.5"/><text x="1581.837" y="95.995" fill="#000" font-size="14" textLength="109.519">reportMetrics.js</text><text x="1545.874" y="112.292" fill="#000" font-size="14" textLength="181.446">pure functions + lambdas</text><text x="1906.45" y="120.292" fill="#000" font-size="14" textLength="80.753">PostgreSQL</text><path d="M1931.826,71.297 C1931.826,61.297 1949.826,61.297 1949.826,61.297 C1949.826,61.297 1967.826,61.297 1967.826,71.297 L1967.826,97.297 C1967.826,107.297 1949.826,107.297 1949.826,107.297 C1949.826,107.297 1931.826,107.297 1931.826,97.297 L1931.826,71.297" style="stroke:#181818;stroke-width:0.5;" fill="#E2E2F0"/><path d="M1931.826,71.297 C1931.826,81.297 1949.826,81.297 1949.826,81.297 C1949.826,81.297 1967.826,81.297 1967.826,71.297" style="stroke:#181818;stroke-width:0.5;" fill="none"/><text x="10" y="1425.706" fill="#000" font-size="14" textLength="114.208">Director general</text><ellipse cx="70.104" cy="1437.508" rx="8" ry="8" fill="#E2E2F0" style="stroke:#181818;stroke-width:0.5;"/><path d="M70.104,1445.508 L70.104,1472.508 M57.104,1453.508 L83.104,1453.508 M70.104,1472.508 L57.104,1487.508 M70.104,1472.508 L83.104,1487.508" style="stroke:#181818;stroke-width:0.5;" fill="none"/><rect x="369.456" y="1412.711" width="151.286" height="30.297" fill="#E2E2F0" style="stroke:#181818;stroke-width:0.5;" rx="2.5" ry="2.5"/><text x="376.456" y="1432.706" fill="#000" font-size="14" textLength="137.286">React ReportsPanel</text><rect x="650.8" y="1412.711" width="164.555" height="30.297" fill="#E2E2F0" style="stroke:#181818;stroke-width:0.5;" rx="2.5" ry="2.5"/><text x="657.8" y="1432.706" fill="#000" font-size="14" textLength="150.555">Express auth + RBAC</text><rect x="994.048" y="1412.711" width="137.505" height="30.297" fill="#E2E2F0" style="stroke:#181818;stroke-width:0.5;" rx="2.5" ry="2.5"/><text x="1001.048" y="1432.706" fill="#000" font-size="14" textLength="123.505">ReportsController</text><rect x="1306.652" y="1412.711" width="102.942" height="30.297" fill="#E2E2F0" style="stroke:#181818;stroke-width:0.5;" rx="2.5" ry="2.5"/><text x="1313.652" y="1432.706" fill="#000" font-size="14" textLength="88.942">AccessPolicy</text><rect x="1419.594" y="1412.711" width="109.279" height="30.297" fill="#E2E2F0" style="stroke:#181818;stroke-width:0.5;" rx="2.5" ry="2.5"/><text x="1426.594" y="1432.706" fill="#000" font-size="14" textLength="95.279">CacheService</text><rect x="1538.874" y="1412.711" width="195.446" height="46.594" fill="#E2E2F0" style="stroke:#181818;stroke-width:0.5;" rx="2.5" ry="2.5"/><text x="1581.837" y="1432.706" fill="#000" font-size="14" textLength="109.519">reportMetrics.js</text><text x="1545.874" y="1449.003" fill="#000" font-size="14" textLength="181.446">pure functions + lambdas</text><text x="1906.45" y="1425.706" fill="#000" font-size="14" textLength="80.753">PostgreSQL</text><path d="M1931.826,1439.008 C1931.826,1429.008 1949.826,1429.008 1949.826,1429.008 C1949.826,1429.008 1967.826,1429.008 1967.826,1439.008 L1967.826,1465.008 C1967.826,1475.008 1949.826,1475.008 1949.826,1475.008 C1949.826,1475.008 1931.826,1475.008 1931.826,1465.008 L1931.826,1439.008" style="stroke:#181818;stroke-width:0.5;" fill="#E2E2F0"/><path d="M1931.826,1439.008 C1931.826,1449.008 1949.826,1449.008 1949.826,1449.008 C1949.826,1449.008 1967.826,1449.008 1967.826,1439.008" style="stroke:#181818;stroke-width:0.5;" fill="none"/><polygon points="433.099,148.727,443.099,152.727,433.099,156.727,437.099,152.727" fill="#9A8700" style="stroke:#9A8700;stroke-width:1;stroke-linejoin:miter;stroke-miterlimit:10;"/><line x1="70.104" y1="152.727" x2="439.099" y2="152.727" style="stroke:#9A8700;stroke-width:1;"/><text x="77.104" y="147.661" fill="#000" font-size="13" font-weight="700">1</text><text x="90.149" y="147.661" fill="#000" font-size="13" textLength="238.894">Select financial or attendance report</text><polygon points="433.099,177.859,443.099,181.859,433.099,185.859,437.099,181.859" fill="#9A8700" style="stroke:#9A8700;stroke-width:1;stroke-linejoin:miter;stroke-miterlimit:10;"/><line x1="70.104" y1="181.859" x2="439.099" y2="181.859" style="stroke:#9A8700;stroke-width:1;"/><text x="77.104" y="176.793" fill="#000" font-size="13" font-weight="700">2</text><text x="90.149" y="176.793" fill="#000" font-size="13" textLength="337.949">Set date range, branch, status, level, group/student</text><polygon points="721.077,206.992,731.077,210.992,721.077,214.992,725.077,210.992" fill="#9A8700" style="stroke:#9A8700;stroke-width:1;stroke-linejoin:miter;stroke-miterlimit:10;"/><line x1="445.099" y1="210.992" x2="727.077" y2="210.992" style="stroke:#9A8700;stroke-width:1;"/><text x="452.099" y="205.926" fill="#000" font-size="13" font-weight="700">3</text><text x="465.144" y="205.926" fill="#000" font-size="13" textLength="219.934">GET /api/v1/reports/{type}?filters</text><polygon points="1050.8,236.125,1060.8,240.125,1050.8,244.125,1054.8,240.125" fill="#9A8700" style="stroke:#9A8700;stroke-width:1;stroke-linejoin:miter;stroke-miterlimit:10;"/><line x1="733.077" y1="240.125" x2="1056.8" y2="240.125" style="stroke:#9A8700;stroke-width:1;"/><text x="740.077" y="235.059" fill="#000" font-size="13" font-weight="700">4</text><text x="753.123" y="235.059" fill="#000" font-size="13" textLength="292.678">authenticated director and normalized query</text><polygon points="1346.123,265.258,1356.123,269.258,1346.123,273.258,1350.123,269.258" fill="#9A8700" style="stroke:#9A8700;stroke-width:1;stroke-linejoin:miter;stroke-miterlimit:10;"/><line x1="1062.8" y1="269.258" x2="1352.123" y2="269.258" style="stroke:#9A8700;stroke-width:1;"/><text x="1069.8" y="264.192" fill="#000" font-size="13" font-weight="700">5</text><text x="1082.846" y="264.192" fill="#000" font-size="13" textLength="145.831">visibleBranches(actor)</text><polygon points="1937.826,294.391,1947.826,298.391,1937.826,302.391,1941.826,298.391" fill="#9A8700" style="stroke:#9A8700;stroke-width:1;stroke-linejoin:miter;stroke-miterlimit:10;"/><line x1="1358.123" y1="298.391" x2="1943.826" y2="298.391" style="stroke:#9A8700;stroke-width:1;"/><text x="1365.123" y="293.325" fill="#000" font-size="13" font-weight="700">6</text><text x="1378.168" y="293.325" fill="#000" font-size="13" textLength="325.952">user_branch_access when actor is branch director</text><polygon points="1369.123,323.523,1359.123,327.523,1369.123,331.523,1365.123,327.523" fill="#9A8700" style="stroke:#9A8700;stroke-width:1;stroke-linejoin:miter;stroke-miterlimit:10;"/><line x1="1363.123" y1="327.523" x2="1948.826" y2="327.523" style="stroke:#9A8700;stroke-width:1;stroke-dasharray:2,2;"/><text x="1375.123" y="322.458" fill="#000" font-size="13" font-weight="700">7</text><text x="1388.168" y="322.458" fill="#000" font-size="13" textLength="136.405">permitted branch ids</text><line x1="1062.8" y1="371.789" x2="1104.8" y2="371.789" style="stroke:#9A8700;stroke-width:1;"/><line x1="1104.8" y1="371.789" x2="1104.8" y2="384.789" style="stroke:#9A8700;stroke-width:1;"/><line x1="1063.8" y1="384.789" x2="1104.8" y2="384.789" style="stroke:#9A8700;stroke-width:1;"/><polygon points="1073.8,380.789,1063.8,384.789,1073.8,388.789,1069.8,384.789" fill="#9A8700" style="stroke:#9A8700;stroke-width:1;stroke-linejoin:miter;stroke-miterlimit:10;"/><text x="1069.8" y="359.157" fill="#000" font-size="13" font-weight="700">8</text><text x="1082.846" y="351.59" fill="#000" font-size="13" textLength="190.658">build actor-scoped cache key</text><text x="1082.846" y="366.723" fill="#000" font-size="13" textLength="268.277">role + user + branches + filters + period</text><polygon points="1462.234,409.922,1472.234,413.922,1462.234,417.922,1466.234,413.922" fill="#9A8700" style="stroke:#9A8700;stroke-width:1;stroke-linejoin:miter;stroke-miterlimit:10;"/><line x1="1062.8" y1="413.922" x2="1468.234" y2="413.922" style="stroke:#9A8700;stroke-width:1;"/><text x="1069.8" y="408.856" fill="#000" font-size="13" font-weight="700">9</text><text x="1082.846" y="408.856" fill="#000" font-size="13" textLength="54.71">get(key)</text><path d="M429.099,425.922 L493.542,425.922 L493.542,433.055 L483.542,443.055 L429.099,443.055 L429.099,425.922" style="stroke:#000;stroke-width:1.5;" fill="#EEE"/><rect x="429.099" y="425.922" width="1536.728" height="562.063" fill="none" style="stroke:#000;stroke-width:1.5;"/><text x="444.099" y="438.989" fill="#000" font-size="13" textLength="19.443" font-weight="700">alt</text><text x="508.542" y="438.132" fill="#000" font-size="11" textLength="102.378" font-weight="700">[fresh cache hit]</text><line x1="429.099" y1="522.32" x2="1965.826" y2="522.32" style="stroke:#000;stroke-width:1;stroke-dasharray:2,2;"/><text x="434.099" y="534.531" fill="#000" font-size="11" textLength="77.967" font-weight="700">[cache miss]</text><polygon points="1073.8,470.188,1063.8,474.188,1073.8,478.188,1069.8,474.188" fill="#9A8700" style="stroke:#9A8700;stroke-width:1;stroke-linejoin:miter;stroke-miterlimit:10;"/><line x1="1067.8" y1="474.188" x2="1473.234" y2="474.188" style="stroke:#9A8700;stroke-width:1;stroke-dasharray:2,2;"/><text x="1079.8" y="469.122" fill="#000" font-size="13" textLength="18.091" font-weight="700">10</text><text x="1101.891" y="469.122" fill="#000" font-size="13" textLength="165.109">immutable cached report</text><polygon points="456.099,499.32,446.099,503.32,456.099,507.32,452.099,503.32" fill="#9A8700" style="stroke:#9A8700;stroke-width:1;stroke-linejoin:miter;stroke-miterlimit:10;"/><line x1="450.099" y1="503.32" x2="1061.8" y2="503.32" style="stroke:#9A8700;stroke-width:1;stroke-dasharray:2,2;"/><text x="462.099" y="498.254" fill="#000" font-size="13" textLength="18.091" font-weight="700">11</text><text x="484.189" y="498.254" fill="#000" font-size="13" textLength="185.618">200 + X-Memory-Cache: HIT</text><polygon points="1073.8,559.258,1063.8,563.258,1073.8,567.258,1069.8,563.258" fill="#9A8700" style="stroke:#9A8700;stroke-width:1;stroke-linejoin:miter;stroke-miterlimit:10;"/><line x1="1067.8" y1="563.258" x2="1473.234" y2="563.258" style="stroke:#9A8700;stroke-width:1;stroke-dasharray:2,2;"/><text x="1079.8" y="558.192" fill="#000" font-size="13" textLength="18.091" font-weight="700">12</text><text x="1101.891" y="558.192" fill="#000" font-size="13" textLength="31.554">MISS</text><polygon points="1937.826,588.391,1947.826,592.391,1937.826,596.391,1941.826,592.391" fill="#9A8700" style="stroke:#9A8700;stroke-width:1;stroke-linejoin:miter;stroke-miterlimit:10;"/><line x1="1062.8" y1="592.391" x2="1943.826" y2="592.391" style="stroke:#9A8700;stroke-width:1;"/><text x="1069.8" y="587.325" fill="#000" font-size="13" textLength="18.091" font-weight="700">13</text><text x="1091.891" y="587.325" fill="#000" font-size="13" textLength="247.413">non-blocking Promise.all source reads</text><polygon points="1073.8,632.656,1063.8,636.656,1073.8,640.656,1069.8,636.656" fill="#9A8700" style="stroke:#9A8700;stroke-width:1;stroke-linejoin:miter;stroke-miterlimit:10;"/><line x1="1067.8" y1="636.656" x2="1948.826" y2="636.656" style="stroke:#9A8700;stroke-width:1;stroke-dasharray:2,2;"/><text x="1079.8" y="624.024" fill="#000" font-size="13" textLength="18.091" font-weight="700">14</text><text x="1101.891" y="616.458" fill="#000" font-size="13" textLength="274.25">branches, students, sessions, attendance,</text><text x="1101.891" y="631.59" fill="#000" font-size="13" textLength="202.541">payments, events, enrollments</text><polygon points="1346.123,661.789,1356.123,665.789,1346.123,669.789,1350.123,665.789" fill="#9A8700" style="stroke:#9A8700;stroke-width:1;stroke-linejoin:miter;stroke-miterlimit:10;"/><line x1="1062.8" y1="665.789" x2="1352.123" y2="665.789" style="stroke:#9A8700;stroke-width:1;"/><text x="1069.8" y="660.723" fill="#000" font-size="13" textLength="18.091" font-weight="700">15</text><text x="1091.891" y="660.723" fill="#000" font-size="13" textLength="197.165">filterList(actor, each resource)</text><polygon points="1073.8,690.922,1063.8,694.922,1073.8,698.922,1069.8,694.922" fill="#9A8700" style="stroke:#9A8700;stroke-width:1;stroke-linejoin:miter;stroke-miterlimit:10;"/><line x1="1067.8" y1="694.922" x2="1357.123" y2="694.922" style="stroke:#9A8700;stroke-width:1;stroke-dasharray:2,2;"/><text x="1079.8" y="689.856" fill="#000" font-size="13" textLength="18.091" font-weight="700">16</text><text x="1101.891" y="689.856" fill="#000" font-size="13" textLength="192.271">branch/resource-scoped rows</text><polygon points="1624.597,720.055,1634.597,724.055,1624.597,728.055,1628.597,724.055" fill="#9A8700" style="stroke:#9A8700;stroke-width:1;stroke-linejoin:miter;stroke-miterlimit:10;"/><line x1="1062.8" y1="724.055" x2="1630.597" y2="724.055" style="stroke:#9A8700;stroke-width:1;"/><text x="1069.8" y="718.989" fill="#000" font-size="13" textLength="18.091" font-weight="700">17</text><text x="1091.891" y="718.989" fill="#000" font-size="13" textLength="158.571">compose report pipeline</text><line x1="1636.597" y1="753.188" x2="1678.597" y2="753.188" style="stroke:#9A8700;stroke-width:1;"/><line x1="1678.597" y1="753.188" x2="1678.597" y2="766.188" style="stroke:#9A8700;stroke-width:1;"/><line x1="1637.597" y1="766.188" x2="1678.597" y2="766.188" style="stroke:#9A8700;stroke-width:1;"/><polygon points="1647.597,762.188,1637.597,766.188,1647.597,770.188,1643.597,766.188" fill="#9A8700" style="stroke:#9A8700;stroke-width:1;stroke-linejoin:miter;stroke-miterlimit:10;"/><text x="1643.597" y="748.122" fill="#000" font-size="13" textLength="18.091" font-weight="700">18</text><text x="1665.688" y="748.122" fill="#000" font-size="13" textLength="161.668">filter(predicate lambdas)</text><line x1="1636.597" y1="795.32" x2="1678.597" y2="795.32" style="stroke:#9A8700;stroke-width:1;"/><line x1="1678.597" y1="795.32" x2="1678.597" y2="808.32" style="stroke:#9A8700;stroke-width:1;"/><line x1="1637.597" y1="808.32" x2="1678.597" y2="808.32" style="stroke:#9A8700;stroke-width:1;"/><polygon points="1647.597,804.32,1637.597,808.32,1647.597,812.32,1643.597,808.32" fill="#9A8700" style="stroke:#9A8700;stroke-width:1;stroke-linejoin:miter;stroke-miterlimit:10;"/><text x="1643.597" y="790.254" fill="#000" font-size="13" textLength="18.091" font-weight="700">19</text><text x="1665.688" y="790.254" fill="#000" font-size="13" textLength="154.959">map(selector functions)</text><line x1="1636.597" y1="837.453" x2="1678.597" y2="837.453" style="stroke:#9A8700;stroke-width:1;"/><line x1="1678.597" y1="837.453" x2="1678.597" y2="850.453" style="stroke:#9A8700;stroke-width:1;"/><line x1="1637.597" y1="850.453" x2="1678.597" y2="850.453" style="stroke:#9A8700;stroke-width:1;"/><polygon points="1647.597,846.453,1637.597,850.453,1647.597,854.453,1643.597,850.453" fill="#9A8700" style="stroke:#9A8700;stroke-width:1;stroke-linejoin:miter;stroke-miterlimit:10;"/><text x="1643.597" y="832.387" fill="#000" font-size="13" textLength="18.091" font-weight="700">20</text><text x="1665.688" y="832.387" fill="#000" font-size="13" textLength="182.819">reduce(sum/group/average)</text><line x1="1636.597" y1="879.586" x2="1678.597" y2="879.586" style="stroke:#9A8700;stroke-width:1;"/><line x1="1678.597" y1="879.586" x2="1678.597" y2="892.586" style="stroke:#9A8700;stroke-width:1;"/><line x1="1637.597" y1="892.586" x2="1678.597" y2="892.586" style="stroke:#9A8700;stroke-width:1;"/><polygon points="1647.597,888.586,1637.597,892.586,1647.597,896.586,1643.597,892.586" fill="#9A8700" style="stroke:#9A8700;stroke-width:1;stroke-linejoin:miter;stroke-miterlimit:10;"/><text x="1643.597" y="874.52" fill="#000" font-size="13" textLength="18.091" font-weight="700">21</text><text x="1665.688" y="874.52" fill="#000" font-size="13" textLength="277.139">sort comparators + immutable projections</text><polygon points="1073.8,917.719,1063.8,921.719,1073.8,925.719,1069.8,921.719" fill="#9A8700" style="stroke:#9A8700;stroke-width:1;stroke-linejoin:miter;stroke-miterlimit:10;"/><line x1="1067.8" y1="921.719" x2="1635.597" y2="921.719" style="stroke:#9A8700;stroke-width:1;stroke-dasharray:2,2;"/><text x="1079.8" y="916.653" fill="#000" font-size="13" textLength="18.091" font-weight="700">22</text><text x="1101.891" y="916.653" fill="#000" font-size="13" textLength="243.782">totals, groups, alerts and chart series</text><polygon points="1462.234,946.852,1472.234,950.852,1462.234,954.852,1466.234,950.852" fill="#9A8700" style="stroke:#9A8700;stroke-width:1;stroke-linejoin:miter;stroke-miterlimit:10;"/><line x1="1062.8" y1="950.852" x2="1468.234" y2="950.852" style="stroke:#9A8700;stroke-width:1;"/><text x="1069.8" y="945.786" fill="#000" font-size="13" textLength="18.091" font-weight="700">23</text><text x="1091.891" y="945.786" fill="#000" font-size="13" textLength="213.542">set(key, report, 30s, report tags)</text><polygon points="456.099,975.984,446.099,979.984,456.099,983.984,452.099,979.984" fill="#9A8700" style="stroke:#9A8700;stroke-width:1;stroke-linejoin:miter;stroke-miterlimit:10;"/><line x1="450.099" y1="979.984" x2="1061.8" y2="979.984" style="stroke:#9A8700;stroke-width:1;stroke-dasharray:2,2;"/><text x="462.099" y="974.918" fill="#000" font-size="13" textLength="18.091" font-weight="700">24</text><text x="484.189" y="974.918" fill="#000" font-size="13" textLength="195.622">200 + X-Memory-Cache: MISS</text><polygon points="81.104,1019.117,71.104,1023.117,81.104,1027.117,77.104,1023.117" fill="#9A8700" style="stroke:#9A8700;stroke-width:1;stroke-linejoin:miter;stroke-miterlimit:10;"/><line x1="75.104" y1="1023.117" x2="444.099" y2="1023.117" style="stroke:#9A8700;stroke-width:1;stroke-dasharray:2,2;"/><text x="87.104" y="1018.051" fill="#000" font-size="13" textLength="18.091" font-weight="700">25</text><text x="109.195" y="1018.051" fill="#000" font-size="13" textLength="241.801">topic index -> selected subtopic only</text><path d="M54.104,1035.117 L123.555,1035.117 L123.555,1042.25 L113.555,1052.25 L54.104,1052.25 L54.104,1035.117" style="stroke:#000;stroke-width:1.5;" fill="#EEE"/><rect x="54.104" y="1035.117" width="694.973" height="127.531" fill="none" style="stroke:#000;stroke-width:1.5;"/><text x="69.104" y="1048.184" fill="#000" font-size="13" textLength="24.451" font-weight="700">opt</text><text x="138.555" y="1047.328" fill="#000" font-size="11" textLength="110.102" font-weight="700">[export evidence]</text><polygon points="433.099,1079.383,443.099,1083.383,433.099,1087.383,437.099,1083.383" fill="#9A8700" style="stroke:#9A8700;stroke-width:1;stroke-linejoin:miter;stroke-miterlimit:10;"/><line x1="70.104" y1="1083.383" x2="439.099" y2="1083.383" style="stroke:#9A8700;stroke-width:1;"/><text x="77.104" y="1078.317" fill="#000" font-size="13" textLength="18.091" font-weight="700">26</text><text x="99.195" y="1078.317" fill="#000" font-size="13" textLength="72.909">Export CSV</text><line x1="445.099" y1="1112.516" x2="487.099" y2="1112.516" style="stroke:#9A8700;stroke-width:1;"/><line x1="487.099" y1="1112.516" x2="487.099" y2="1125.516" style="stroke:#9A8700;stroke-width:1;"/><line x1="446.099" y1="1125.516" x2="487.099" y2="1125.516" style="stroke:#9A8700;stroke-width:1;"/><polygon points="456.099,1121.516,446.099,1125.516,456.099,1129.516,452.099,1125.516" fill="#9A8700" style="stroke:#9A8700;stroke-width:1;stroke-linejoin:miter;stroke-miterlimit:10;"/><text x="452.099" y="1107.45" fill="#000" font-size="13" textLength="18.091" font-weight="700">27</text><text x="474.189" y="1107.45" fill="#000" font-size="13" textLength="251.888">map visible rows and escape CSV cells</text><polygon points="81.104,1150.648,71.104,1154.648,81.104,1158.648,77.104,1154.648" fill="#9A8700" style="stroke:#9A8700;stroke-width:1;stroke-linejoin:miter;stroke-miterlimit:10;"/><line x1="75.104" y1="1154.648" x2="444.099" y2="1154.648" style="stroke:#9A8700;stroke-width:1;stroke-dasharray:2,2;"/><text x="87.104" y="1149.583" fill="#000" font-size="13" textLength="18.091" font-weight="700">28</text><text x="109.195" y="1149.583" fill="#000" font-size="13" textLength="143.362">download filtered .csv</text><path d="M54.104,1180.648 L123.555,1180.648 L123.555,1187.781 L113.555,1197.781 L54.104,1197.781 L54.104,1180.648" style="stroke:#000;stroke-width:1.5;" fill="#EEE"/><rect x="54.104" y="1180.648" width="584.949" height="127.531" fill="none" style="stroke:#000;stroke-width:1.5;"/><text x="69.104" y="1193.715" fill="#000" font-size="13" textLength="24.451" font-weight="700">opt</text><text x="138.555" y="1192.859" fill="#000" font-size="11" textLength="85.562" font-weight="700">[print or PDF]</text><polygon points="433.099,1224.914,443.099,1228.914,433.099,1232.914,437.099,1228.914" fill="#9A8700" style="stroke:#9A8700;stroke-width:1;stroke-linejoin:miter;stroke-miterlimit:10;"/><line x1="70.104" y1="1228.914" x2="439.099" y2="1228.914" style="stroke:#9A8700;stroke-width:1;"/><text x="77.104" y="1223.848" fill="#000" font-size="13" textLength="18.091" font-weight="700">29</text><text x="99.195" y="1223.848" fill="#000" font-size="13" textLength="93.298">Imprimir / PDF</text><line x1="445.099" y1="1258.047" x2="487.099" y2="1258.047" style="stroke:#9A8700;stroke-width:1;"/><line x1="487.099" y1="1258.047" x2="487.099" y2="1271.047" style="stroke:#9A8700;stroke-width:1;"/><line x1="446.099" y1="1271.047" x2="487.099" y2="1271.047" style="stroke:#9A8700;stroke-width:1;"/><polygon points="456.099,1267.047,446.099,1271.047,456.099,1275.047,452.099,1271.047" fill="#9A8700" style="stroke:#9A8700;stroke-width:1;stroke-linejoin:miter;stroke-miterlimit:10;"/><text x="452.099" y="1252.981" fill="#000" font-size="13" textLength="18.091" font-weight="700">30</text><text x="474.189" y="1252.981" fill="#000" font-size="13" textLength="141.864">apply print stylesheet</text><polygon points="81.104,1296.18,71.104,1300.18,81.104,1304.18,77.104,1300.18" fill="#9A8700" style="stroke:#9A8700;stroke-width:1;stroke-linejoin:miter;stroke-miterlimit:10;"/><line x1="75.104" y1="1300.18" x2="444.099" y2="1300.18" style="stroke:#9A8700;stroke-width:1;stroke-dasharray:2,2;"/><text x="87.104" y="1295.114" fill="#000" font-size="13" textLength="18.091" font-weight="700">31</text><text x="109.195" y="1295.114" fill="#000" font-size="13" textLength="160.462">browser print/PDF dialog</text><path d="M1456.275,1327.18 L1456.275,1397.18 L1816.275,1397.18 L1816.275,1337.18 L1806.275,1327.18 L1456.275,1327.18" style="stroke:#181818;stroke-width:0.5;" fill="#FEFFDD"/><path d="M1806.275,1327.18 L1806.275,1337.18 L1816.275,1337.18 L1806.275,1327.18" style="stroke:#181818;stroke-width:0.5;" fill="#FEFFDD"/><text x="1462.275" y="1344.247" fill="#000" font-size="13" textLength="339.644">Functional interfaces are callback contracts used by</text><text x="1462.275" y="1359.379" fill="#000" font-size="13" textLength="296.848">map, filter, reduce, sort and composeMetrics.</text><text x="1462.275" y="1374.512" fill="#000" font-size="13" textLength="333.062">The callbacks are lambdas/arrow functions and the</text><text x="1462.275" y="1389.645" fill="#000" font-size="13" textLength="281.684">metric helpers avoid shared mutable state.</text><?plantuml-src ZLPDR-Cs4BthLmpIIuBASTeUjlMXHJusRO0DaCRPeeS55XGriRcXI9Mad5MB_lS-VYYndGGeVB0-tioycNapL511CrqB8rRSiGbqoxrrmTECBfKEx7nDbuEHGLaZDDsedhKoNDEva6icOLfw_pLQL688rWnTmwxo3yhqmecE6Y4VLiuEfZstsZhwvl8KltTR2ByMhNrKPaNtGdlUUdFgd7qiPZ-T_lZkvAIgX0ouFRXGZjFLYWqxeGz8U9eULZ0FIgfU89s3MuRDbDMDC9p17wzsOKZ2iVU4BDRqBTsUdPudt9Bbu5GOTz35sxarmLcjsKNayzqEzbHA-BsnMianmlBL3YILSibkeoGdJ_5-bvvB4QyvE2NzyHV_oVI3OxeldV6Wh4NNjC8drWLOjIA8HdX6L1zMZfU_VqYLEgkgfnBEVaOn5aXKuvxkbH56AhGQhqG8R5hSCsK2hrW5GX2y5sO5LJJub-kQV11XW7GqRrZN52NGptqOMaYi-dWLpQVABkZNztSq5xsQRxwRvpX-_ayOU_xtb_kimMe2HyFdGYzIk-1IIN1egPtOHLaQwpgXrTzu_jV0RgossWKlkGyBsYYl6irdYJZxmwImeweq3C2BimKDdjtddDjdaHfAZuXBMOxAbxoV25GNPpJR2jApwrI850jGjNwFptPMpQ1qcvtFlBGzx6GQjmSUFncW6FsEdF3N5EAuBCN25U8fs-v7Y2uM69bm23z762QDVaFrw-9zhK95PR1dUvHKrmtG4Y8dR3i9WcWxI575zoSd8F7dx9exwyPP2VpRrLt56F4IhLFUlndk-cgvtFETEs6icJNQoeUuCMwSXHS-5bgJjuDBEXLjT5iQi5FLKgcepYJ4U8LMnlcfjxHUOxZ4s6K0z9l_OzbrUlY2rzJbNFyFoeUi8bWXEL3At8vWECdgLMhp2Jar7VllPRGosmkIjkkjdqQJ-hAQOL0WE-XCxX1RhatJCksBepVmdUWFVTe9KFZJddaB3Q-3v4C_TFCywsA3lRpYj_0-Ceu9ODCZGDJiiy9wPxzmZhTjlbUpO0CEZB9ROWFn5ETM77svnkv4RvtYb_KhQlHv3EfIlff-EF7J3GMnIgd-RsqdlK8_LLfkKQjb4qIUlPAaJCjVO_XSKpJN3qr-POqUgyhsWJYTfD2SWZnbxEJ-lirdBPql_y3Bl4VZOpHhMcH9DAaAxANeEM99ijQ-MEoGmz5hj1LjaGTe7Kk_oPb4HhrJE7uG_-RYyXKwLnq0dN8qBu1dIgBlzLZiVHWrrWnpU8r34ncZmWaxXn-iKQ7jAhCm5bgrKDFJeRRrEG83TlS22vc4Yuj5w_Z50MMXRvX17xSabkvOeK9rIR8kQgsp2fDWyYXDvsjrjtvsbbsNQPcB-56oTUv6Qnn1LPTCQSswZojORAnguxTDBEcawtWeyd5CYs9M_m40?></g></svg>