<svg xmlns="http://www.w3.org/2000/svg" xmlns:xlink="http://www.w3.org/1999/xlink" version="1.1" data-diagram-type="DESCRIPTION" style="width:1544px;height:708px;background:#FAFAF7;" width="1544px" height="708px" viewBox="0 0 1544 708" zoomAndPan="magnify" preserveAspectRatio="none" contentStyleType="text/css"><?plantuml 1.2026.7beta8?><defs/><g font-family="sans-serif" lengthAdjust="spacing"><rect x="0" y="0" width="1544" height="708" fill="#FAFAF7" style="stroke:none;"/><g class="title" data-source-line="1"><text x="615.772" y="22.995" fill="#000" font-size="14" textLength="305.614" font-weight="700">American Latin Class - System Context</text></g><!--cluster ALC--><g class="cluster" data-qualified-name="ALC" id="ent0007" data-source-line="18"><rect x="543.41" y="181.947" width="392.46" height="315" fill="#FFF" style="stroke:#242424;stroke-width:1;" rx="2.5" ry="2.5"/><text x="620.455" y="196.942" fill="#000" font-size="14" textLength="238.369" font-weight="700">American Latin Class Platform</text></g><!--entity Public--><g class="entity" data-qualified-name="ALC.Public" id="ent0008" data-source-line="19"><rect x="593.02" y="244.647" width="293.232" height="52.594" fill="#FFF" style="stroke:#242424;stroke-width:0.5;" rx="2.5" ry="2.5"/><text x="603.02" y="267.642" fill="#000" font-size="14" textLength="192.698">Public academy experience</text><text x="603.02" y="283.939" fill="#000" font-size="14" textLength="273.232">programs, branches, maps, enrollment</text></g><!--entity Academic--><g class="entity" data-qualified-name="ALC.Academic" id="ent0009" data-source-line="20"><rect x="567.41" y="332.647" width="344.454" height="52.594" fill="#FFF" style="stroke:#242424;stroke-width:0.5;" rx="2.5" ry="2.5"/><text x="577.41" y="355.642" fill="#000" font-size="14" textLength="166.811">Academic management</text><text x="577.41" y="371.939" fill="#000" font-size="14" textLength="324.454">accounts, groups, classes, attendance, events</text></g><!--entity Management--><g class="entity" data-qualified-name="ALC.Management" id="ent0010" data-source-line="21"><rect x="603.06" y="420.647" width="273.148" height="52.594" fill="#FFF" style="stroke:#242424;stroke-width:0.5;" rx="2.5" ry="2.5"/><text x="613.06" y="443.642" fill="#000" font-size="14" textLength="145.51">Management control</text><text x="613.06" y="459.939" fill="#000" font-size="14" textLength="253.148">finance, reports, analytics and audit</text></g><!--entity Visitante--><g class="entity" data-qualified-name="Visitante" id="ent0001" data-source-line="11"><ellipse cx="64.177" cy="51.297" rx="8" ry="8" fill="#F1F1F1" style="stroke:#181818;stroke-width:0.5;"/><path d="M64.177,59.297 L64.177,86.297 M51.177,67.297 L77.177,67.297 M64.177,86.297 L51.177,101.297 M64.177,86.297 L77.177,101.297" style="stroke:#181818;stroke-width:0.5;" fill="none"/><text x="33.33" y="115.792" fill="#000" font-size="14" textLength="61.694">Visitante</text></g><!--entity Estudiante--><g class="entity" data-qualified-name="Estudiante" id="ent0002" data-source-line="12"><ellipse cx="64.177" cy="162.297" rx="8" ry="8" fill="#F1F1F1" style="stroke:#181818;stroke-width:0.5;"/><path d="M64.177,170.297 L64.177,197.297 M51.177,178.297 L77.177,178.297 M64.177,197.297 L51.177,212.297 M64.177,197.297 L77.177,212.297" style="stroke:#181818;stroke-width:0.5;" fill="none"/><text x="26.76" y="226.792" fill="#000" font-size="14" textLength="74.833">Estudiante</text></g><!--entity Profesor--><g class="entity" data-qualified-name="Profesor" id="ent0003" data-source-line="13"><ellipse cx="64.18" cy="273.297" rx="8" ry="8" fill="#F1F1F1" style="stroke:#181818;stroke-width:0.5;"/><path d="M64.18,281.297 L64.18,308.297 M51.18,289.297 L77.18,289.297 M64.18,308.297 L51.18,323.297 M64.18,308.297 L77.18,323.297" style="stroke:#181818;stroke-width:0.5;" fill="none"/><text x="35.22" y="337.792" fill="#000" font-size="14" textLength="57.921">Profesor</text></g><!--entity BranchDirector--><g class="entity" data-qualified-name="BranchDirector" id="ent0004" data-source-line="14"><ellipse cx="64.177" cy="385.297" rx="8" ry="8" fill="#F1F1F1" style="stroke:#181818;stroke-width:0.5;"/><path d="M64.177,393.297 L64.177,420.297 M51.177,401.297 L77.177,401.297 M64.177,420.297 L51.177,435.297 M64.177,420.297 L77.177,435.297" style="stroke:#181818;stroke-width:0.5;" fill="none"/><text x="6" y="449.792" fill="#000" font-size="14" textLength="116.354">Director de sede</text></g><!--entity GeneralDirector--><g class="entity" data-qualified-name="GeneralDirector" id="ent0005" data-source-line="15"><ellipse cx="64.174" cy="498.297" rx="8" ry="8" fill="#F1F1F1" style="stroke:#181818;stroke-width:0.5;"/><path d="M64.174,506.297 L64.174,533.297 M51.174,514.297 L77.174,514.297 M64.174,533.297 L51.174,548.297 M64.174,533.297 L77.174,548.297" style="stroke:#181818;stroke-width:0.5;" fill="none"/><text x="7.07" y="562.792" fill="#000" font-size="14" textLength="114.208">Director general</text></g><!--entity Administrador--><g class="entity" data-qualified-name="Administrador" id="ent0006" data-source-line="16"><ellipse cx="64.18" cy="610.297" rx="8" ry="8" fill="#F1F1F1" style="stroke:#181818;stroke-width:0.5;"/><path d="M64.18,618.297 L64.18,645.297 M51.18,626.297 L77.18,626.297 M64.18,645.297 L51.18,660.297 M64.18,645.297 L77.18,660.297" style="stroke:#181818;stroke-width:0.5;" fill="none"/><text x="14.64" y="674.792" fill="#000" font-size="14" textLength="99.08">Administrador</text></g><!--entity GoogleIdentity--><g class="entity" data-qualified-name="GoogleIdentity" id="ent0011" data-source-line="24"><path d="M1320.771,343.653 C1323.427,337.508 1329.284,337.262 1333.052,342.448 C1336.423,336.512 1342.071,335.974 1346.132,341.671 C1351.696,334.762 1356.407,335.59 1361.34,342.372 C1364.823,335.701 1370.408,335.58 1374.347,341.916 C1378.369,336.503 1382.547,336.801 1386.741,341.709 C1389.359,334.991 1395.367,333.966 1400.318,339.017 C1404.21,332.383 1410.683,333.626 1414.018,339.621 C1418.138,334.302 1422.64,334.412 1426.29,340.142 C1431.794,332.628 1436.471,334.785 1440.791,341.36 C1444.996,334.772 1449.173,333.818 1454.12,340.62 C1458.654,336.012 1462.915,335.409 1466.041,342.105 C1469.701,335.769 1474.934,335.469 1478.591,342.108 C1482.439,334.582 1489.43,335.679 1493.627,341.72 C1498.618,337.025 1502.737,336.307 1506.208,343.35 C1514.338,346.646 1516.579,352.624 1508.98,358.751 C1515.418,364.931 1515.069,369.696 1506.669,373.559 C1502.734,380.33 1496.471,382.358 1491.557,374.577 C1488.833,381.29 1484.394,381.145 1479.85,376.444 C1476.074,382.585 1470.452,382.438 1466.827,376.284 C1463.225,383.218 1458.904,383.305 1453.796,377.87 C1449.213,384.273 1442.985,384.616 1439.256,376.985 C1436.736,383.054 1432.144,385.416 1426.746,380.166 C1421.943,387.511 1417.473,387.676 1412.425,380.407 C1407.239,385.39 1403.812,384.023 1401.2,377.824 C1397.348,383.203 1391.133,382.717 1387.93,377.045 C1383.159,385.338 1376.944,383.588 1372.597,376.618 C1367.581,382.727 1363.717,382.071 1360.309,375.107 C1356.768,380.356 1351.292,380.96 1348.011,374.827 C1344.23,380.472 1337.91,379.822 1334.57,374.297 C1329.211,380.533 1322.926,380.895 1319.704,372.172 C1312.477,370.064 1311.27,364.919 1315.545,359.139 C1309.574,351.8 1311.199,345.747 1320.771,343.653" style="stroke:#181818;stroke-width:0.5;" fill="#F1F1F1"/><text x="1326.58" y="361.792" fill="#000" font-size="14" textLength="170.96">Google Identity Services</text></g><!--entity GoogleMaps--><g class="entity" data-qualified-name="GoogleMaps" id="ent0012" data-source-line="25"><path d="M1361.357,258.59 C1365.374,251.42 1370.01,250.988 1374.612,258.045 C1377.659,253.011 1382.597,251.77 1385.927,257.755 C1390.325,251.153 1395.538,250.377 1400.057,257.632 C1402.488,249.442 1409.322,249.768 1414.035,255.308 C1419.394,248.669 1423.545,249.204 1427.149,256.912 C1430.874,251.851 1435.145,252.494 1438.444,257.396 C1442.95,251.036 1447.606,250.084 1452.269,257.235 C1457.722,250.976 1462.215,252.757 1466.147,258.934 C1474.142,259.107 1478.803,265.74 1474.74,273.185 C1479.798,281.239 1474.945,288.664 1466.079,289.177 C1462.3,296.55 1455.585,296.172 1451.835,289.149 C1448.053,295.456 1443.159,295.385 1438.489,290.179 C1435.768,295.483 1430.708,296.856 1426.594,291.772 C1423.148,298.363 1417.503,298.244 1413.791,292.038 C1409.435,297.627 1403.177,296.646 1399.914,290.721 C1395.041,296.976 1390.774,296.41 1386.592,289.994 C1382.768,295.336 1377.323,296.05 1374.282,289.203 C1370.651,295.796 1364.31,294.897 1361.383,288.503 C1353.848,285.881 1352.849,280.208 1357.407,274.219 C1350.149,267.718 1352.945,261.132 1361.357,258.59" style="stroke:#181818;stroke-width:0.5;" fill="#F1F1F1"/><text x="1366.73" y="277.792" fill="#000" font-size="14" textLength="90.658">Google Maps</text></g><!--entity Email--><g class="entity" data-qualified-name="Email" id="ent0013" data-source-line="26"><path d="M1311.371,424.371 C1314.609,416.728 1319.829,417.04 1324.885,422.495 C1329.411,416.552 1335.673,414.865 1339.908,422.81 C1344.026,415.067 1350.917,415.943 1355.002,422.846 C1357.749,414.453 1364.763,414.137 1369.68,420.719 C1373.783,414.702 1380.271,416.501 1382.933,422.332 C1387.875,415.327 1392.529,414.595 1397.738,422.058 C1400.924,414.149 1408.278,412.9 1414.104,418.967 C1419.197,412.664 1424.82,414.733 1427.423,421.504 C1430.922,413.718 1438.12,414.394 1442.55,420.491 C1447.449,413.954 1452.306,414.27 1456.908,420.816 C1463.233,413.432 1470.138,413.506 1473.748,423.455 C1476.818,418.196 1482.18,417.027 1485.922,422.708 C1490.974,414.132 1498.779,416.544 1502.379,424.181 C1507.353,417.967 1511.784,417.454 1516.385,424.573 C1524.609,425.655 1528.843,430.292 1523.777,438.452 C1529.158,445.316 1526.97,452.861 1517.365,453.216 C1512.601,461.462 1506.826,461.941 1501.608,453.649 C1498.444,461.937 1491.42,462.217 1485.738,456.503 C1481.22,463.377 1476.21,463.863 1471.875,456.327 C1466.554,462.648 1461.899,463.364 1456.757,456.126 C1452.329,462.704 1447.619,464.351 1441.875,457.595 C1436.74,464.735 1432.671,462.504 1428.324,456.767 C1425.271,462.859 1419.227,463.938 1414.809,458.345 C1408.825,464.34 1402.641,464.133 1399.054,455.723 C1395.447,463.265 1388.163,465.217 1382.774,457.644 C1377.693,463.674 1372.873,462.315 1370.199,455.32 C1365.961,462.844 1357.854,463.586 1353.829,455.103 C1349.288,462.858 1343.408,462.418 1338.803,455.167 C1334.629,460.513 1330.123,461.024 1326.118,454.977 C1321.605,461.809 1313.095,461.708 1308.973,454.499 C1298.711,452.383 1298.601,445.972 1303.633,438.689 C1298.721,430.054 1301.108,424.805 1311.371,424.371" style="stroke:#181818;stroke-width:0.5;" fill="#F1F1F1"/><text x="1315.92" y="442.792" fill="#000" font-size="14" textLength="192.274">Transactional email service</text></g><!--entity Database--><g class="entity" data-qualified-name="Database" id="ent0014" data-source-line="27"><path d="M1309.66,179.297 C1309.66,169.297 1412.058,169.297 1412.058,169.297 C1412.058,169.297 1514.456,169.297 1514.456,179.297 L1514.456,204.594 C1514.456,214.594 1412.058,214.594 1412.058,214.594 C1412.058,214.594 1309.66,214.594 1309.66,204.594 L1309.66,179.297" style="stroke:#181818;stroke-width:0.5;" fill="#F1F1F1"/><path d="M1309.66,179.297 C1309.66,189.297 1412.058,189.297 1412.058,189.297 C1412.058,189.297 1514.456,189.297 1514.456,179.297" style="stroke:#181818;stroke-width:0.5;" fill="none"/><text x="1319.66" y="206.292" fill="#000" font-size="14" textLength="184.796">PostgreSQL / Amazon RDS</text></g><g class="entity" data-qualified-name="GMN28" id="ent0029" data-source-line="45"><path d="M523.35,102.247 L523.35,157.645 L955.919,157.645 L955.919,112.247 L945.919,102.247 L523.35,102.247" style="stroke:#181818;stroke-width:0.5;" fill="#FEFFDD"/><path d="M945.919,102.247 L945.919,112.247 L955.919,112.247 L945.919,102.247" style="stroke:#181818;stroke-width:1;" fill="#FEFFDD"/><text x="529.35" y="119.314" fill="#000" font-size="13" textLength="381.247">The attendance system is the private operational platform</text><text x="529.35" y="134.447" fill="#000" font-size="13" textLength="411.569">of the American Latin Class dance academy; the public landing</text><text x="529.35" y="149.579" fill="#000" font-size="13" textLength="343.351">page promotes the academy, not the software itself.</text></g><!--link Visitante to Public--><g class="link" data-entity-1="ent0001" data-entity-2="ent0008" id="lnk15" data-source-line="29" data-link-type="dependency"><path d="M95.25,78.837 C171.04,75.157 372.43,75.787 493.35,173.947 C518.69,194.507 497.27,221.357 523.35,240.947 C543.5,256.077 562.886,264.287 587.766,269.737" style="stroke:#9A8700;stroke-width:1;" fill="none" id="Visitante-to-Public"/><polygon points="592.65,270.807,584.714,264.974,587.766,269.737,583.003,272.788,592.65,270.807" fill="#9A8700" style="stroke:#9A8700;stroke-width:1;stroke-linejoin:miter;stroke-miterlimit:10;"/><text x="213.35" y="74.014" fill="#000" font-size="13" textLength="219.711">explores and requests enrollment</text></g><!--link Estudiante to Academic--><g class="link" data-entity-1="ent0002" data-entity-2="ent0009" id="lnk16" data-source-line="30" data-link-type="dependency"><path d="M102.07,193.647 C179.08,198.527 360.79,217.157 493.35,286.947 C509.49,295.447 507.15,306.587 523.35,314.947 C537.09,322.027 547.111,326.412 562.251,331.402" style="stroke:#9A8700;stroke-width:1;" fill="none" id="Estudiante-to-Academic"/><polygon points="567,332.967,559.704,326.351,562.251,331.402,557.2,333.949,567,332.967" fill="#9A8700" style="stroke:#9A8700;stroke-width:1;stroke-linejoin:miter;stroke-miterlimit:10;"/><text x="153.35" y="195.014" fill="#000" font-size="13" textLength="339.2">profile, events, payments, attendance, justifications</text></g><!--link Profesor to Academic--><g class="link" data-entity-1="ent0003" data-entity-2="ent0009" id="lnk17" data-source-line="31" data-link-type="dependency"><path d="M93.26,305.287 C172.79,311.897 399.397,330.743 562.297,344.283" style="stroke:#9A8700;stroke-width:1;" fill="none" id="Profesor-to-Academic"/><polygon points="567.28,344.697,558.642,339.965,562.297,344.283,557.98,347.938,567.28,344.697" fill="#9A8700" style="stroke:#9A8700;stroke-width:1;stroke-linejoin:miter;stroke-miterlimit:10;"/><text x="190.85" y="308.014" fill="#000" font-size="13" textLength="264.621">classes, roster, attendance, check-in/out</text></g><!--link BranchDirector to Academic--><g class="link" data-entity-1="ent0004" data-entity-2="ent0009" id="lnk18" data-source-line="32" data-link-type="dependency"><path d="M122.69,402.667 C132.55,400.867 142.72,399.207 152.35,397.947 C291.32,379.847 444.975,370.172 562.165,364.882" style="stroke:#9A8700;stroke-width:1;" fill="none" id="BranchDirector-to-Academic"/><polygon points="567.16,364.657,557.989,361.067,562.165,364.882,558.35,369.059,567.16,364.657" fill="#9A8700" style="stroke:#9A8700;stroke-width:1;stroke-linejoin:miter;stroke-miterlimit:10;"/><text x="221.35" y="365.014" fill="#000" font-size="13" textLength="203.982">branch operation and follow-up</text></g><!--link BranchDirector to Management--><g class="link" data-entity-1="ent0004" data-entity-2="ent0010" id="lnk19" data-source-line="33" data-link-type="dependency"><path d="M122.6,417.677 C228.12,422.687 450.546,433.259 597.586,440.249" style="stroke:#9A8700;stroke-width:1;" fill="none" id="BranchDirector-to-Management"/><polygon points="602.58,440.487,593.78,436.064,597.586,440.249,593.4,444.055,602.58,440.487" fill="#9A8700" style="stroke:#9A8700;stroke-width:1;stroke-linejoin:miter;stroke-miterlimit:10;"/><text x="274.85" y="416.014" fill="#000" font-size="13" textLength="96.084">branch reports</text></g><!--link GeneralDirector to Academic--><g class="link" data-entity-1="ent0005" data-entity-2="ent0009" id="lnk20" data-source-line="34" data-link-type="dependency"><path d="M121.41,517.367 C131.69,515.507 142.34,513.627 152.35,511.947 C303.54,486.557 368.48,548.877 493.35,459.947 C516.67,443.347 500.46,420.137 523.35,402.947 C536.55,393.047 546.778,387.059 562.398,380.909" style="stroke:#9A8700;stroke-width:1;" fill="none" id="GeneralDirector-to-Academic"/><polygon points="567.05,379.077,557.21,378.652,562.398,380.909,560.141,386.096,567.05,379.077" fill="#9A8700" style="stroke:#9A8700;stroke-width:1;stroke-linejoin:miter;stroke-miterlimit:10;"/><text x="229.85" y="456.014" fill="#000" font-size="13" textLength="186.088">academy-wide management</text></g><!--link GeneralDirector to Management--><g class="link" data-entity-1="ent0005" data-entity-2="ent0010" id="lnk21" data-source-line="35" data-link-type="dependency"><path d="M121.45,534.987 C203.78,543.837 361.62,555.377 493.35,532.947 C559.64,521.667 627.262,496.351 676.052,475.511" style="stroke:#9A8700;stroke-width:1;" fill="none" id="GeneralDirector-to-Management"/><polygon points="680.65,473.547,670.802,473.404,676.052,475.511,673.945,480.761,680.65,473.547" fill="#9A8700" style="stroke:#9A8700;stroke-width:1;stroke-linejoin:miter;stroke-miterlimit:10;"/><text x="185.35" y="529.014" fill="#000" font-size="13" textLength="275.076">financial/attendance reports and analytics</text></g><!--link Administrador to Academic--><g class="link" data-entity-1="ent0006" data-entity-2="ent0009" id="lnk22" data-source-line="36" data-link-type="dependency"><path d="M113.85,632.127 C226.01,614.107 493.14,571.157 493.35,570.947 C547.44,517.777 470.39,457.247 523.35,402.947 C535.74,390.247 546.15,382.722 562.39,375.612" style="stroke:#9A8700;stroke-width:1;" fill="none" id="Administrador-to-Academic"/><polygon points="566.97,373.607,557.121,373.552,562.39,375.612,560.33,380.881,566.97,373.607" fill="#9A8700" style="stroke:#9A8700;stroke-width:1;stroke-linejoin:miter;stroke-miterlimit:10;"/><text x="193.35" y="567.014" fill="#000" font-size="13" textLength="259.27">accounts, roles and operational support</text></g><!--link Administrador to Management--><g class="link" data-entity-1="ent0006" data-entity-2="ent0010" id="lnk23" data-source-line="37" data-link-type="dependency"><path d="M114.16,651.567 C195.63,668.547 362.91,693.387 493.35,646.947 C591.19,612.117 675.032,523.526 713.902,477.536" style="stroke:#9A8700;stroke-width:1;" fill="none" id="Administrador-to-Management"/><polygon points="717.13,473.717,708.265,478.009,713.902,477.536,714.375,483.173,717.13,473.717" fill="#9A8700" style="stroke:#9A8700;stroke-width:1;stroke-linejoin:miter;stroke-miterlimit:10;"/><text x="231.85" y="643.014" fill="#000" font-size="13" textLength="182.889">audit and security oversight</text></g><!--link Public to GoogleMaps--><g class="link" data-entity-1="ent0008" data-entity-2="ent0012" id="lnk24" data-source-line="39" data-link-type="dependency"><path d="M886.52,271.387 C1031.94,271.817 1243.07,272.452 1346.59,272.752" style="stroke:#9A8700;stroke-width:1;" fill="none" id="Public-to-GoogleMaps"/><polygon points="1351.59,272.767,1342.602,268.741,1346.59,272.752,1342.578,276.741,1351.59,272.767" fill="#9A8700" style="stroke:#9A8700;stroke-width:1;stroke-linejoin:miter;stroke-miterlimit:10;"/><text x="1037.92" y="268.014" fill="#000" font-size="13" textLength="181.727">branch maps and directions</text></g><!--link Academic to GoogleIdentity--><g class="link" data-entity-1="ent0009" data-entity-2="ent0011" id="lnk25" data-source-line="40" data-link-type="dependency"><path d="M911.98,358.437 C1038.46,358.057 1201.21,357.572 1306.39,357.262" style="stroke:#9A8700;stroke-width:1;" fill="none" id="Academic-to-GoogleIdentity"/><polygon points="1311.39,357.247,1302.378,353.273,1306.39,357.262,1302.402,361.273,1311.39,357.247" fill="#9A8700" style="stroke:#9A8700;stroke-width:1;stroke-linejoin:miter;stroke-miterlimit:10;"/><text x="1017.92" y="354.014" fill="#000" font-size="13" textLength="221.825">optional login for existing account</text></g><!--link Academic to Email--><g class="link" data-entity-1="ent0009" data-entity-2="ent0013" id="lnk26" data-source-line="41" data-link-type="dependency"><path d="M911.98,379.137 C1034.19,393.537 1189.964,411.891 1295.574,424.341" style="stroke:#9A8700;stroke-width:1;" fill="none" id="Academic-to-Email"/><polygon points="1300.54,424.927,1292.07,419.901,1295.574,424.341,1291.134,427.846,1300.54,424.927" fill="#9A8700" style="stroke:#9A8700;stroke-width:1;stroke-linejoin:miter;stroke-miterlimit:10;"/><text x="988.92" y="386.014" fill="#000" font-size="13" textLength="279.494">access invitation and temporary credential</text></g><!--link ALC to Database--><g class="link" data-entity-1="ent0007" data-entity-2="ent0014" id="lnk27" data-source-line="42" data-link-type="dependency"><path d="M936.464,203.982 C943.645,203.8 950.93,203.615 958.301,203.428 C1076.248,200.437 1211.427,197.009 1304.232,194.654" style="stroke:#9A8700;stroke-width:1;" fill="none" id="ALC-to-Database"/><polygon points="1309.23,194.527,1300.131,190.756,1304.232,194.654,1300.334,198.754,1309.23,194.527" fill="#9A8700" style="stroke:#9A8700;stroke-width:1;stroke-linejoin:miter;stroke-miterlimit:10;"/><text x="986.92" y="192.014" fill="#000" font-size="13" textLength="283.378">persistent transactional and analytical data</text></g><!--link ALC to GMN28--><g class="link" data-entity-1="ent0007" data-entity-2="ent0029" id="lnk30" data-source-line="45" data-link-type="association"><path d="M739.64,181.853 C739.64,181.787 739.64,181.722 739.64,181.656 C739.64,181.133 739.64,180.61 739.64,180.087 C739.64,179.041 739.64,177.995 739.64,176.949 C739.64,174.857 739.64,172.764 739.64,170.672 C739.64,166.487 739.64,162.302 739.64,158.117" style="stroke:#9A8700;stroke-width:1;stroke-dasharray:7,7;" fill="none" id="ALC-GMN28"/></g><?plantuml-src RLLDRzim3BthLn3PjLcBOK2t3XYGfbqne0MwfTYf5qQc7Qsov4boicpOVnybsOwT9W42VP1FZ-GZ4rJG18kQd99eu1w3Ch3Kw3tCORNtWMfOMXFeTn2QoW31WbFL9a2X7CcWh17-HPa67TQmHlbIETkQOccrTV3couA_boCBly72xfIfe4JjQNGJqT1KpEQl0BX-XPG-ySQwWbnt-kvz_8f_8vo5StRNNNzSVBYyk102PU3j3-KLFn6esz_wq1PgTF3eR4dUkcuxkqaXygeWy5JG3D33jKCZD_tLAzEA33dKoVGkhuzi5qMjZFB1SIQS48UuPoVByAWnbDRL2N5nlqpf6Jazjckj9A34WkezqE-6GSX8UZQDinMdn9_1Ef4cNjNOy2yPPxMkoOG4cp6ck8i4oCWr6gmesZuRb99h4XWX5YSYoKWo0cC8P0f-XXX-ozO-C-vWfk0F0oP8LXUJUJQbCjdRKMDTV8EDz3uewNbL07AnCjs3DrTUI6tR0cPtraRehmKVgx275RcjafHPvCl-xiZbWLCoiehRtkA9y-OnoHmrK8rAin8ISFAuZIUYm81hzB4OreVAqUhRFPnpL-4VQ-3xpIhPtdHMGWn2XFdySvTyk8gbOzLIZjRHhvPyyADIYODWa-DGeIlWIfTA3va_WmRtTLwDw_ApzK6LBB4Oa1Uzte_HXfew3eVS58Db95_cofpRDeXfCnpZPDM1PKMc5rDW9KTZT_EsEUKyqiNWtib177NJyMDT0yntYhlreDcJRfDdikuKwlD3cFsZMNYz3CMaTLyJw7k32zPLSGYTrUFR9cAU09dGIJ9FpfvawwAKxPQSZqDNY4uiqUkWraEkOdSdts4wC-cUui5fQ98hPjZHqxRYcSEJXdN8xEA8xYAQ8YJ9vt29nvCoMzRoK5t-l-0WqUr1Eagle1PnQaNNlWEYO6D4B2uEEKnwR9nmtiRM4i9OblpQXc1hi6MSWk9fGoDPWiz_LSf3u8l6gIsoopZzJJT71GD4cvF3DeDrKlgKiNB6DHFZd8Y6AnNRhMPA-R7E-WoOPJhmjWmxT0GgUDBbMy4auoNz1m00?></g></svg>