<svg xmlns="http://www.w3.org/2000/svg" xmlns:xlink="http://www.w3.org/1999/xlink" version="1.1" data-diagram-type="DESCRIPTION" style="width:632px;height:841px;background:#FAFAF7;" width="632px" height="841px" viewBox="0 0 632 841" zoomAndPan="magnify" preserveAspectRatio="none" contentStyleType="text/css"><?plantuml 1.2026.7beta8?><defs/><g font-family="sans-serif" lengthAdjust="spacing"><rect x="0" y="0" width="632" height="841" fill="#FAFAF7" style="stroke:none;"/><g class="title" data-source-line="1"><text x="78.595" y="22.995" fill="#000" font-size="14" textLength="468.433" font-weight="700">American Latin Class - Use Case Overview For Presentation</text></g><!--cluster American Latin Class--><g class="cluster" data-qualified-name="American Latin Class" id="ent0007" data-source-line="18"><rect x="248.62" y="99.427" width="302.74" height="728" fill="none" style="stroke:#181818;stroke-width:1;" rx="2.5" ry="2.5"/><text x="317.443" y="114.422" fill="#000" font-size="14" textLength="165.095" font-weight="700">American Latin Class</text></g><!--entity Public--><g class="entity" data-qualified-name="American Latin Class.Public" id="ent0008" data-source-line="19"><ellipse cx="399.985" cy="159.426" rx="112.245" ry="25.199" fill="#FFF" style="stroke:#242424;stroke-width:0.5;"/><text x="319.786" y="157.149" fill="#000" font-size="14" textLength="160.398">Discover academy and</text><text x="332.897" y="173.446" fill="#000" font-size="14" textLength="134.176">request enrollment</text></g><!--entity Account--><g class="entity" data-qualified-name="American Latin Class.Account" id="ent0009" data-source-line="20"><ellipse cx="399.992" cy="432.423" rx="116.032" ry="25.606" fill="#FFF" style="stroke:#242424;stroke-width:0.5;"/><text x="330.399" y="427.407" fill="#000" font-size="14" textLength="139.187">Access account and</text><text x="314.465" y="443.704" fill="#000" font-size="14" textLength="171.056">manage personal profile</text></g><!--entity StudentSelf--><g class="entity" data-qualified-name="American Latin Class.StudentSelf" id="ent0010" data-source-line="21"><ellipse cx="399.992" cy="248.427" rx="134.452" ry="29.29" fill="#FFF" style="stroke:#242424;stroke-width:0.5;"/><text x="306.476" y="242.748" fill="#000" font-size="14" textLength="187.031">View personal attendance,</text><text x="289.099" y="259.045" fill="#000" font-size="14" textLength="221.785">payments, events and requests</text></g><!--entity Teaching--><g class="entity" data-qualified-name="American Latin Class.Teaching" id="ent0011" data-source-line="22"><ellipse cx="399.986" cy="342.43" rx="135.366" ry="29.473" fill="#FFF" style="stroke:#242424;stroke-width:0.5;"/><text x="285.32" y="342.002" fill="#000" font-size="14" textLength="229.332">Manage class roster, attendance</text><text x="309.752" y="358.299" fill="#000" font-size="14" textLength="180.469">and teacher working time</text></g><!--entity BranchOps--><g class="entity" data-qualified-name="American Latin Class.BranchOps" id="ent0012" data-source-line="23"><ellipse cx="399.993" cy="522.426" rx="133.493" ry="29.099" fill="#FFF" style="stroke:#242424;stroke-width:0.5;"/><text x="310.771" y="516.177" fill="#000" font-size="14" textLength="178.445">Manage branch requests,</text><text x="288.462" y="532.474" fill="#000" font-size="14" textLength="223.063">enrollments, groups and events</text></g><!--entity AcademyOps--><g class="entity" data-qualified-name="American Latin Class.AcademyOps" id="ent0013" data-source-line="24"><ellipse cx="399.986" cy="784.426" rx="124.646" ry="27.329" fill="#FFF" style="stroke:#242424;stroke-width:0.5;"/><text x="301.833" y="782.851" fill="#000" font-size="14" textLength="196.308">Manage academy accounts,</text><text x="319.384" y="799.148" fill="#000" font-size="14" textLength="161.205">operations and finance</text></g><!--entity Reports--><g class="entity" data-qualified-name="American Latin Class.Reports" id="ent0014" data-source-line="25"><ellipse cx="399.993" cy="612.429" rx="106.283" ry="25.502" fill="#FFF" style="stroke:#242424;stroke-width:0.5;"/><text x="325.191" y="609.71" fill="#000" font-size="14" textLength="149.604">Analyze financial and</text><text x="332.741" y="626.007" fill="#000" font-size="14" textLength="134.504">attendance reports</text></g><!--entity Governance--><g class="entity" data-qualified-name="American Latin Class.Governance" id="ent0015" data-source-line="26"><ellipse cx="399.993" cy="697.427" rx="104.343" ry="24.41" fill="#FFF" style="stroke:#242424;stroke-width:0.5;"/><text x="322.853" y="696.338" fill="#000" font-size="14" textLength="154.28">Control roles, security</text><text x="350.713" y="712.635" fill="#000" font-size="14" textLength="98.561">and audit trail</text></g><!--entity Visitante--><g class="entity" data-qualified-name="Visitante" id="ent0001" data-source-line="11"><ellipse cx="64.177" cy="129.777" rx="8" ry="8" fill="#F1F1F1" style="stroke:#181818;stroke-width:0.5;"/><path d="M64.177,137.777 L64.177,164.777 M51.177,145.777 L77.177,145.777 M64.177,164.777 L51.177,179.777 M64.177,164.777 L77.177,179.777" style="stroke:#181818;stroke-width:0.5;" fill="none"/><text x="33.33" y="194.272" fill="#000" font-size="14" textLength="61.694">Visitante</text></g><!--entity Estudiante--><g class="entity" data-qualified-name="Estudiante" id="ent0002" data-source-line="12"><ellipse cx="64.177" cy="247.777" rx="8" ry="8" fill="#F1F1F1" style="stroke:#181818;stroke-width:0.5;"/><path d="M64.177,255.777 L64.177,282.777 M51.177,263.777 L77.177,263.777 M64.177,282.777 L51.177,297.777 M64.177,282.777 L77.177,297.777" style="stroke:#181818;stroke-width:0.5;" fill="none"/><text x="26.76" y="312.272" fill="#000" font-size="14" textLength="74.833">Estudiante</text></g><!--entity Profesor--><g class="entity" data-qualified-name="Profesor" id="ent0003" data-source-line="13"><ellipse cx="64.18" cy="373.777" rx="8" ry="8" fill="#F1F1F1" style="stroke:#181818;stroke-width:0.5;"/><path d="M64.18,381.777 L64.18,408.777 M51.18,389.777 L77.18,389.777 M64.18,408.777 L51.18,423.777 M64.18,408.777 L77.18,423.777" style="stroke:#181818;stroke-width:0.5;" fill="none"/><text x="35.22" y="438.272" fill="#000" font-size="14" textLength="57.921">Profesor</text></g><!--entity BranchDirector--><g class="entity" data-qualified-name="BranchDirector" id="ent0004" data-source-line="14"><ellipse cx="64.177" cy="488.777" rx="8" ry="8" fill="#F1F1F1" style="stroke:#181818;stroke-width:0.5;"/><path d="M64.177,496.777 L64.177,523.777 M51.177,504.777 L77.177,504.777 M64.177,523.777 L51.177,538.777 M64.177,523.777 L77.177,538.777" style="stroke:#181818;stroke-width:0.5;" fill="none"/><text x="6" y="553.272" fill="#000" font-size="14" textLength="116.354">Director de sede</text></g><!--entity GeneralDirector--><g class="entity" data-qualified-name="GeneralDirector" id="ent0005" data-source-line="15"><ellipse cx="64.174" cy="599.777" rx="8" ry="8" fill="#F1F1F1" style="stroke:#181818;stroke-width:0.5;"/><path d="M64.174,607.777 L64.174,634.777 M51.174,615.777 L77.174,615.777 M64.174,634.777 L51.174,649.777 M64.174,634.777 L77.174,649.777" style="stroke:#181818;stroke-width:0.5;" fill="none"/><text x="7.07" y="664.272" fill="#000" font-size="14" textLength="114.208">Director general</text></g><!--entity Administrador--><g class="entity" data-qualified-name="Administrador" id="ent0006" data-source-line="16"><ellipse cx="64.18" cy="710.777" rx="8" ry="8" fill="#F1F1F1" style="stroke:#181818;stroke-width:0.5;"/><path d="M64.18,718.777 L64.18,745.777 M51.18,726.777 L77.18,726.777 M64.18,745.777 L51.18,760.777 M64.18,745.777 L77.18,760.777" style="stroke:#181818;stroke-width:0.5;" fill="none"/><text x="14.64" y="775.272" fill="#000" font-size="14" textLength="99.08">Administrador</text></g><g class="entity" data-qualified-name="GMN31" id="ent0032" data-source-line="46"><path d="M182.35,43.297 L182.35,83.563 A0,0 0 0 0 182.35,83.563 L395.99,83.563 L399.99,133.927 L403.99,83.563 L617.623,83.563 A0,0 0 0 0 617.623,83.563 L617.623,53.297 L607.623,43.297 L182.35,43.297 A0,0 0 0 0 182.35,43.297" style="stroke:#181818;stroke-width:0.5;" fill="#FEFFDD"/><path d="M607.623,43.297 L607.623,53.297 L617.623,53.297 L607.623,43.297" style="stroke:#181818;stroke-width:0.5;" fill="#FEFFDD"/><text x="188.35" y="60.364" fill="#000" font-size="13" textLength="313.892">The public experience sells the dance academy.</text><text x="188.35" y="75.497" fill="#000" font-size="13" textLength="414.273">The private experience operates attendance and management.</text></g><!--link Visitante to Public--><g class="link" data-entity-1="ent0001" data-entity-2="ent0008" id="lnk16" data-source-line="29" data-link-type="dependency"><path d="M95.39,159.427 C138.48,159.427 214.87,159.427 282.54,159.427" style="stroke:#9A8700;stroke-width:1;" fill="none" id="Visitante-to-Public"/><polygon points="287.54,159.427,278.54,155.427,282.54,159.427,278.54,163.427,287.54,159.427" fill="#9A8700" style="stroke:#9A8700;stroke-width:1;stroke-linejoin:miter;stroke-miterlimit:10;"/></g><!--link Estudiante to Account--><g class="link" data-entity-1="ent0002" data-entity-2="ent0009" id="lnk17" data-source-line="30" data-link-type="dependency"><path d="M95.42,316.007 C116.99,340.817 148.15,371.647 182.35,389.427 C215.61,406.717 250.132,416.219 286.182,422.419" style="stroke:#9A8700;stroke-width:1;" fill="none" id="Estudiante-to-Account"/><polygon points="291.11,423.267,282.918,417.799,286.182,422.419,281.562,425.684,291.11,423.267" fill="#9A8700" style="stroke:#9A8700;stroke-width:1;stroke-linejoin:miter;stroke-miterlimit:10;"/></g><!--link Estudiante to StudentSelf--><g class="link" data-entity-1="ent0002" data-entity-2="ent0010" id="lnk18" data-source-line="31" data-link-type="dependency"><path d="M101.86,274.237 C143.27,270.647 207.909,265.03 269.349,259.69" style="stroke:#9A8700;stroke-width:1;" fill="none" id="Estudiante-to-StudentSelf"/><polygon points="274.33,259.257,265.017,256.051,269.349,259.69,265.71,264.021,274.33,259.257" fill="#9A8700" style="stroke:#9A8700;stroke-width:1;stroke-linejoin:miter;stroke-miterlimit:10;"/></g><!--link Profesor to Account--><g class="link" data-entity-1="ent0003" data-entity-2="ent0009" id="lnk19" data-source-line="32" data-link-type="dependency"><path d="M93.35,405.877 C136.65,409.637 216.869,416.604 286.339,422.644" style="stroke:#9A8700;stroke-width:1;" fill="none" id="Profesor-to-Account"/><polygon points="291.32,423.077,282.7,418.312,286.339,422.644,282.007,426.282,291.32,423.077" fill="#9A8700" style="stroke:#9A8700;stroke-width:1;stroke-linejoin:miter;stroke-miterlimit:10;"/></g><!--link Profesor to Teaching--><g class="link" data-entity-1="ent0003" data-entity-2="ent0011" id="lnk20" data-source-line="33" data-link-type="dependency"><path d="M93.35,398.277 C137.44,390.217 220.041,375.125 290.161,362.315" style="stroke:#9A8700;stroke-width:1;" fill="none" id="Profesor-to-Teaching"/><polygon points="295.08,361.417,285.508,359.099,290.161,362.315,286.945,366.969,295.08,361.417" fill="#9A8700" style="stroke:#9A8700;stroke-width:1;stroke-linejoin:miter;stroke-miterlimit:10;"/></g><!--link BranchDirector to Account--><g class="link" data-entity-1="ent0004" data-entity-2="ent0009" id="lnk21" data-source-line="34" data-link-type="dependency"><path d="M122.7,495.287 C141.51,488.277 162.64,480.967 182.35,475.427 C222.32,464.207 262.304,455.698 300.824,448.558" style="stroke:#9A8700;stroke-width:1;" fill="none" id="BranchDirector-to-Account"/><polygon points="305.74,447.647,296.162,445.354,300.824,448.558,297.62,453.22,305.74,447.647" fill="#9A8700" style="stroke:#9A8700;stroke-width:1;stroke-linejoin:miter;stroke-miterlimit:10;"/></g><!--link BranchDirector to BranchOps--><g class="link" data-entity-1="ent0004" data-entity-2="ent0012" id="lnk22" data-source-line="35" data-link-type="dependency"><path d="M122.56,519.117 C162.08,519.587 211.27,520.177 261.2,520.777" style="stroke:#9A8700;stroke-width:1;" fill="none" id="BranchDirector-to-BranchOps"/><polygon points="266.2,520.837,257.249,516.729,261.2,520.777,257.153,524.728,266.2,520.837" fill="#9A8700" style="stroke:#9A8700;stroke-width:1;stroke-linejoin:miter;stroke-miterlimit:10;"/></g><!--link BranchDirector to Reports--><g class="link" data-entity-1="ent0004" data-entity-2="ent0014" id="lnk23" data-source-line="36" data-link-type="dependency"><path d="M122.65,546.367 C141.36,554.667 162.45,563.197 182.35,569.427 C223.16,582.197 264.587,591.121 303.927,598.121" style="stroke:#9A8700;stroke-width:1;" fill="none" id="BranchDirector-to-Reports"/><polygon points="308.85,598.997,300.69,593.482,303.927,598.121,299.288,601.358,308.85,598.997" fill="#9A8700" style="stroke:#9A8700;stroke-width:1;stroke-linejoin:miter;stroke-miterlimit:10;"/></g><!--link GeneralDirector to Account--><g class="link" data-entity-1="ent0005" data-entity-2="ent0009" id="lnk24" data-source-line="37" data-link-type="dependency"><path d="M107.71,590.967 C112.86,585.607 117.88,580.017 122.35,574.427 C154.5,534.257 140.21,504.937 182.35,475.427 C212.35,454.417 245.178,443.93 280.748,437.99" style="stroke:#9A8700;stroke-width:1;" fill="none" id="GeneralDirector-to-Account"/><polygon points="285.68,437.167,276.144,434.704,280.748,437.99,277.462,442.595,285.68,437.167" fill="#9A8700" style="stroke:#9A8700;stroke-width:1;stroke-linejoin:miter;stroke-miterlimit:10;"/></g><!--link GeneralDirector to AcademyOps--><g class="link" data-entity-1="ent0005" data-entity-2="ent0013" id="lnk25" data-source-line="38" data-link-type="dependency"><path d="M105.15,667.927 C137.22,698.657 177.65,736.987 182.35,739.427 C214.14,755.947 246.599,765.459 281.269,772.079" style="stroke:#9A8700;stroke-width:1;" fill="none" id="GeneralDirector-to-AcademyOps"/><polygon points="286.18,773.017,278.09,767.4,281.269,772.079,276.589,775.258,286.18,773.017" fill="#9A8700" style="stroke:#9A8700;stroke-width:1;stroke-linejoin:miter;stroke-miterlimit:10;"/></g><!--link GeneralDirector to Reports--><g class="link" data-entity-1="ent0005" data-entity-2="ent0014" id="lnk26" data-source-line="39" data-link-type="dependency"><path d="M121.43,626.567 C168.9,624.147 233.116,620.871 290.556,617.951" style="stroke:#9A8700;stroke-width:1;" fill="none" id="GeneralDirector-to-Reports"/><polygon points="295.55,617.697,286.359,614.159,290.556,617.951,286.765,622.149,295.55,617.697" fill="#9A8700" style="stroke:#9A8700;stroke-width:1;stroke-linejoin:miter;stroke-miterlimit:10;"/></g><!--link GeneralDirector to Governance--><g class="link" data-entity-1="ent0005" data-entity-2="ent0015" id="lnk27" data-source-line="40" data-link-type="dependency"><path d="M121.73,642.297 C140.95,646.587 162.56,651.317 182.35,655.427 C226.9,664.687 271.819,673.45 312.449,681.2" style="stroke:#9A8700;stroke-width:1;" fill="none" id="GeneralDirector-to-Governance"/><polygon points="317.36,682.137,309.269,676.521,312.449,681.2,307.77,684.38,317.36,682.137" fill="#9A8700" style="stroke:#9A8700;stroke-width:1;stroke-linejoin:miter;stroke-miterlimit:10;"/></g><!--link Administrador to Account--><g class="link" data-entity-1="ent0006" data-entity-2="ent0009" id="lnk28" data-source-line="41" data-link-type="dependency"><path d="M110.05,702.047 C114.63,696.797 118.88,691.207 122.35,685.427 C172.39,602.247 110.95,541.177 182.35,475.427 C209.64,450.297 242.308,438.774 278.528,433.224" style="stroke:#9A8700;stroke-width:1;" fill="none" id="Administrador-to-Account"/><polygon points="283.47,432.467,273.968,429.876,278.528,433.224,275.18,437.784,283.47,432.467" fill="#9A8700" style="stroke:#9A8700;stroke-width:1;stroke-linejoin:miter;stroke-miterlimit:10;"/></g><!--link Administrador to AcademyOps--><g class="link" data-entity-1="ent0006" data-entity-2="ent0013" id="lnk29" data-source-line="42" data-link-type="dependency"><path d="M114.07,746.877 C160.71,753.017 227.543,761.823 287.393,769.713" style="stroke:#9A8700;stroke-width:1;" fill="none" id="Administrador-to-AcademyOps"/><polygon points="292.35,770.367,283.95,765.225,287.393,769.713,282.904,773.156,292.35,770.367" fill="#9A8700" style="stroke:#9A8700;stroke-width:1;stroke-linejoin:miter;stroke-miterlimit:10;"/></g><!--link Administrador to Governance--><g class="link" data-entity-1="ent0006" data-entity-2="ent0015" id="lnk30" data-source-line="43" data-link-type="dependency"><path d="M114.07,734.127 C164.78,727.597 240.281,717.876 302.781,709.816" style="stroke:#9A8700;stroke-width:1;" fill="none" id="Administrador-to-Governance"/><polygon points="307.74,709.177,298.302,706.361,302.781,709.816,299.326,714.295,307.74,709.177" fill="#9A8700" style="stroke:#9A8700;stroke-width:1;stroke-linejoin:miter;stroke-miterlimit:10;"/></g><?plantuml-src VLF1Rjim3BtxAuZisXR5CA3RPO2RhRjiQB5sFVN2o4mYL9OoIacM3VltKPBjo8cn64WSFkg9V8yCEXY2kYNM2YrynQ0jp0rw3vVmmnFCKRxkTyGxJNkuSmmFJ9via4ndAqFB0C41wzKwGAEPL8hxLsqtoDZ20jNhYjtMDdDdvFYRkrgUcoB3hx5nUsrNi4JZgK1gPhVlZdsetzzSNnVWrfEAnVsf06xFBacVY3XkYBlestVngVvM5QeWWMVjTK0RgFl_sOTjeul00xibUSVTtzcdrA2yDGIU6fe1UhXbj6hTGsUfAxB4Q5Bgb_n-abithRRQ1nOTkAeYXdObliocZ9cbZllkvHwldFW3gB2XzW1ecnVBz7DBFW1PTiQqubUw_s6xC5gLnskbICn6fKIza0-tQ755i27spgA1ZQYWJMwspeabnNESZ24PGo3RY29qyI9E7UBT_W9e5tyZFtIr-SJtA8eByaXcMN9-ooMeD8diV22-AAXVR2GAX6ejdUyTlyRn2RhDHJv5G28JZ8jarb23r7YKICgCGxJ9PUQA2uVlDtw2S90z2nCPdOYHrYCJBRMDDNVofUmJgbg4E_ocBbD75QCFntwbtetZhfhl-Rqac3iRf0jHof1q8U4jwt38Cg7Cj2mfe-w6C8vBAYbkmh03S7dviH-GuoAaQ6_wIRZqhj-KKVueE9WotfVHWGdegFq4s4jnibSZpcbii64A_XzjeTveRqTtJY73ZUTWmLbP9-ekN0Yk1RVi3NbQopwcLw1VCbwQubHuCiP342nFIJUBLpcTzGw5gyZFWqc-sAGqeNdXumfSLHA7MCC_?></g></svg>